<svg width="877" height="139" viewBox="0 0 877 139" fill="none" xmlns="http://www.w3.org/2000/svg">
<path d="M212.8 59.5C212.8 61.6333 213.033 63.2 213.5 64.2C214.033 65.1333 215 65.8 216.4 66.2C217.867 66.6 220.133 66.8 223.2 66.8C223.4 66.8 223.5 67 223.5 67.4C223.5 67.8 223.4 68 223.2 68C220.467 68 218.333 67.9667 216.8 67.9L208.1 67.8L200.9 67.9C199.633 67.9667 197.9 68 195.7 68C195.5 68 195.4 67.8 195.4 67.4C195.4 67 195.5 66.8 195.7 66.8C197.967 66.8 199.6 66.6333 200.6 66.3C201.6 65.9667 202.267 65.3333 202.6 64.4C203 63.4667 203.2 61.9667 203.2 59.9V13.6C203.2 11.6 203 10.1333 202.6 9.2C202.267 8.26666 201.567 7.63333 200.5 7.29999C199.5 6.9 197.9 6.7 195.7 6.7C195.5 6.7 195.4 6.5 195.4 6.1C195.4 5.7 195.5 5.5 195.7 5.5L200.9 5.6C203.833 5.73333 206.2 5.8 208 5.8C209.533 5.8 211.4 5.7 213.6 5.5C214.4 5.43333 215.467 5.36666 216.8 5.3C218.2 5.23333 219.833 5.2 221.7 5.2C228.3 5.2 233.5 6.6 237.3 9.4C241.167 12.2 243.1 16.5 243.1 22.3C243.1 26.5 242 30.0667 239.8 33C237.667 35.9333 234.9 38.1333 231.5 39.6C228.167 41.0667 224.733 41.8 221.2 41.8C219.333 41.8 217.767 41.6333 216.5 41.3C216.3 41.3 216.2 41.1333 216.2 40.8C216.2 40.6 216.233 40.4 216.3 40.2C216.433 40 216.567 39.9333 216.7 40C217.767 40.2667 218.933 40.4 220.2 40.4C223.667 40.4 226.6 38.9667 229 36.1C231.4 33.2333 232.6 29.1333 232.6 23.8C232.6 18.5333 231.367 14.4667 228.9 11.6C226.433 8.66666 223.033 7.2 218.7 7.2C217.1 7.2 215.867 7.36666 215 7.7C214.2 8.03333 213.633 8.66666 213.3 9.59999C212.967 10.4667 212.8 11.8667 212.8 13.8V59.5ZM267.38 59.5C267.38 61.3 267.514 62.6 267.78 63.4C268.114 64.2 268.714 64.7333 269.58 65C270.447 65.2667 271.847 65.4 273.78 65.4H279.78C284.514 65.4 288.514 64.1 291.78 61.5C295.047 58.8333 297.214 55.2667 298.28 50.8C298.347 50.6 298.547 50.5333 298.88 50.6C299.214 50.6 299.38 50.7 299.38 50.9C298.78 57.1667 298.48 62.3667 298.48 66.5C298.48 67.0333 298.38 67.4333 298.18 67.7C297.98 67.9 297.58 68 296.98 68H250.18C250.047 68 249.98 67.8 249.98 67.4C249.98 67 250.047 66.8 250.18 66.8C252.447 66.8 254.08 66.6333 255.08 66.3C256.147 65.9667 256.847 65.3333 257.18 64.4C257.58 63.4 257.78 61.9 257.78 59.9V13.6C257.78 11.6 257.58 10.1333 257.18 9.2C256.847 8.26666 256.147 7.63333 255.08 7.29999C254.014 6.9 252.38 6.7 250.18 6.7C250.047 6.7 249.98 6.5 249.98 6.1C249.98 5.7 250.047 5.5 250.18 5.5L255.28 5.6C258.214 5.73333 260.614 5.8 262.48 5.8C264.48 5.8 266.947 5.73333 269.88 5.6L274.88 5.5C275.08 5.5 275.18 5.7 275.18 6.1C275.18 6.5 275.08 6.7 274.88 6.7C272.68 6.7 271.047 6.9 269.98 7.29999C268.98 7.63333 268.28 8.3 267.88 9.3C267.547 10.2333 267.38 11.7 267.38 13.7V59.5ZM349.982 52.4C349.982 52.2667 350.115 52.2 350.382 52.2C350.582 52.2 350.749 52.2667 350.882 52.4C351.082 52.4667 351.182 52.5333 351.182 52.6C350.515 57.6667 350.182 62.3 350.182 66.5C350.182 67.0333 350.082 67.4333 349.882 67.7C349.682 67.9 349.282 68 348.682 68H305.282C305.082 68 304.982 67.8 304.982 67.4C304.982 67 305.082 66.8 305.282 66.8C307.549 66.8 309.182 66.6333 310.182 66.3C311.249 65.9667 311.949 65.3333 312.282 64.4C312.682 63.4 312.882 61.9 312.882 59.9V13.6C312.882 11.6 312.682 10.1333 312.282 9.2C311.949 8.26666 311.249 7.63333 310.182 7.29999C309.115 6.9 307.482 6.7 305.282 6.7C305.082 6.7 304.982 6.5 304.982 6.1C304.982 5.7 305.082 5.5 305.282 5.5H346.882C347.549 5.5 347.882 5.8 347.882 6.39999L348.082 19.4C348.082 19.5333 347.882 19.6333 347.482 19.7C347.149 19.7667 346.949 19.7 346.882 19.5C345.282 11.9 340.649 8.1 332.982 8.1H328.982C326.582 8.1 324.882 8.53333 323.882 9.4C322.882 10.2667 322.382 11.7333 322.382 13.8V34.2H331.982C339.315 34.2 342.982 31.7333 342.982 26.8C342.982 26.6 343.149 26.5 343.482 26.5C343.882 26.5 344.082 26.6 344.082 26.8L343.982 35.5L344.082 40.2C344.215 42.3333 344.282 44.0667 344.282 45.4C344.282 45.5333 344.082 45.6 343.682 45.6C343.282 45.6 343.082 45.5333 343.082 45.4C343.082 39.6667 339.349 36.8 331.882 36.8H322.382V59.5C322.382 61.7 322.782 63.2333 323.582 64.1C324.449 64.9667 325.949 65.4 328.082 65.4H332.982C341.915 65.4 347.582 61.0667 349.982 52.4ZM426.87 66.8C427.203 66.8 427.37 67 427.37 67.4C427.37 67.8 427.203 68 426.87 68C425.603 68 423.57 67.9333 420.77 67.8C417.97 67.6667 415.936 67.6 414.67 67.6C413.003 67.6 411.036 67.6667 408.77 67.8C406.503 67.9333 404.736 68 403.47 68C403.203 68 403.07 67.8 403.07 67.4C403.07 67 403.203 66.8 403.47 66.8C405.403 66.8 406.803 66.6 407.67 66.2C408.603 65.7333 409.07 65 409.07 64C409.07 63 408.503 61.3 407.37 58.9L399.77 43.5H375.57L370.77 54.3C369.903 56.3 369.47 58.1 369.47 59.7C369.47 62.0333 370.303 63.8 371.97 65C373.636 66.2 375.97 66.8 378.97 66.8C379.303 66.8 379.47 67 379.47 67.4C379.47 67.8 379.303 68 378.97 68C377.77 68 376.036 67.9333 373.77 67.8C371.236 67.6667 369.036 67.6 367.17 67.6C365.37 67.6 363.27 67.6667 360.87 67.8C358.736 67.9333 356.97 68 355.57 68C355.236 68 355.07 67.8 355.07 67.4C355.07 67 355.236 66.8 355.57 66.8C357.436 66.8 359.003 66.4333 360.27 65.7C361.536 64.9667 362.77 63.6667 363.97 61.8C365.17 59.8667 366.603 57.0333 368.27 53.3L389.77 4.9C389.903 4.7 390.203 4.6 390.67 4.6C391.136 4.6 391.403 4.7 391.47 4.9L415.97 54.3C418.303 59.1 420.236 62.4 421.77 64.2C423.37 65.9333 425.07 66.8 426.87 66.8ZM376.67 41H398.57L387.07 17.7L376.67 41ZM443.263 16.1C443.263 18.5667 443.863 20.7667 445.063 22.7C446.33 24.5667 447.863 26.2 449.663 27.6C451.53 29 454.03 30.6667 457.163 32.6C460.563 34.7333 463.23 36.5667 465.163 38.1C467.163 39.6333 468.83 41.5333 470.163 43.8C471.563 46 472.263 48.6 472.263 51.6C472.263 55 471.363 58.0333 469.563 60.7C467.83 63.3667 465.33 65.4667 462.063 67C458.863 68.4667 455.197 69.2 451.063 69.2C448.263 69.2 445.363 68.8333 442.363 68.1C439.43 67.3667 437.197 66.4667 435.663 65.4C435.063 65 434.73 64.3667 434.663 63.5L434.063 48.3V48.2C434.063 47.9333 434.23 47.8 434.563 47.8C434.897 47.7333 435.097 47.8333 435.163 48.1C437.363 53.6333 439.863 58.1667 442.663 61.7C445.53 65.2333 449.163 67 453.563 67C456.43 67 458.83 66.2333 460.763 64.7C462.697 63.1 463.663 60.4667 463.663 56.8C463.663 53.8667 462.997 51.3 461.663 49.1C460.397 46.9 458.797 45.0667 456.863 43.6C454.997 42.1333 452.43 40.3333 449.163 38.2C445.963 36.1333 443.463 34.4 441.663 33C439.863 31.5333 438.33 29.7667 437.063 27.7C435.797 25.5667 435.163 23.1 435.163 20.3C435.163 16.8333 436.13 13.9 438.063 11.5C439.997 9.1 442.497 7.33333 445.563 6.2C448.697 5 451.963 4.4 455.363 4.4C457.63 4.4 459.897 4.63333 462.163 5.1C464.43 5.5 466.33 6.03333 467.863 6.7C468.863 7.1 469.363 7.73333 469.363 8.6L469.663 22.2C469.663 22.4 469.463 22.5333 469.063 22.6C468.73 22.6667 468.53 22.6 468.463 22.4C467.13 18.3333 465.33 14.6667 463.063 11.4C460.863 8.06666 457.53 6.39999 453.063 6.39999C450.063 6.39999 447.663 7.26666 445.863 9C444.13 10.7333 443.263 13.1 443.263 16.1ZM534.647 17.7C534.647 14.2333 533.847 11.5333 532.247 9.59999C530.714 7.66666 528.48 6.7 525.547 6.7C525.414 6.7 525.347 6.5 525.347 6.1C525.347 5.7 525.414 5.5 525.547 5.5L530.147 5.6C532.68 5.73333 534.68 5.8 536.147 5.8C537.347 5.8 539.147 5.73333 541.547 5.6L545.947 5.5C546.08 5.5 546.147 5.7 546.147 6.1C546.147 6.5 546.08 6.7 545.947 6.7C543.347 6.7 541.314 7.66666 539.847 9.59999C538.447 11.5333 537.747 14.2333 537.747 17.7V45.7C537.747 50.5 536.714 54.7 534.647 58.3C532.647 61.8333 529.78 64.5667 526.047 66.5C522.38 68.4333 518.114 69.4 513.247 69.4C508.38 69.4 504.047 68.4667 500.247 66.6C496.447 64.6667 493.48 61.9333 491.347 58.4C489.28 54.8 488.247 50.6 488.247 45.8V13.6C488.247 11.6 488.047 10.1333 487.647 9.2C487.247 8.26666 486.514 7.63333 485.447 7.29999C484.447 6.9 482.847 6.7 480.647 6.7C480.447 6.7 480.347 6.5 480.347 6.1C480.347 5.7 480.447 5.5 480.647 5.5L485.847 5.6C488.78 5.73333 491.147 5.8 492.947 5.8C494.947 5.8 497.414 5.73333 500.347 5.6L505.347 5.5C505.547 5.5 505.647 5.7 505.647 6.1C505.647 6.5 505.547 6.7 505.347 6.7C503.147 6.7 501.514 6.9 500.447 7.29999C499.38 7.7 498.647 8.4 498.247 9.4C497.914 10.3333 497.747 11.8 497.747 13.8V42.3C497.747 50.2333 499.38 56.1667 502.647 60.1C505.98 63.9667 510.614 65.9 516.547 65.9C522.214 65.9 526.647 64.1667 529.847 60.7C533.047 57.1667 534.647 52.2 534.647 45.8V17.7ZM617.564 66.8C617.764 66.8 617.864 67 617.864 67.4C617.864 67.8 617.764 68 617.564 68H601.464C599.931 68 597.064 65.3333 592.864 60C588.731 54.6667 583.697 47.2 577.764 37.6C576.297 37.7333 575.164 37.8 574.364 37.8C572.897 37.8 571.164 37.7333 569.164 37.6V59.9C569.164 61.9667 569.331 63.4667 569.664 64.4C570.064 65.3333 570.764 65.9667 571.764 66.3C572.831 66.6333 574.497 66.8 576.764 66.8C576.897 66.8 576.964 67 576.964 67.4C576.964 67.8 576.897 68 576.764 68C574.564 68 572.864 67.9667 571.664 67.9L564.264 67.8L557.064 67.9C555.797 67.9667 554.064 68 551.864 68C551.664 68 551.564 67.8 551.564 67.4C551.564 67 551.664 66.8 551.864 66.8C554.131 66.8 555.764 66.6333 556.764 66.3C557.831 65.9667 558.564 65.3333 558.964 64.4C559.364 63.4 559.564 61.9 559.564 59.9V13.6C559.564 11.6 559.364 10.1333 558.964 9.2C558.631 8.26666 557.931 7.63333 556.864 7.29999C555.797 6.9 554.164 6.7 551.964 6.7C551.831 6.7 551.764 6.5 551.764 6.1C551.764 5.7 551.831 5.5 551.964 5.5L557.164 5.6C560.097 5.73333 562.464 5.8 564.264 5.8C566.464 5.8 568.864 5.7 571.464 5.5C572.331 5.43333 573.364 5.36666 574.564 5.3C575.831 5.23333 577.231 5.2 578.764 5.2C584.564 5.2 589.031 6.33333 592.164 8.6C595.364 10.8667 596.964 14.0333 596.964 18.1C596.964 21.7667 595.931 25.0667 593.864 28C591.864 30.9333 589.164 33.2667 585.764 35C591.231 43.0667 595.797 49.3667 599.464 53.9C603.131 58.4333 606.364 61.7333 609.164 63.8C612.031 65.8 614.831 66.8 617.564 66.8ZM569.164 34.9C570.764 35.1667 572.697 35.3 574.964 35.3C579.297 35.3 582.397 34.2333 584.264 32.1C586.131 29.9 587.064 26.4 587.064 21.6C587.064 16.2 586.131 12.4333 584.264 10.3C582.464 8.16666 579.831 7.1 576.364 7.1C573.764 7.1 571.897 7.6 570.764 8.6C569.697 9.53333 569.164 11.2667 569.164 13.8V34.9ZM665.607 52.4C665.607 52.2667 665.74 52.2 666.007 52.2C666.207 52.2 666.374 52.2667 666.507 52.4C666.707 52.4667 666.807 52.5333 666.807 52.6C666.14 57.6667 665.807 62.3 665.807 66.5C665.807 67.0333 665.707 67.4333 665.507 67.7C665.307 67.9 664.907 68 664.307 68H620.907C620.707 68 620.607 67.8 620.607 67.4C620.607 67 620.707 66.8 620.907 66.8C623.174 66.8 624.807 66.6333 625.807 66.3C626.874 65.9667 627.574 65.3333 627.907 64.4C628.307 63.4 628.507 61.9 628.507 59.9V13.6C628.507 11.6 628.307 10.1333 627.907 9.2C627.574 8.26666 626.874 7.63333 625.807 7.29999C624.74 6.9 623.107 6.7 620.907 6.7C620.707 6.7 620.607 6.5 620.607 6.1C620.607 5.7 620.707 5.5 620.907 5.5H662.507C663.174 5.5 663.507 5.8 663.507 6.39999L663.707 19.4C663.707 19.5333 663.507 19.6333 663.107 19.7C662.774 19.7667 662.574 19.7 662.507 19.5C660.907 11.9 656.274 8.1 648.607 8.1H644.607C642.207 8.1 640.507 8.53333 639.507 9.4C638.507 10.2667 638.007 11.7333 638.007 13.8V34.2H647.607C654.94 34.2 658.607 31.7333 658.607 26.8C658.607 26.6 658.774 26.5 659.107 26.5C659.507 26.5 659.707 26.6 659.707 26.8L659.607 35.5L659.707 40.2C659.84 42.3333 659.907 44.0667 659.907 45.4C659.907 45.5333 659.707 45.6 659.307 45.6C658.907 45.6 658.707 45.5333 658.707 45.4C658.707 39.6667 654.974 36.8 647.507 36.8H638.007V59.5C638.007 61.7 638.407 63.2333 639.207 64.1C640.074 64.9667 641.574 65.4 643.707 65.4H648.607C657.54 65.4 663.207 61.0667 665.607 52.4ZM711.232 16.1C711.232 18.5667 711.832 20.7667 713.032 22.7C714.299 24.5667 715.832 26.2 717.632 27.6C719.499 29 721.999 30.6667 725.132 32.6C728.532 34.7333 731.199 36.5667 733.132 38.1C735.132 39.6333 736.799 41.5333 738.132 43.8C739.532 46 740.232 48.6 740.232 51.6C740.232 55 739.332 58.0333 737.532 60.7C735.799 63.3667 733.299 65.4667 730.032 67C726.832 68.4667 723.165 69.2 719.032 69.2C716.232 69.2 713.332 68.8333 710.332 68.1C707.399 67.3667 705.165 66.4667 703.632 65.4C703.032 65 702.699 64.3667 702.632 63.5L702.032 48.3V48.2C702.032 47.9333 702.199 47.8 702.532 47.8C702.865 47.7333 703.065 47.8333 703.132 48.1C705.332 53.6333 707.832 58.1667 710.632 61.7C713.499 65.2333 717.132 67 721.532 67C724.399 67 726.799 66.2333 728.732 64.7C730.665 63.1 731.632 60.4667 731.632 56.8C731.632 53.8667 730.965 51.3 729.632 49.1C728.365 46.9 726.765 45.0667 724.832 43.6C722.965 42.1333 720.399 40.3333 717.132 38.2C713.932 36.1333 711.432 34.4 709.632 33C707.832 31.5333 706.299 29.7667 705.032 27.7C703.765 25.5667 703.132 23.1 703.132 20.3C703.132 16.8333 704.099 13.9 706.032 11.5C707.965 9.1 710.465 7.33333 713.532 6.2C716.665 5 719.932 4.4 723.332 4.4C725.599 4.4 727.865 4.63333 730.132 5.1C732.399 5.5 734.299 6.03333 735.832 6.7C736.832 7.1 737.332 7.73333 737.332 8.6L737.632 22.2C737.632 22.4 737.432 22.5333 737.032 22.6C736.699 22.6667 736.499 22.6 736.432 22.4C735.099 18.3333 733.299 14.6667 731.032 11.4C728.832 8.06666 725.499 6.39999 721.032 6.39999C718.032 6.39999 715.632 7.26666 713.832 9C712.099 10.7333 711.232 13.1 711.232 16.1ZM766.316 59.5C766.316 61.6333 766.549 63.2 767.016 64.2C767.549 65.1333 768.516 65.8 769.916 66.2C771.382 66.6 773.649 66.8 776.716 66.8C776.916 66.8 777.016 67 777.016 67.4C777.016 67.8 776.916 68 776.716 68C773.982 68 771.849 67.9667 770.316 67.9L761.616 67.8L754.416 67.9C753.149 67.9667 751.416 68 749.216 68C749.016 68 748.916 67.8 748.916 67.4C748.916 67 749.016 66.8 749.216 66.8C751.482 66.8 753.116 66.6333 754.116 66.3C755.116 65.9667 755.782 65.3333 756.116 64.4C756.516 63.4667 756.716 61.9667 756.716 59.9V13.6C756.716 11.6 756.516 10.1333 756.116 9.2C755.782 8.26666 755.082 7.63333 754.016 7.29999C753.016 6.9 751.416 6.7 749.216 6.7C749.016 6.7 748.916 6.5 748.916 6.1C748.916 5.7 749.016 5.5 749.216 5.5L754.416 5.6C757.349 5.73333 759.716 5.8 761.516 5.8C763.049 5.8 764.916 5.7 767.116 5.5C767.916 5.43333 768.982 5.36666 770.316 5.3C771.716 5.23333 773.349 5.2 775.216 5.2C781.816 5.2 787.016 6.6 790.816 9.4C794.682 12.2 796.616 16.5 796.616 22.3C796.616 26.5 795.516 30.0667 793.316 33C791.182 35.9333 788.416 38.1333 785.016 39.6C781.682 41.0667 778.249 41.8 774.716 41.8C772.849 41.8 771.282 41.6333 770.016 41.3C769.816 41.3 769.716 41.1333 769.716 40.8C769.716 40.6 769.749 40.4 769.816 40.2C769.949 40 770.082 39.9333 770.216 40C771.282 40.2667 772.449 40.4 773.716 40.4C777.182 40.4 780.116 38.9667 782.516 36.1C784.916 33.2333 786.116 29.1333 786.116 23.8C786.116 18.5333 784.882 14.4667 782.416 11.6C779.949 8.66666 776.549 7.2 772.216 7.2C770.616 7.2 769.382 7.36666 768.516 7.7C767.716 8.03333 767.149 8.66666 766.816 9.59999C766.482 10.4667 766.316 11.8667 766.316 13.8V59.5ZM866.225 66.8C866.558 66.8 866.725 67 866.725 67.4C866.725 67.8 866.558 68 866.225 68C864.958 68 862.925 67.9333 860.125 67.8C857.325 67.6667 855.292 67.6 854.025 67.6C852.358 67.6 850.392 67.6667 848.125 67.8C845.858 67.9333 844.092 68 842.825 68C842.558 68 842.425 67.8 842.425 67.4C842.425 67 842.558 66.8 842.825 66.8C844.758 66.8 846.158 66.6 847.025 66.2C847.958 65.7333 848.425 65 848.425 64C848.425 63 847.858 61.3 846.725 58.9L839.125 43.5H814.925L810.125 54.3C809.258 56.3 808.825 58.1 808.825 59.7C808.825 62.0333 809.658 63.8 811.325 65C812.992 66.2 815.325 66.8 818.325 66.8C818.658 66.8 818.825 67 818.825 67.4C818.825 67.8 818.658 68 818.325 68C817.125 68 815.392 67.9333 813.125 67.8C810.592 67.6667 808.392 67.6 806.525 67.6C804.725 67.6 802.625 67.6667 800.225 67.8C798.092 67.9333 796.325 68 794.925 68C794.592 68 794.425 67.8 794.425 67.4C794.425 67 794.592 66.8 794.925 66.8C796.792 66.8 798.358 66.4333 799.625 65.7C800.892 64.9667 802.125 63.6667 803.325 61.8C804.525 59.8667 805.958 57.0333 807.625 53.3L829.125 4.9C829.258 4.7 829.558 4.6 830.025 4.6C830.492 4.6 830.758 4.7 830.825 4.9L855.325 54.3C857.658 59.1 859.592 62.4 861.125 64.2C862.725 65.9333 864.425 66.8 866.225 66.8ZM816.025 41H837.925L826.425 17.7L816.025 41Z" fill="#283531"/>
<path d="M139.597 97.9136C140.316 97.3929 141.017 96.8529 141.654 96.2294C145.389 92.5458 147.202 87.3516 147.202 80.3509C147.202 69.0751 141.32 63.4566 132.332 60.6472C134.235 59.7731 135.92 58.738 137.244 57.3943C139.635 54.958 140.818 51.853 140.76 48.1628C140.677 42.8721 135.322 38.8541 127.402 36.167C128.887 35.5113 130.192 34.6884 131.259 33.6277C133.303 31.6027 134.338 28.9283 134.338 25.7142C134.338 13.5771 119.218 0 98.9811 0C78.7441 0 63.6238 13.5771 63.6238 25.7142C63.6238 28.9286 64.6589 31.59 66.6965 33.6213C67.7636 34.682 69.0943 35.4728 70.5793 36.1285C64.5751 38.1535 60.0493 40.9369 58.1593 44.4536C54.6556 40.8408 49.7637 38.5714 44.3377 38.5714C35.0098 38.5714 27.212 45.2313 25.4377 54.0449C16.9198 51.1777 7.25764 54.6042 2.5905 62.6786C-2.07032 70.753 -0.205929 80.8394 6.53774 86.7794C-0.212257 92.7194 -2.0893 102.806 2.57784 110.893C6.15203 117.077 12.645 120.536 19.3178 120.536C21.3751 120.536 23.4194 120.079 25.4251 119.398C27.1545 128.269 34.9652 135 44.338 135C50.7279 135 56.366 131.837 59.876 127.029C69.1588 131.979 84.8573 135 102.195 135C124.31 135 143.222 130.288 150.371 122.998C152.582 120.742 153.675 118.267 153.624 115.656C153.405 104.966 147.935 100.099 139.597 97.9136ZM140.767 80.3573C140.767 85.5514 139.577 89.248 137.135 91.6587C134.216 94.5386 129.298 95.7409 123.255 96.2357C119.829 96.1972 116.254 96.255 112.577 96.3129C109.536 96.3644 106.354 96.403 103.14 96.4542C98.081 96.4156 92.8672 96.3707 87.8337 95.8048C87.3708 94.2234 86.6636 92.732 85.8087 91.3112C85.6607 91.0605 85.513 90.8098 85.3521 90.5654C84.4457 89.2025 83.4172 87.9103 82.1507 86.7918L82.1444 86.7854C82.1573 86.7725 82.17 86.7598 82.1829 86.7468C82.2086 86.7212 82.2278 86.6953 82.2601 86.6697C83.1023 85.9176 83.8545 85.0753 84.5488 84.1882C84.7094 83.9824 84.8573 83.7639 85.0116 83.5517C85.5579 82.7866 86.053 81.9896 86.4837 81.1474C86.5864 80.9482 86.7021 80.7553 86.7986 80.5495C87.287 79.5081 87.7179 78.4344 88.0199 77.3032C88.3285 76.146 88.502 74.9759 88.5921 73.8125C88.6114 73.5747 88.5921 73.3366 88.6051 73.1052C88.6437 72.1732 88.6307 71.2475 88.5343 70.3281C88.502 69.9873 88.4378 69.6467 88.3863 69.3059C88.2576 68.4766 88.0714 67.6666 87.8334 66.8566C87.724 66.4902 87.6149 66.1301 87.4862 65.7703C87.3898 65.5066 87.3383 65.2303 87.2292 64.9733C91.0541 64.5104 94.9884 64.279 98.9805 64.279C125.666 64.2856 140.767 65.0251 140.767 80.3573ZM70.0522 25.7142C70.0522 16.9778 82.9544 6.42847 98.9808 6.42847C115.007 6.42847 127.909 16.9778 127.909 25.7142C127.909 27.662 127.234 28.5555 126.727 29.0636C123.525 32.2457 113.67 32.1879 103.243 32.1493L98.9808 32.143L94.7187 32.1559C84.298 32.2201 74.4364 32.2587 71.235 29.0702C70.7272 28.5621 70.0522 27.675 70.0522 25.7142ZM98.9808 38.5714C121.757 38.5714 134.287 44.9743 134.338 48.2658C134.37 50.22 133.836 51.6923 132.666 52.8814C128.018 57.6128 113.972 57.8442 101.005 57.8508C100.33 57.8508 99.6618 57.8508 98.9868 57.8508C98.9612 57.8508 98.9353 57.8508 98.9097 57.8508C92.0955 57.8445 85.4546 57.2273 79.6369 56.0443C79.5535 55.9928 79.457 55.9735 79.3733 55.9286C76.4418 54.1543 73.1247 53.1707 69.7111 53.1065C65.5132 51.2874 63.6232 49.3651 63.6232 48.2143C63.6238 44.9357 76.1016 38.5714 98.9808 38.5714ZM58.1144 72.4821C58.4552 71.8905 58.7894 71.3056 59.1172 70.7141C59.3357 70.3154 59.5478 69.9234 59.7537 69.5313C60.0752 68.9205 60.3708 68.3163 60.6664 67.7121C60.827 67.378 61.0006 67.0435 61.1486 66.7093C61.5665 65.7965 61.9456 64.8964 62.2735 64.0156C62.3313 63.8613 62.3699 63.72 62.4214 63.5657C62.6977 62.788 62.9292 62.0358 63.1157 61.303C63.135 61.2258 63.1672 61.1423 63.1865 61.0652C65.0636 60.0367 67.0822 59.5802 69.0943 59.5353C69.1072 59.5353 69.1199 59.5416 69.1328 59.5416C71.8265 59.4515 74.4042 60.2489 76.5964 61.7339C76.5964 61.7339 76.5964 61.7339 76.6027 61.7339C78.1586 62.7883 79.5342 64.1575 80.5307 65.8933C83.6294 71.261 82.4014 77.9598 77.9464 81.926C77.31 82.4916 76.6094 82.9997 75.838 83.4433C75.7738 83.4818 75.69 83.5011 75.6258 83.5397C75.3944 83.6617 75.0858 83.7582 74.8095 83.8676C74.038 84.1568 73.1509 84.4012 72.1288 84.5811C72.1158 84.5811 72.1031 84.5875 72.0902 84.5875C69.8723 84.9795 67.153 85.1338 64.2731 85.1404C64.209 85.1404 64.1381 85.1404 64.0673 85.1404C62.6851 85.1404 61.2646 85.1082 59.8501 85.044C59.7986 85.044 59.7537 85.0377 59.7021 85.0377C56.3657 84.8897 53.1064 84.607 50.2907 84.2985C50.3808 84.1764 50.4836 84.0348 50.5737 83.9064C50.9594 83.3857 51.3514 82.8394 51.763 82.2608C51.9429 82.0038 52.1295 81.7464 52.316 81.4764C52.6954 80.9364 53.0745 80.3901 53.4668 79.8179C53.6726 79.5156 53.8781 79.22 54.084 78.9114C54.5468 78.2235 55.0097 77.5229 55.4725 76.803C55.6012 76.6038 55.7232 76.4172 55.8519 76.2181C56.4112 75.3439 56.9575 74.4501 57.4975 73.5503C57.7094 73.1893 57.9089 72.8358 58.1144 72.4821ZM44.3317 44.9936C51.4225 44.9936 57.189 50.76 57.189 57.8508C57.189 58.1723 57.0862 58.5773 57.0283 58.9438C56.8933 59.7474 56.6682 60.6153 56.3211 61.573C56.3081 61.6115 56.2955 61.6438 56.2825 61.6823C55.5241 63.7652 54.3217 66.1566 52.9139 68.6122C52.8174 68.7795 52.708 68.9531 52.6116 69.1266C51.9945 70.181 51.3517 71.2481 50.683 72.3025C50.5737 72.476 50.4579 72.6559 50.3489 72.8295C49.6223 73.9673 48.8768 75.0923 48.1373 76.1723C48.118 76.1979 48.0988 76.2238 48.0858 76.2494C47.07 77.7407 46.093 79.0974 45.1607 80.3702C43.7079 77.0531 41.6507 72.6689 39.2786 68.4453C39.2593 68.4067 39.2337 68.3682 39.2077 68.3296C38.687 67.4102 38.1534 66.5038 37.607 65.6166C37.485 65.4238 37.3693 65.2309 37.2469 65.0381C36.7455 64.2344 36.2311 63.463 35.7104 62.7108C35.6076 62.5629 35.5112 62.4152 35.4082 62.2736C34.791 61.3994 34.1609 60.5764 33.5311 59.8113C33.4733 59.7405 33.4154 59.6827 33.3575 59.6185C32.779 58.9371 32.2004 58.3134 31.6155 57.7478C31.564 57.6962 31.5191 57.632 31.4675 57.5871C31.6158 50.625 37.3307 44.9999 44.3317 44.9936ZM8.15172 65.893C10.5302 61.7658 14.8568 59.4645 19.3052 59.4645C21.4845 59.4645 23.696 60.0174 25.7144 61.1872C25.9844 61.3415 26.2737 61.6245 26.5566 61.8493C30.8703 65.3849 36.0515 75.735 39.208 82.8771C39.073 82.8641 38.9058 82.8448 38.7645 82.8321C38.0958 82.7613 37.3952 82.6842 36.656 82.6137C36.3923 82.5881 36.1353 82.5688 35.8653 82.5429C35.0939 82.472 34.2968 82.4079 33.4675 82.3437C33.2491 82.3244 33.0369 82.3114 32.8118 82.2922C30.6518 82.1379 28.3761 82.0285 26.0811 82.0029C25.8882 82.0029 25.7017 82.0029 25.5155 82.0029C24.5961 81.9965 23.6833 82.0029 22.7769 82.0285C22.4813 82.0348 22.1854 82.0478 21.8898 82.0541C21.009 82.0863 20.1477 82.1376 19.3055 82.2084C19.087 82.2277 18.8619 82.2406 18.6434 82.2599C17.5957 82.3563 16.5799 82.485 15.6156 82.6456C15.5062 82.6649 15.4034 82.6905 15.2941 82.7098C14.4392 82.8641 13.6418 83.0506 12.8833 83.2628C12.8125 83.2821 12.7227 83.295 12.6456 83.3143C6.66672 79.7208 4.64804 71.955 8.15172 65.893ZM30.6581 100.935C30.2661 101.604 29.8867 102.279 29.5203 102.954C29.3338 103.288 29.1602 103.622 28.9803 103.957C28.6139 104.651 28.273 105.332 27.9452 106.02C27.8165 106.29 27.6815 106.554 27.5595 106.817C27.1289 107.756 26.7431 108.682 26.4023 109.581C26.3574 109.703 26.3252 109.819 26.2803 109.942C25.991 110.745 25.7532 111.517 25.5667 112.275C25.5538 112.346 25.5152 112.429 25.4959 112.5C19.376 115.875 11.6551 113.734 8.15172 107.672C4.60947 101.533 6.71825 93.6517 12.8574 90.1095C13.1467 89.9422 13.571 89.8265 13.9374 89.6852C14.6703 89.4152 15.4996 89.1901 16.4446 89.0165C16.5347 88.9973 16.6181 88.978 16.7082 88.965C19.2925 88.5214 22.5455 88.4057 25.9331 88.4572C27.328 88.4765 28.7489 88.5281 30.189 88.5986C31.0891 88.6501 31.9889 88.695 32.8697 88.7592C34.2453 88.8619 35.589 88.9777 36.9067 89.1063C37.4274 89.1579 37.8966 89.2091 38.3854 89.2606C38.1217 89.6207 37.8261 90.0384 37.5431 90.4241C37.3825 90.6492 37.2282 90.8613 37.061 91.0928C36.7847 91.4785 36.508 91.8705 36.2254 92.2822C35.9168 92.7257 35.6019 93.1756 35.2867 93.6385C35.049 93.9856 34.8239 94.3198 34.5861 94.6736C34.1169 95.3742 33.6474 96.0878 33.1719 96.8206C33.0625 96.9942 32.9534 97.1548 32.8441 97.3284C32.2718 98.2285 31.7062 99.1476 31.1532 100.08C30.9794 100.369 30.8188 100.646 30.6581 100.935ZM55.8709 121.256C55.8516 121.288 55.8579 121.326 55.8453 121.358C53.7431 125.614 49.3975 128.571 44.338 128.571C37.2472 128.571 31.4808 122.805 31.4808 115.714C31.4808 115.399 31.5772 114.994 31.6351 114.628C31.7701 113.818 32.0015 112.937 32.3487 111.966C32.355 111.941 32.3616 111.921 32.3679 111.895C33.133 109.787 34.3544 107.37 35.7815 104.882C35.833 104.798 35.8843 104.708 35.9358 104.618C36.6045 103.461 37.318 102.291 38.0509 101.134C38.1088 101.05 38.1603 100.96 38.2181 100.877C39.9988 98.0865 41.8568 95.4317 43.5154 93.1687C44.2419 94.8209 45.1224 96.7495 46.106 98.7872C46.1123 98.7935 46.1123 98.8064 46.119 98.8128C47.0962 100.825 48.1825 102.934 49.346 105.016C49.4168 105.145 49.4873 105.267 49.5645 105.389C50.0337 106.218 50.5158 107.028 51.0046 107.832C51.1589 108.083 51.3131 108.334 51.4674 108.578C51.9366 109.317 52.4061 110.037 52.8882 110.732C53.0169 110.918 53.1453 111.111 53.274 111.297C53.8848 112.159 54.5019 112.975 55.1254 113.727C55.1896 113.804 55.2541 113.869 55.3183 113.946C55.8905 114.621 56.4624 115.238 57.041 115.797C57.0796 115.836 57.1181 115.887 57.1567 115.919C57.1308 117.733 56.7128 119.527 55.8709 121.256ZM49.4744 90.6878C49.5645 90.7007 49.6802 90.707 49.77 90.72C50.4836 90.7971 51.2294 90.8743 52.0264 90.9514C52.2515 90.9707 52.4763 90.9963 52.7014 91.0156C53.4985 91.0864 54.3214 91.1569 55.1763 91.2214C55.4526 91.2407 55.7163 91.26 55.9926 91.2793C56.7963 91.3372 57.619 91.382 58.4549 91.4206C58.8213 91.4399 59.1877 91.4592 59.5542 91.4721C60.3193 91.5044 61.0841 91.5237 61.8555 91.5363C62.2927 91.5427 62.717 91.5556 63.154 91.5619C63.3598 91.5619 63.5719 91.5749 63.7774 91.5749C64.0797 91.5749 64.3623 91.5556 64.6646 91.5493C65.6033 91.543 66.5223 91.517 67.4354 91.4721C67.8983 91.4529 68.3482 91.4206 68.8047 91.3887C69.7434 91.3245 70.6368 91.2281 71.5176 91.1123C71.9034 91.0608 72.302 91.0222 72.6748 90.9644C73.7162 90.7971 74.6935 90.5916 75.5999 90.3409C75.7286 90.3087 75.8892 90.2894 76.0112 90.2508C77.567 91.1895 78.8977 92.4301 79.9069 93.9088C79.9262 93.9344 79.9392 93.9666 79.9585 93.9922C80.9936 95.5288 81.7005 97.3031 82.0091 99.2187C82.0091 99.225 82.0154 99.2316 82.0154 99.238C82.0925 99.7264 82.176 100.209 82.2019 100.71C82.2019 100.742 82.1826 100.774 82.189 100.813C82.2275 101.951 82.0925 103.063 81.8548 104.136C81.8162 104.291 81.7906 104.451 81.7454 104.605C81.4624 105.685 81.0704 106.727 80.5111 107.691C80.4403 107.813 80.3375 107.916 80.2604 108.038C79.8747 108.655 79.4697 109.26 79.0005 109.787C78.949 109.845 78.8785 109.89 78.8269 109.948C76.0627 112.95 72.0447 114.422 68.0718 114.017C67.9754 114.004 67.879 114.017 67.7825 114.011C67.1075 113.927 66.4389 113.753 65.7705 113.554C65.6225 113.509 65.4619 113.496 65.314 113.445C64.5103 113.175 63.7196 112.821 62.9611 112.384C62.6911 112.23 62.4018 111.947 62.1189 111.722C57.8124 108.187 52.6246 97.8364 49.4744 90.6878ZM145.774 118.491C141.024 123.345 125.357 128.572 102.195 128.572C85.9693 128.572 70.9457 125.775 62.7493 121.333C62.8843 120.915 62.9807 120.491 63.0835 120.073C63.1284 119.893 63.1992 119.726 63.2377 119.539C63.5334 119.642 63.8356 119.687 64.1378 119.771C64.3756 119.835 64.607 119.9 64.8514 119.957C66.2849 120.305 67.7379 120.51 69.21 120.523C69.2615 120.523 69.3064 120.542 69.3579 120.542C69.4544 120.542 69.5508 120.504 69.6472 120.504C71.2287 120.478 72.8101 120.305 74.3786 119.887C75.8506 119.488 77.2199 118.89 78.525 118.183C78.8528 118.003 79.1551 117.791 79.4763 117.592C80.4921 116.968 81.4305 116.261 82.3113 115.457C82.6199 115.181 82.9221 114.917 83.2114 114.615C84.2914 113.496 85.2879 112.281 86.0913 110.899C86.4192 110.327 86.6313 109.697 86.9013 109.093C87.705 107.299 88.3028 105.454 88.5276 103.571C93.0019 103.114 97.547 102.953 102.008 102.876C103.667 102.896 105.306 102.909 106.913 102.934C109.33 102.966 111.69 102.998 113.978 102.998C117.263 102.998 120.387 102.915 123.338 102.69C139.165 102.857 146.976 104.933 147.201 115.785C147.214 116.601 146.732 117.514 145.774 118.491Z" fill="#FE8060"/>
<path d="M82.0996 25.515C82.8903 25.515 83.6747 25.2257 84.2982 24.6535C85.6419 23.3999 90.6754 19.2857 98.9809 19.2857C100.755 19.2857 102.195 17.8456 102.195 16.0713C102.195 14.297 100.755 12.8569 98.9809 12.8569C88.3159 12.8569 81.6817 18.2892 79.9011 19.9541C78.6089 21.1691 78.5447 23.2004 79.7531 24.4992C80.3832 25.1808 81.2447 25.515 82.0996 25.515Z" fill="#FE8060"/>
<path d="M198.285 137.73V106.905H202.56L202.92 109.245H203.1C204.03 108.465 205.065 107.79 206.205 107.22C207.345 106.65 208.53 106.365 209.76 106.365C211.14 106.365 212.355 106.635 213.405 107.175C214.485 107.685 215.4 108.435 216.15 109.425C216.9 110.415 217.47 111.6 217.86 112.98C218.25 114.36 218.445 115.905 218.445 117.615C218.445 119.505 218.175 121.2 217.635 122.7C217.125 124.17 216.435 125.415 215.565 126.435C214.695 127.425 213.69 128.19 212.55 128.73C211.41 129.27 210.225 129.54 208.995 129.54C208.035 129.54 207.075 129.33 206.115 128.91C205.155 128.49 204.225 127.89 203.325 127.11L203.46 130.8V137.73H198.285ZM207.915 125.265C209.385 125.265 210.615 124.635 211.605 123.375C212.595 122.085 213.09 120.18 213.09 117.66C213.09 115.44 212.715 113.715 211.965 112.485C211.215 111.255 210 110.64 208.32 110.64C206.76 110.64 205.14 111.465 203.46 113.115V123.42C204.27 124.11 205.05 124.59 205.8 124.86C206.55 125.13 207.255 125.265 207.915 125.265ZM227.51 129V106.905H231.785L232.145 110.82H232.325C233.105 109.38 234.05 108.285 235.16 107.535C236.27 106.755 237.41 106.365 238.58 106.365C239.63 106.365 240.47 106.515 241.1 106.815L240.2 111.315C239.81 111.195 239.45 111.105 239.12 111.045C238.79 110.985 238.385 110.955 237.905 110.955C237.035 110.955 236.12 111.3 235.16 111.99C234.2 112.65 233.375 113.82 232.685 115.5V129H227.51ZM256.728 129.54C255.348 129.54 254.028 129.285 252.768 128.775C251.508 128.265 250.383 127.515 249.393 126.525C248.433 125.535 247.668 124.32 247.098 122.88C246.528 121.44 246.243 119.805 246.243 117.975C246.243 116.145 246.528 114.51 247.098 113.07C247.668 111.63 248.433 110.415 249.393 109.425C250.383 108.435 251.508 107.685 252.768 107.175C254.028 106.635 255.348 106.365 256.728 106.365C258.108 106.365 259.428 106.635 260.688 107.175C261.978 107.685 263.103 108.435 264.063 109.425C265.023 110.415 265.788 111.63 266.358 113.07C266.958 114.51 267.258 116.145 267.258 117.975C267.258 119.805 266.958 121.44 266.358 122.88C265.788 124.32 265.023 125.535 264.063 126.525C263.103 127.515 261.978 128.265 260.688 128.775C259.428 129.285 258.108 129.54 256.728 129.54ZM256.728 125.31C258.348 125.31 259.623 124.65 260.553 123.33C261.483 121.98 261.948 120.195 261.948 117.975C261.948 115.725 261.483 113.94 260.553 112.62C259.623 111.27 258.348 110.595 256.728 110.595C255.108 110.595 253.833 111.27 252.903 112.62C252.003 113.94 251.553 115.725 251.553 117.975C251.553 120.195 252.003 121.98 252.903 123.33C253.833 124.65 255.108 125.31 256.728 125.31ZM276.93 129V111H273.96V107.13L276.93 106.905V104.61C276.93 103.47 277.065 102.42 277.335 101.46C277.605 100.47 278.04 99.63 278.64 98.94C279.24 98.22 279.99 97.665 280.89 97.275C281.82 96.885 282.945 96.69 284.265 96.69C285.045 96.69 285.78 96.765 286.47 96.915C287.19 97.065 287.805 97.245 288.315 97.455L287.325 101.325C286.515 100.965 285.705 100.785 284.895 100.785C283.035 100.785 282.105 102.03 282.105 104.52V106.905H286.425V111H282.105V129H276.93ZM303.147 129.54C301.617 129.54 300.192 129.285 298.872 128.775C297.552 128.235 296.397 127.47 295.407 126.48C294.417 125.49 293.637 124.29 293.067 122.88C292.527 121.44 292.257 119.805 292.257 117.975C292.257 116.175 292.542 114.555 293.112 113.115C293.682 111.675 294.432 110.46 295.362 109.47C296.322 108.48 297.417 107.715 298.647 107.175C299.877 106.635 301.137 106.365 302.427 106.365C303.927 106.365 305.247 106.62 306.387 107.13C307.527 107.64 308.472 108.36 309.222 109.29C310.002 110.22 310.587 111.33 310.977 112.62C311.367 113.91 311.562 115.32 311.562 116.85C311.562 117.36 311.532 117.84 311.472 118.29C311.442 118.74 311.397 119.1 311.337 119.37H297.297C297.537 121.35 298.227 122.88 299.367 123.96C300.537 125.01 302.022 125.535 303.822 125.535C304.782 125.535 305.667 125.4 306.477 125.13C307.317 124.83 308.142 124.425 308.952 123.915L310.707 127.155C309.657 127.845 308.487 128.415 307.197 128.865C305.907 129.315 304.557 129.54 303.147 129.54ZM297.252 115.86H307.062C307.062 114.15 306.687 112.815 305.937 111.855C305.217 110.865 304.092 110.37 302.562 110.37C301.242 110.37 300.087 110.835 299.097 111.765C298.107 112.695 297.492 114.06 297.252 115.86ZM326.495 129.54C324.965 129.54 323.45 129.255 321.95 128.685C320.48 128.085 319.205 127.35 318.125 126.48L320.555 123.15C321.545 123.93 322.52 124.545 323.48 124.995C324.47 125.415 325.535 125.625 326.675 125.625C327.875 125.625 328.76 125.385 329.33 124.905C329.9 124.395 330.185 123.75 330.185 122.97C330.185 122.52 330.05 122.13 329.78 121.8C329.51 121.44 329.15 121.125 328.7 120.855C328.25 120.585 327.74 120.345 327.17 120.135C326.6 119.895 326.03 119.655 325.46 119.415C324.74 119.145 324.005 118.83 323.255 118.47C322.505 118.11 321.83 117.675 321.23 117.165C320.66 116.655 320.18 116.07 319.79 115.41C319.43 114.72 319.25 113.91 319.25 112.98C319.25 111.03 319.97 109.44 321.41 108.21C322.85 106.98 324.815 106.365 327.305 106.365C328.835 106.365 330.215 106.635 331.445 107.175C332.675 107.715 333.74 108.33 334.64 109.02L332.255 112.17C331.475 111.6 330.68 111.15 329.87 110.82C329.09 110.46 328.265 110.28 327.395 110.28C326.285 110.28 325.46 110.52 324.92 111C324.41 111.45 324.155 112.02 324.155 112.71C324.155 113.16 324.275 113.55 324.515 113.88C324.785 114.18 325.13 114.45 325.55 114.69C325.97 114.93 326.45 115.155 326.99 115.365C327.56 115.575 328.145 115.785 328.745 115.995C329.495 116.265 330.245 116.58 330.995 116.94C331.745 117.27 332.42 117.69 333.02 118.2C333.65 118.71 334.145 119.34 334.505 120.09C334.895 120.81 335.09 121.68 335.09 122.7C335.09 123.66 334.895 124.56 334.505 125.4C334.145 126.21 333.605 126.93 332.885 127.56C332.165 128.16 331.265 128.64 330.185 129C329.105 129.36 327.875 129.54 326.495 129.54ZM349.7 129.54C348.17 129.54 346.655 129.255 345.155 128.685C343.685 128.085 342.41 127.35 341.33 126.48L343.76 123.15C344.75 123.93 345.725 124.545 346.685 124.995C347.675 125.415 348.74 125.625 349.88 125.625C351.08 125.625 351.965 125.385 352.535 124.905C353.105 124.395 353.39 123.75 353.39 122.97C353.39 122.52 353.255 122.13 352.985 121.8C352.715 121.44 352.355 121.125 351.905 120.855C351.455 120.585 350.945 120.345 350.375 120.135C349.805 119.895 349.235 119.655 348.665 119.415C347.945 119.145 347.21 118.83 346.46 118.47C345.71 118.11 345.035 117.675 344.435 117.165C343.865 116.655 343.385 116.07 342.995 115.41C342.635 114.72 342.455 113.91 342.455 112.98C342.455 111.03 343.175 109.44 344.615 108.21C346.055 106.98 348.02 106.365 350.51 106.365C352.04 106.365 353.42 106.635 354.65 107.175C355.88 107.715 356.945 108.33 357.845 109.02L355.46 112.17C354.68 111.6 353.885 111.15 353.075 110.82C352.295 110.46 351.47 110.28 350.6 110.28C349.49 110.28 348.665 110.52 348.125 111C347.615 111.45 347.36 112.02 347.36 112.71C347.36 113.16 347.48 113.55 347.72 113.88C347.99 114.18 348.335 114.45 348.755 114.69C349.175 114.93 349.655 115.155 350.195 115.365C350.765 115.575 351.35 115.785 351.95 115.995C352.7 116.265 353.45 116.58 354.2 116.94C354.95 117.27 355.625 117.69 356.225 118.2C356.855 118.71 357.35 119.34 357.71 120.09C358.1 120.81 358.295 121.68 358.295 122.7C358.295 123.66 358.1 124.56 357.71 125.4C357.35 126.21 356.81 126.93 356.09 127.56C355.37 128.16 354.47 128.64 353.39 129C352.31 129.36 351.08 129.54 349.7 129.54ZM366.74 129V106.905H371.915V129H366.74ZM369.35 103.035C368.42 103.035 367.655 102.765 367.055 102.225C366.455 101.685 366.155 100.98 366.155 100.11C366.155 99.24 366.455 98.535 367.055 97.995C367.655 97.425 368.42 97.14 369.35 97.14C370.28 97.14 371.045 97.425 371.645 97.995C372.245 98.535 372.545 99.24 372.545 100.11C372.545 100.98 372.245 101.685 371.645 102.225C371.045 102.765 370.28 103.035 369.35 103.035ZM391.387 129.54C390.007 129.54 388.687 129.285 387.427 128.775C386.167 128.265 385.042 127.515 384.052 126.525C383.092 125.535 382.327 124.32 381.757 122.88C381.187 121.44 380.902 119.805 380.902 117.975C380.902 116.145 381.187 114.51 381.757 113.07C382.327 111.63 383.092 110.415 384.052 109.425C385.042 108.435 386.167 107.685 387.427 107.175C388.687 106.635 390.007 106.365 391.387 106.365C392.767 106.365 394.087 106.635 395.347 107.175C396.637 107.685 397.762 108.435 398.722 109.425C399.682 110.415 400.447 111.63 401.017 113.07C401.617 114.51 401.917 116.145 401.917 117.975C401.917 119.805 401.617 121.44 401.017 122.88C400.447 124.32 399.682 125.535 398.722 126.525C397.762 127.515 396.637 128.265 395.347 128.775C394.087 129.285 392.767 129.54 391.387 129.54ZM391.387 125.31C393.007 125.31 394.282 124.65 395.212 123.33C396.142 121.98 396.607 120.195 396.607 117.975C396.607 115.725 396.142 113.94 395.212 112.62C394.282 111.27 393.007 110.595 391.387 110.595C389.767 110.595 388.492 111.27 387.562 112.62C386.662 113.94 386.212 115.725 386.212 117.975C386.212 120.195 386.662 121.98 387.562 123.33C388.492 124.65 389.767 125.31 391.387 125.31ZM410.864 129V106.905H415.139L415.499 109.875H415.679C416.669 108.915 417.734 108.09 418.874 107.4C420.044 106.71 421.394 106.365 422.924 106.365C425.294 106.365 427.019 107.13 428.099 108.66C429.179 110.16 429.719 112.32 429.719 115.14V129H424.544V115.815C424.544 113.985 424.274 112.695 423.734 111.945C423.194 111.195 422.309 110.82 421.079 110.82C420.119 110.82 419.264 111.06 418.514 111.54C417.794 111.99 416.969 112.665 416.039 113.565V129H410.864ZM445.225 129.54C443.275 129.54 441.7 128.955 440.5 127.785C439.3 126.585 438.7 125.01 438.7 123.06C438.7 121.89 438.94 120.855 439.42 119.955C439.93 119.025 440.71 118.23 441.76 117.57C442.84 116.91 444.19 116.355 445.81 115.905C447.46 115.455 449.425 115.11 451.705 114.87C451.675 114.3 451.585 113.76 451.435 113.25C451.315 112.71 451.09 112.245 450.76 111.855C450.46 111.435 450.055 111.12 449.545 110.91C449.035 110.67 448.405 110.55 447.655 110.55C446.575 110.55 445.51 110.76 444.46 111.18C443.44 111.6 442.435 112.11 441.445 112.71L439.555 109.245C440.785 108.465 442.165 107.79 443.695 107.22C445.225 106.65 446.875 106.365 448.645 106.365C451.405 106.365 453.46 107.19 454.81 108.84C456.19 110.46 456.88 112.815 456.88 115.905V129H452.605L452.245 126.57H452.065C451.075 127.41 450.01 128.115 448.87 128.685C447.76 129.255 446.545 129.54 445.225 129.54ZM446.89 125.49C447.79 125.49 448.6 125.28 449.32 124.86C450.07 124.44 450.865 123.84 451.705 123.06V118.11C450.205 118.29 448.945 118.53 447.925 118.83C446.905 119.13 446.08 119.475 445.45 119.865C444.82 120.225 444.37 120.645 444.1 121.125C443.83 121.605 443.695 122.115 443.695 122.655C443.695 123.645 443.995 124.365 444.595 124.815C445.195 125.265 445.96 125.49 446.89 125.49ZM471.938 129.54C470.078 129.54 468.773 128.985 468.023 127.875C467.273 126.765 466.898 125.25 466.898 123.33V97.23H472.073V123.6C472.073 124.23 472.193 124.68 472.433 124.95C472.673 125.19 472.928 125.31 473.198 125.31C473.318 125.31 473.423 125.31 473.513 125.31C473.633 125.31 473.798 125.28 474.008 125.22L474.683 129.09C473.993 129.39 473.078 129.54 471.938 129.54ZM495.774 129V106.905H500.049L500.409 109.92H500.589C501.519 108.93 502.524 108.09 503.604 107.4C504.714 106.71 505.959 106.365 507.339 106.365C508.959 106.365 510.249 106.71 511.209 107.4C512.199 108.09 512.949 109.065 513.459 110.325C514.509 109.185 515.604 108.24 516.744 107.49C517.884 106.74 519.159 106.365 520.569 106.365C522.909 106.365 524.634 107.13 525.744 108.66C526.854 110.16 527.409 112.32 527.409 115.14V129H522.189V115.815C522.189 113.985 521.904 112.695 521.334 111.945C520.794 111.195 519.954 110.82 518.814 110.82C517.434 110.82 515.889 111.735 514.179 113.565V129H509.004V115.815C509.004 113.985 508.719 112.695 508.149 111.945C507.609 111.195 506.754 110.82 505.584 110.82C504.204 110.82 502.659 111.735 500.949 113.565V129H495.774ZM542.878 129.54C540.928 129.54 539.353 128.955 538.153 127.785C536.953 126.585 536.353 125.01 536.353 123.06C536.353 121.89 536.593 120.855 537.073 119.955C537.583 119.025 538.363 118.23 539.413 117.57C540.493 116.91 541.843 116.355 543.463 115.905C545.113 115.455 547.078 115.11 549.358 114.87C549.328 114.3 549.238 113.76 549.088 113.25C548.968 112.71 548.743 112.245 548.413 111.855C548.113 111.435 547.708 111.12 547.198 110.91C546.688 110.67 546.058 110.55 545.308 110.55C544.228 110.55 543.163 110.76 542.113 111.18C541.093 111.6 540.088 112.11 539.098 112.71L537.208 109.245C538.438 108.465 539.818 107.79 541.348 107.22C542.878 106.65 544.528 106.365 546.298 106.365C549.058 106.365 551.113 107.19 552.463 108.84C553.843 110.46 554.533 112.815 554.533 115.905V129H550.258L549.898 126.57H549.718C548.728 127.41 547.663 128.115 546.523 128.685C545.413 129.255 544.198 129.54 542.878 129.54ZM544.543 125.49C545.443 125.49 546.253 125.28 546.973 124.86C547.723 124.44 548.518 123.84 549.358 123.06V118.11C547.858 118.29 546.598 118.53 545.578 118.83C544.558 119.13 543.733 119.475 543.103 119.865C542.473 120.225 542.023 120.645 541.753 121.125C541.483 121.605 541.348 122.115 541.348 122.655C541.348 123.645 541.648 124.365 542.248 124.815C542.848 125.265 543.613 125.49 544.543 125.49ZM570.717 129.54C569.187 129.54 567.672 129.255 566.172 128.685C564.702 128.085 563.427 127.35 562.347 126.48L564.777 123.15C565.767 123.93 566.742 124.545 567.702 124.995C568.692 125.415 569.757 125.625 570.897 125.625C572.097 125.625 572.982 125.385 573.552 124.905C574.122 124.395 574.407 123.75 574.407 122.97C574.407 122.52 574.272 122.13 574.002 121.8C573.732 121.44 573.372 121.125 572.922 120.855C572.472 120.585 571.962 120.345 571.392 120.135C570.822 119.895 570.252 119.655 569.682 119.415C568.962 119.145 568.227 118.83 567.477 118.47C566.727 118.11 566.052 117.675 565.452 117.165C564.882 116.655 564.402 116.07 564.012 115.41C563.652 114.72 563.472 113.91 563.472 112.98C563.472 111.03 564.192 109.44 565.632 108.21C567.072 106.98 569.037 106.365 571.527 106.365C573.057 106.365 574.437 106.635 575.667 107.175C576.897 107.715 577.962 108.33 578.862 109.02L576.477 112.17C575.697 111.6 574.902 111.15 574.092 110.82C573.312 110.46 572.487 110.28 571.617 110.28C570.507 110.28 569.682 110.52 569.142 111C568.632 111.45 568.377 112.02 568.377 112.71C568.377 113.16 568.497 113.55 568.737 113.88C569.007 114.18 569.352 114.45 569.772 114.69C570.192 114.93 570.672 115.155 571.212 115.365C571.782 115.575 572.367 115.785 572.967 115.995C573.717 116.265 574.467 116.58 575.217 116.94C575.967 117.27 576.642 117.69 577.242 118.2C577.872 118.71 578.367 119.34 578.727 120.09C579.117 120.81 579.312 121.68 579.312 122.7C579.312 123.66 579.117 124.56 578.727 125.4C578.367 126.21 577.827 126.93 577.107 127.56C576.387 128.16 575.487 128.64 574.407 129C573.327 129.36 572.097 129.54 570.717 129.54ZM593.921 129.54C592.391 129.54 590.876 129.255 589.376 128.685C587.906 128.085 586.631 127.35 585.551 126.48L587.981 123.15C588.971 123.93 589.946 124.545 590.906 124.995C591.896 125.415 592.961 125.625 594.101 125.625C595.301 125.625 596.186 125.385 596.756 124.905C597.326 124.395 597.611 123.75 597.611 122.97C597.611 122.52 597.476 122.13 597.206 121.8C596.936 121.44 596.576 121.125 596.126 120.855C595.676 120.585 595.166 120.345 594.596 120.135C594.026 119.895 593.456 119.655 592.886 119.415C592.166 119.145 591.431 118.83 590.681 118.47C589.931 118.11 589.256 117.675 588.656 117.165C588.086 116.655 587.606 116.07 587.216 115.41C586.856 114.72 586.676 113.91 586.676 112.98C586.676 111.03 587.396 109.44 588.836 108.21C590.276 106.98 592.241 106.365 594.731 106.365C596.261 106.365 597.641 106.635 598.871 107.175C600.101 107.715 601.166 108.33 602.066 109.02L599.681 112.17C598.901 111.6 598.106 111.15 597.296 110.82C596.516 110.46 595.691 110.28 594.821 110.28C593.711 110.28 592.886 110.52 592.346 111C591.836 111.45 591.581 112.02 591.581 112.71C591.581 113.16 591.701 113.55 591.941 113.88C592.211 114.18 592.556 114.45 592.976 114.69C593.396 114.93 593.876 115.155 594.416 115.365C594.986 115.575 595.571 115.785 596.171 115.995C596.921 116.265 597.671 116.58 598.421 116.94C599.171 117.27 599.846 117.69 600.446 118.2C601.076 118.71 601.571 119.34 601.931 120.09C602.321 120.81 602.516 121.68 602.516 122.7C602.516 123.66 602.321 124.56 601.931 125.4C601.571 126.21 601.031 126.93 600.311 127.56C599.591 128.16 598.691 128.64 597.611 129C596.531 129.36 595.301 129.54 593.921 129.54ZM616.316 129.54C614.366 129.54 612.791 128.955 611.591 127.785C610.391 126.585 609.791 125.01 609.791 123.06C609.791 121.89 610.031 120.855 610.511 119.955C611.021 119.025 611.801 118.23 612.851 117.57C613.931 116.91 615.281 116.355 616.901 115.905C618.551 115.455 620.516 115.11 622.796 114.87C622.766 114.3 622.676 113.76 622.526 113.25C622.406 112.71 622.181 112.245 621.851 111.855C621.551 111.435 621.146 111.12 620.636 110.91C620.126 110.67 619.496 110.55 618.746 110.55C617.666 110.55 616.601 110.76 615.551 111.18C614.531 111.6 613.526 112.11 612.536 112.71L610.646 109.245C611.876 108.465 613.256 107.79 614.786 107.22C616.316 106.65 617.966 106.365 619.736 106.365C622.496 106.365 624.551 107.19 625.901 108.84C627.281 110.46 627.971 112.815 627.971 115.905V129H623.696L623.336 126.57H623.156C622.166 127.41 621.101 128.115 619.961 128.685C618.851 129.255 617.636 129.54 616.316 129.54ZM617.981 125.49C618.881 125.49 619.691 125.28 620.411 124.86C621.161 124.44 621.956 123.84 622.796 123.06V118.11C621.296 118.29 620.036 118.53 619.016 118.83C617.996 119.13 617.171 119.475 616.541 119.865C615.911 120.225 615.461 120.645 615.191 121.125C614.921 121.605 614.786 122.115 614.786 122.655C614.786 123.645 615.086 124.365 615.686 124.815C616.286 125.265 617.051 125.49 617.981 125.49ZM645.684 138.765C644.364 138.765 643.134 138.645 641.994 138.405C640.884 138.165 639.924 137.805 639.114 137.325C638.304 136.845 637.659 136.245 637.179 135.525C636.729 134.805 636.504 133.965 636.504 133.005C636.504 132.075 636.774 131.205 637.314 130.395C637.854 129.615 638.634 128.91 639.654 128.28V128.1C639.084 127.74 638.604 127.26 638.214 126.66C637.854 126.06 637.674 125.31 637.674 124.41C637.674 123.54 637.914 122.76 638.394 122.07C638.904 121.35 639.474 120.765 640.104 120.315V120.135C639.354 119.565 638.679 118.785 638.079 117.795C637.509 116.775 637.224 115.605 637.224 114.285C637.224 113.025 637.464 111.9 637.944 110.91C638.424 109.92 639.054 109.095 639.834 108.435C640.644 107.745 641.574 107.235 642.624 106.905C643.674 106.545 644.784 106.365 645.954 106.365C646.554 106.365 647.124 106.425 647.664 106.545C648.234 106.635 648.744 106.755 649.194 106.905H657.114V110.73H653.064C653.424 111.15 653.724 111.69 653.964 112.35C654.204 112.98 654.324 113.685 654.324 114.465C654.324 115.695 654.099 116.775 653.649 117.705C653.229 118.635 652.644 119.415 651.894 120.045C651.144 120.675 650.259 121.155 649.239 121.485C648.219 121.815 647.124 121.98 645.954 121.98C645.474 121.98 644.979 121.935 644.469 121.845C643.959 121.755 643.449 121.605 642.939 121.395C642.609 121.695 642.339 121.995 642.129 122.295C641.949 122.595 641.859 123 641.859 123.51C641.859 124.14 642.114 124.635 642.624 124.995C643.164 125.355 644.109 125.535 645.459 125.535H649.374C652.044 125.535 654.054 125.97 655.404 126.84C656.784 127.68 657.475 129.06 657.475 130.98C657.475 132.06 657.189 133.08 656.619 134.04C656.079 135 655.299 135.825 654.279 136.515C653.259 137.205 652.014 137.745 650.544 138.135C649.104 138.555 647.484 138.765 645.684 138.765ZM645.954 118.74C647.004 118.74 647.904 118.365 648.654 117.615C649.404 116.835 649.779 115.725 649.779 114.285C649.779 112.905 649.404 111.84 648.654 111.09C647.934 110.31 647.034 109.92 645.954 109.92C644.874 109.92 643.959 110.295 643.209 111.045C642.459 111.795 642.084 112.875 642.084 114.285C642.084 115.725 642.459 116.835 643.209 117.615C643.959 118.365 644.874 118.74 645.954 118.74ZM646.494 135.39C648.294 135.39 649.734 135.03 650.814 134.31C651.924 133.62 652.479 132.795 652.479 131.835C652.479 130.965 652.134 130.38 651.444 130.08C650.784 129.78 649.824 129.63 648.564 129.63H645.549C644.349 129.63 643.344 129.525 642.534 129.315C641.394 130.185 640.824 131.16 640.824 132.24C640.824 133.23 641.319 133.995 642.309 134.535C643.329 135.105 644.724 135.39 646.494 135.39ZM673.94 129.54C672.41 129.54 670.985 129.285 669.665 128.775C668.345 128.235 667.19 127.47 666.2 126.48C665.21 125.49 664.43 124.29 663.86 122.88C663.32 121.44 663.05 119.805 663.05 117.975C663.05 116.175 663.335 114.555 663.905 113.115C664.475 111.675 665.225 110.46 666.155 109.47C667.115 108.48 668.21 107.715 669.44 107.175C670.67 106.635 671.93 106.365 673.22 106.365C674.72 106.365 676.04 106.62 677.18 107.13C678.32 107.64 679.265 108.36 680.015 109.29C680.795 110.22 681.38 111.33 681.77 112.62C682.16 113.91 682.355 115.32 682.355 116.85C682.355 117.36 682.325 117.84 682.265 118.29C682.235 118.74 682.19 119.1 682.13 119.37H668.09C668.33 121.35 669.02 122.88 670.16 123.96C671.33 125.01 672.815 125.535 674.615 125.535C675.575 125.535 676.46 125.4 677.27 125.13C678.11 124.83 678.935 124.425 679.745 123.915L681.5 127.155C680.45 127.845 679.28 128.415 677.99 128.865C676.7 129.315 675.35 129.54 673.94 129.54ZM668.045 115.86H677.855C677.855 114.15 677.48 112.815 676.73 111.855C676.01 110.865 674.885 110.37 673.355 110.37C672.035 110.37 670.88 110.835 669.89 111.765C668.9 112.695 668.285 114.06 668.045 115.86ZM697.288 129.54C695.758 129.54 694.243 129.255 692.743 128.685C691.273 128.085 689.998 127.35 688.918 126.48L691.348 123.15C692.338 123.93 693.313 124.545 694.273 124.995C695.263 125.415 696.328 125.625 697.468 125.625C698.668 125.625 699.553 125.385 700.123 124.905C700.693 124.395 700.978 123.75 700.978 122.97C700.978 122.52 700.843 122.13 700.573 121.8C700.303 121.44 699.943 121.125 699.493 120.855C699.043 120.585 698.533 120.345 697.963 120.135C697.393 119.895 696.823 119.655 696.253 119.415C695.533 119.145 694.798 118.83 694.048 118.47C693.298 118.11 692.623 117.675 692.023 117.165C691.453 116.655 690.973 116.07 690.583 115.41C690.223 114.72 690.043 113.91 690.043 112.98C690.043 111.03 690.763 109.44 692.203 108.21C693.643 106.98 695.608 106.365 698.098 106.365C699.628 106.365 701.008 106.635 702.238 107.175C703.468 107.715 704.533 108.33 705.433 109.02L703.048 112.17C702.268 111.6 701.473 111.15 700.663 110.82C699.883 110.46 699.058 110.28 698.188 110.28C697.078 110.28 696.253 110.52 695.713 111C695.203 111.45 694.948 112.02 694.948 112.71C694.948 113.16 695.068 113.55 695.308 113.88C695.578 114.18 695.923 114.45 696.343 114.69C696.763 114.93 697.243 115.155 697.783 115.365C698.353 115.575 698.938 115.785 699.538 115.995C700.288 116.265 701.038 116.58 701.788 116.94C702.538 117.27 703.213 117.69 703.813 118.2C704.443 118.71 704.938 119.34 705.298 120.09C705.688 120.81 705.883 121.68 705.883 122.7C705.883 123.66 705.688 124.56 705.298 125.4C704.938 126.21 704.398 126.93 703.678 127.56C702.958 128.16 702.058 128.64 700.978 129C699.898 129.36 698.668 129.54 697.288 129.54ZM734.542 129.54C733.072 129.54 731.752 129.33 730.582 128.91C729.442 128.46 728.467 127.875 727.657 127.155C726.847 126.405 726.217 125.535 725.767 124.545C725.347 123.525 725.137 122.43 725.137 121.26C725.137 120.24 725.287 119.325 725.587 118.515C725.887 117.705 726.292 116.97 726.802 116.31C727.342 115.62 727.942 115.005 728.602 114.465C729.292 113.895 730.012 113.355 730.762 112.845C730.162 111.705 729.697 110.595 729.367 109.515C729.037 108.435 728.872 107.385 728.872 106.365C728.872 105.345 729.037 104.4 729.367 103.53C729.727 102.63 730.237 101.85 730.897 101.19C731.557 100.53 732.337 100.005 733.237 99.615C734.137 99.225 735.157 99.03 736.297 99.03C738.307 99.03 739.882 99.6 741.022 100.74C742.192 101.88 742.777 103.395 742.777 105.285C742.777 106.245 742.597 107.13 742.237 107.94C741.877 108.75 741.397 109.5 740.797 110.19C740.197 110.85 739.507 111.48 738.727 112.08C737.977 112.68 737.197 113.265 736.387 113.835C737.287 115.065 738.307 116.265 739.447 117.435C740.617 118.575 741.832 119.625 743.092 120.585C743.902 119.505 744.622 118.32 745.252 117.03C745.882 115.71 746.407 114.285 746.827 112.755H751.597C751.057 114.615 750.367 116.4 749.527 118.11C748.687 119.82 747.697 121.44 746.557 122.97C747.517 123.57 748.447 124.08 749.347 124.5C750.247 124.89 751.087 125.16 751.867 125.31L750.562 129.54C749.422 129.27 748.252 128.88 747.052 128.37C745.852 127.83 744.637 127.17 743.407 126.39C742.237 127.35 740.917 128.115 739.447 128.685C737.977 129.255 736.342 129.54 734.542 129.54ZM733.192 106.32C733.192 107.01 733.297 107.715 733.507 108.435C733.717 109.125 734.002 109.86 734.362 110.64C735.592 109.86 736.627 109.065 737.467 108.255C738.307 107.445 738.727 106.47 738.727 105.33C738.727 104.55 738.547 103.89 738.187 103.35C737.827 102.81 737.212 102.54 736.342 102.54C735.412 102.54 734.647 102.885 734.047 103.575C733.477 104.265 733.192 105.18 733.192 106.32ZM735.172 125.535C735.982 125.535 736.777 125.385 737.557 125.085C738.367 124.755 739.147 124.32 739.897 123.78C738.577 122.67 737.317 121.5 736.117 120.27C734.947 119.01 733.882 117.705 732.922 116.355C732.082 117.045 731.392 117.765 730.852 118.515C730.342 119.235 730.087 120.045 730.087 120.945C730.087 122.325 730.567 123.435 731.527 124.275C732.487 125.115 733.702 125.535 735.172 125.535ZM781.786 129.54C780.286 129.54 778.876 129.285 777.556 128.775C776.266 128.265 775.141 127.515 774.181 126.525C773.221 125.535 772.471 124.32 771.931 122.88C771.391 121.44 771.121 119.805 771.121 117.975C771.121 116.145 771.421 114.51 772.021 113.07C772.621 111.63 773.431 110.415 774.451 109.425C775.471 108.435 776.641 107.685 777.961 107.175C779.311 106.635 780.721 106.365 782.191 106.365C783.631 106.365 784.861 106.605 785.881 107.085C786.931 107.565 787.861 108.15 788.671 108.84L786.151 112.215C785.551 111.705 784.951 111.315 784.351 111.045C783.781 110.745 783.151 110.595 782.461 110.595C780.661 110.595 779.206 111.27 778.096 112.62C776.986 113.94 776.431 115.725 776.431 117.975C776.431 120.195 776.971 121.98 778.051 123.33C779.161 124.65 780.586 125.31 782.326 125.31C783.196 125.31 784.006 125.13 784.756 124.77C785.536 124.38 786.241 123.93 786.871 123.42L788.986 126.84C787.936 127.74 786.781 128.415 785.521 128.865C784.291 129.315 783.046 129.54 781.786 129.54ZM802.087 129.54C800.137 129.54 798.562 128.955 797.362 127.785C796.162 126.585 795.562 125.01 795.562 123.06C795.562 121.89 795.802 120.855 796.282 119.955C796.792 119.025 797.572 118.23 798.622 117.57C799.702 116.91 801.052 116.355 802.672 115.905C804.322 115.455 806.287 115.11 808.567 114.87C808.537 114.3 808.447 113.76 808.297 113.25C808.177 112.71 807.952 112.245 807.622 111.855C807.322 111.435 806.917 111.12 806.407 110.91C805.897 110.67 805.267 110.55 804.517 110.55C803.437 110.55 802.372 110.76 801.322 111.18C800.302 111.6 799.297 112.11 798.307 112.71L796.417 109.245C797.647 108.465 799.027 107.79 800.557 107.22C802.087 106.65 803.737 106.365 805.507 106.365C808.267 106.365 810.322 107.19 811.672 108.84C813.052 110.46 813.742 112.815 813.742 115.905V129H809.467L809.107 126.57H808.927C807.937 127.41 806.872 128.115 805.732 128.685C804.622 129.255 803.407 129.54 802.087 129.54ZM803.752 125.49C804.652 125.49 805.462 125.28 806.182 124.86C806.932 124.44 807.727 123.84 808.567 123.06V118.11C807.067 118.29 805.807 118.53 804.787 118.83C803.767 119.13 802.942 119.475 802.312 119.865C801.682 120.225 801.232 120.645 800.962 121.125C800.692 121.605 800.557 122.115 800.557 122.655C800.557 123.645 800.857 124.365 801.457 124.815C802.057 125.265 802.822 125.49 803.752 125.49ZM823.76 129V106.905H828.035L828.395 110.82H828.575C829.355 109.38 830.3 108.285 831.41 107.535C832.52 106.755 833.66 106.365 834.83 106.365C835.88 106.365 836.72 106.515 837.35 106.815L836.45 111.315C836.06 111.195 835.7 111.105 835.37 111.045C835.04 110.985 834.635 110.955 834.155 110.955C833.285 110.955 832.37 111.3 831.41 111.99C830.45 112.65 829.625 113.82 828.935 115.5V129H823.76ZM853.383 129.54C851.853 129.54 850.428 129.285 849.108 128.775C847.788 128.235 846.633 127.47 845.643 126.48C844.653 125.49 843.873 124.29 843.303 122.88C842.763 121.44 842.493 119.805 842.493 117.975C842.493 116.175 842.778 114.555 843.348 113.115C843.918 111.675 844.668 110.46 845.598 109.47C846.558 108.48 847.653 107.715 848.883 107.175C850.113 106.635 851.373 106.365 852.663 106.365C854.163 106.365 855.483 106.62 856.623 107.13C857.763 107.64 858.708 108.36 859.458 109.29C860.238 110.22 860.823 111.33 861.213 112.62C861.603 113.91 861.798 115.32 861.798 116.85C861.798 117.36 861.768 117.84 861.708 118.29C861.678 118.74 861.633 119.1 861.573 119.37H847.533C847.773 121.35 848.463 122.88 849.603 123.96C850.773 125.01 852.258 125.535 854.058 125.535C855.018 125.535 855.903 125.4 856.713 125.13C857.553 124.83 858.378 124.425 859.188 123.915L860.943 127.155C859.893 127.845 858.723 128.415 857.433 128.865C856.143 129.315 854.793 129.54 853.383 129.54ZM847.488 115.86H857.298C857.298 114.15 856.923 112.815 856.173 111.855C855.453 110.865 854.328 110.37 852.798 110.37C851.478 110.37 850.323 110.835 849.333 111.765C848.343 112.695 847.728 114.06 847.488 115.86Z" fill="#283531" fill-opacity="0.4"/>
</svg>
