<?xml version="1.0" encoding="UTF-8"?>
<svg xmlns="http://www.w3.org/2000/svg" xmlns:xlink="http://www.w3.org/1999/xlink" width="202px" height="32px" viewBox="0 0 201 32" version="1.1">
<g id="surface1">
<path style=" stroke:none;fill-rule:nonzero;fill:rgb(15.686275%,20.784314%,19.215686%);fill-opacity:1;" d="M 48.773438 13.699219 C 48.773438 14.1875 48.824219 14.550781 48.933594 14.78125 C 49.054688 14.996094 49.277344 15.148438 49.597656 15.242188 C 49.933594 15.332031 50.453125 15.378906 51.15625 15.378906 C 51.199219 15.378906 51.222656 15.425781 51.222656 15.515625 C 51.222656 15.609375 51.199219 15.65625 51.15625 15.65625 C 50.527344 15.65625 50.039062 15.648438 49.6875 15.632812 L 47.695312 15.609375 L 46.042969 15.632812 C 45.753906 15.648438 45.355469 15.65625 44.851562 15.65625 C 44.808594 15.65625 44.785156 15.609375 44.785156 15.515625 C 44.785156 15.425781 44.808594 15.378906 44.851562 15.378906 C 45.371094 15.378906 45.746094 15.339844 45.976562 15.261719 C 46.203125 15.1875 46.359375 15.039062 46.433594 14.824219 C 46.527344 14.609375 46.570312 14.265625 46.570312 13.789062 L 46.570312 3.132812 C 46.570312 2.671875 46.527344 2.332031 46.433594 2.117188 C 46.359375 1.902344 46.195312 1.757812 45.953125 1.679688 C 45.722656 1.589844 45.355469 1.542969 44.851562 1.542969 C 44.808594 1.542969 44.785156 1.496094 44.785156 1.40625 C 44.785156 1.3125 44.808594 1.265625 44.851562 1.265625 L 46.042969 1.289062 C 46.714844 1.320312 47.257812 1.335938 47.671875 1.335938 C 48.023438 1.335938 48.449219 1.3125 48.953125 1.265625 C 49.136719 1.25 49.382812 1.234375 49.6875 1.21875 C 50.007812 1.203125 50.382812 1.195312 50.8125 1.195312 C 52.324219 1.195312 53.515625 1.519531 54.386719 2.164062 C 55.273438 2.808594 55.714844 3.796875 55.714844 5.132812 C 55.714844 6.101562 55.464844 6.921875 54.960938 7.597656 C 54.472656 8.273438 53.835938 8.777344 53.058594 9.117188 C 52.292969 9.453125 51.507812 9.621094 50.695312 9.621094 C 50.269531 9.621094 49.910156 9.585938 49.621094 9.507812 C 49.574219 9.507812 49.550781 9.46875 49.550781 9.394531 C 49.550781 9.347656 49.558594 9.300781 49.574219 9.253906 C 49.605469 9.207031 49.636719 9.191406 49.664062 9.207031 C 49.910156 9.269531 50.175781 9.300781 50.46875 9.300781 C 51.261719 9.300781 51.933594 8.972656 52.484375 8.3125 C 53.035156 7.652344 53.308594 6.707031 53.308594 5.480469 C 53.308594 4.265625 53.027344 3.332031 52.460938 2.671875 C 51.894531 1.996094 51.117188 1.65625 50.125 1.65625 C 49.757812 1.65625 49.476562 1.695312 49.277344 1.773438 C 49.09375 1.847656 48.960938 1.996094 48.886719 2.210938 C 48.808594 2.410156 48.773438 2.730469 48.773438 3.175781 Z M 61.28125 13.699219 C 61.28125 14.113281 61.3125 14.410156 61.371094 14.59375 C 61.449219 14.78125 61.585938 14.902344 61.785156 14.964844 C 61.984375 15.027344 62.304688 15.054688 62.746094 15.054688 L 64.121094 15.054688 C 65.207031 15.054688 66.125 14.757812 66.875 14.160156 C 67.621094 13.542969 68.117188 12.722656 68.363281 11.695312 C 68.378906 11.648438 68.425781 11.632812 68.5 11.648438 C 68.578125 11.648438 68.613281 11.671875 68.613281 11.71875 C 68.476562 13.160156 68.410156 14.359375 68.410156 15.308594 C 68.410156 15.433594 68.386719 15.523438 68.339844 15.585938 C 68.292969 15.632812 68.203125 15.65625 68.066406 15.65625 L 57.339844 15.65625 C 57.308594 15.65625 57.292969 15.609375 57.292969 15.515625 C 57.292969 15.425781 57.308594 15.378906 57.339844 15.378906 C 57.859375 15.378906 58.234375 15.339844 58.460938 15.261719 C 58.707031 15.1875 58.867188 15.039062 58.941406 14.824219 C 59.035156 14.59375 59.082031 14.25 59.082031 13.789062 L 59.082031 3.132812 C 59.082031 2.671875 59.035156 2.332031 58.941406 2.117188 C 58.867188 1.902344 58.707031 1.757812 58.460938 1.679688 C 58.21875 1.589844 57.84375 1.542969 57.339844 1.542969 C 57.308594 1.542969 57.292969 1.496094 57.292969 1.40625 C 57.292969 1.3125 57.308594 1.265625 57.339844 1.265625 L 58.507812 1.289062 C 59.179688 1.320312 59.730469 1.335938 60.15625 1.335938 C 60.617188 1.335938 61.183594 1.320312 61.855469 1.289062 L 63 1.265625 C 63.046875 1.265625 63.070312 1.3125 63.070312 1.40625 C 63.070312 1.496094 63.046875 1.542969 63 1.542969 C 62.496094 1.542969 62.121094 1.589844 61.875 1.679688 C 61.648438 1.757812 61.488281 1.910156 61.394531 2.140625 C 61.320312 2.355469 61.28125 2.695312 61.28125 3.152344 Z M 80.210938 12.0625 C 80.210938 12.03125 80.242188 12.015625 80.304688 12.015625 C 80.351562 12.015625 80.386719 12.03125 80.417969 12.0625 C 80.464844 12.078125 80.488281 12.09375 80.488281 12.109375 C 80.335938 13.277344 80.257812 14.34375 80.257812 15.308594 C 80.257812 15.433594 80.234375 15.523438 80.191406 15.585938 C 80.144531 15.632812 80.050781 15.65625 79.914062 15.65625 L 69.96875 15.65625 C 69.921875 15.65625 69.898438 15.609375 69.898438 15.515625 C 69.898438 15.425781 69.921875 15.378906 69.96875 15.378906 C 70.488281 15.378906 70.863281 15.339844 71.089844 15.261719 C 71.335938 15.1875 71.496094 15.039062 71.570312 14.824219 C 71.664062 14.59375 71.710938 14.25 71.710938 13.789062 L 71.710938 3.132812 C 71.710938 2.671875 71.664062 2.332031 71.570312 2.117188 C 71.496094 1.902344 71.335938 1.757812 71.089844 1.679688 C 70.847656 1.589844 70.472656 1.542969 69.96875 1.542969 C 69.921875 1.542969 69.898438 1.496094 69.898438 1.40625 C 69.898438 1.3125 69.921875 1.265625 69.96875 1.265625 L 79.503906 1.265625 C 79.65625 1.265625 79.730469 1.335938 79.730469 1.472656 L 79.777344 4.464844 C 79.777344 4.496094 79.730469 4.519531 79.640625 4.535156 C 79.5625 4.550781 79.515625 4.535156 79.503906 4.488281 C 79.136719 2.738281 78.074219 1.863281 76.316406 1.863281 L 75.398438 1.863281 C 74.847656 1.863281 74.460938 1.964844 74.230469 2.164062 C 74 2.363281 73.886719 2.703125 73.886719 3.175781 L 73.886719 7.875 L 76.085938 7.875 C 77.769531 7.875 78.609375 7.304688 78.609375 6.167969 C 78.609375 6.125 78.644531 6.101562 78.722656 6.101562 C 78.816406 6.101562 78.859375 6.125 78.859375 6.167969 L 78.835938 8.171875 L 78.859375 9.253906 C 78.890625 9.746094 78.90625 10.144531 78.90625 10.453125 C 78.90625 10.484375 78.859375 10.496094 78.769531 10.496094 C 78.675781 10.496094 78.632812 10.484375 78.632812 10.453125 C 78.632812 9.132812 77.777344 8.472656 76.0625 8.472656 L 73.886719 8.472656 L 73.886719 13.699219 C 73.886719 14.203125 73.980469 14.558594 74.160156 14.757812 C 74.359375 14.957031 74.703125 15.054688 75.191406 15.054688 L 76.316406 15.054688 C 78.363281 15.054688 79.664062 14.058594 80.210938 12.0625 Z M 97.835938 15.378906 C 97.910156 15.378906 97.949219 15.425781 97.949219 15.515625 C 97.949219 15.609375 97.910156 15.65625 97.835938 15.65625 C 97.542969 15.65625 97.078125 15.640625 96.4375 15.609375 C 95.792969 15.578125 95.328125 15.5625 95.039062 15.5625 C 94.65625 15.5625 94.207031 15.578125 93.6875 15.609375 C 93.167969 15.640625 92.761719 15.65625 92.472656 15.65625 C 92.410156 15.65625 92.378906 15.609375 92.378906 15.515625 C 92.378906 15.425781 92.410156 15.378906 92.472656 15.378906 C 92.914062 15.378906 93.234375 15.332031 93.433594 15.242188 C 93.648438 15.132812 93.753906 14.964844 93.753906 14.734375 C 93.753906 14.503906 93.625 14.113281 93.367188 13.558594 L 91.625 10.015625 L 86.078125 10.015625 L 84.976562 12.5 C 84.777344 12.960938 84.679688 13.375 84.679688 13.742188 C 84.679688 14.28125 84.871094 14.6875 85.253906 14.964844 C 85.632812 15.242188 86.167969 15.378906 86.855469 15.378906 C 86.933594 15.378906 86.972656 15.425781 86.972656 15.515625 C 86.972656 15.609375 86.933594 15.65625 86.855469 15.65625 C 86.582031 15.65625 86.183594 15.640625 85.664062 15.609375 C 85.082031 15.578125 84.578125 15.5625 84.152344 15.5625 C 83.738281 15.5625 83.257812 15.578125 82.707031 15.609375 C 82.21875 15.640625 81.8125 15.65625 81.492188 15.65625 C 81.417969 15.65625 81.378906 15.609375 81.378906 15.515625 C 81.378906 15.425781 81.417969 15.378906 81.492188 15.378906 C 81.921875 15.378906 82.28125 15.292969 82.570312 15.125 C 82.859375 14.957031 83.144531 14.65625 83.417969 14.226562 C 83.695312 13.78125 84.023438 13.128906 84.402344 12.269531 L 89.332031 1.128906 C 89.363281 1.082031 89.429688 1.058594 89.539062 1.058594 C 89.644531 1.058594 89.707031 1.082031 89.722656 1.128906 L 95.335938 12.5 C 95.871094 13.605469 96.3125 14.367188 96.664062 14.78125 C 97.03125 15.179688 97.421875 15.378906 97.835938 15.378906 Z M 86.328125 9.4375 L 91.347656 9.4375 L 88.710938 4.074219 Z M 101.589844 3.707031 C 101.589844 4.273438 101.730469 4.78125 102.003906 5.226562 C 102.292969 5.65625 102.644531 6.03125 103.058594 6.355469 C 103.488281 6.675781 104.058594 7.058594 104.777344 7.503906 C 105.554688 7.996094 106.167969 8.417969 106.609375 8.769531 C 107.070312 9.125 107.453125 9.5625 107.757812 10.082031 C 108.078125 10.589844 108.238281 11.1875 108.238281 11.878906 C 108.238281 12.660156 108.03125 13.359375 107.621094 13.972656 C 107.222656 14.589844 106.648438 15.070312 105.902344 15.425781 C 105.167969 15.761719 104.328125 15.929688 103.378906 15.929688 C 102.738281 15.929688 102.074219 15.847656 101.386719 15.675781 C 100.714844 15.507812 100.203125 15.300781 99.851562 15.054688 C 99.710938 14.964844 99.636719 14.816406 99.621094 14.617188 L 99.484375 11.121094 L 99.484375 11.097656 C 99.484375 11.035156 99.519531 11.003906 99.597656 11.003906 C 99.675781 10.988281 99.71875 11.011719 99.734375 11.074219 C 100.238281 12.347656 100.8125 13.390625 101.453125 14.203125 C 102.109375 15.019531 102.945312 15.425781 103.953125 15.425781 C 104.609375 15.425781 105.160156 15.246094 105.601562 14.894531 C 106.046875 14.527344 106.265625 13.921875 106.265625 13.078125 C 106.265625 12.402344 106.113281 11.808594 105.808594 11.304688 C 105.519531 10.796875 105.152344 10.375 104.707031 10.039062 C 104.28125 9.699219 103.691406 9.285156 102.945312 8.792969 C 102.210938 8.320312 101.636719 7.917969 101.226562 7.597656 C 100.8125 7.257812 100.460938 6.851562 100.171875 6.378906 C 99.878906 5.886719 99.734375 5.316406 99.734375 4.671875 C 99.734375 3.875 99.957031 3.199219 100.398438 2.648438 C 100.84375 2.09375 101.417969 1.6875 102.117188 1.425781 C 102.835938 1.152344 103.585938 1.011719 104.363281 1.011719 C 104.882812 1.011719 105.402344 1.066406 105.921875 1.175781 C 106.441406 1.265625 106.878906 1.390625 107.230469 1.542969 C 107.457031 1.632812 107.574219 1.78125 107.574219 1.980469 L 107.640625 5.109375 C 107.640625 5.15625 107.597656 5.1875 107.503906 5.203125 C 107.429688 5.21875 107.382812 5.203125 107.367188 5.15625 C 107.0625 4.21875 106.648438 3.375 106.128906 2.625 C 105.625 1.855469 104.863281 1.472656 103.835938 1.472656 C 103.148438 1.472656 102.601562 1.671875 102.1875 2.070312 C 101.789062 2.472656 101.589844 3.015625 101.589844 3.707031 Z M 122.535156 4.074219 C 122.535156 3.277344 122.351562 2.65625 121.984375 2.210938 C 121.632812 1.765625 121.121094 1.542969 120.449219 1.542969 C 120.417969 1.542969 120.40625 1.496094 120.40625 1.40625 C 120.40625 1.3125 120.417969 1.265625 120.449219 1.265625 L 121.503906 1.289062 C 122.085938 1.320312 122.542969 1.335938 122.878906 1.335938 C 123.15625 1.335938 123.566406 1.320312 124.117188 1.289062 L 125.125 1.265625 C 125.15625 1.265625 125.171875 1.3125 125.171875 1.40625 C 125.171875 1.496094 125.15625 1.542969 125.125 1.542969 C 124.53125 1.542969 124.0625 1.765625 123.726562 2.210938 C 123.40625 2.65625 123.246094 3.277344 123.246094 4.074219 L 123.246094 10.519531 C 123.246094 11.625 123.007812 12.59375 122.535156 13.421875 C 122.078125 14.234375 121.421875 14.863281 120.566406 15.308594 C 119.722656 15.753906 118.746094 15.976562 117.632812 15.976562 C 116.515625 15.976562 115.523438 15.761719 114.652344 15.332031 C 113.78125 14.886719 113.101562 14.257812 112.613281 13.445312 C 112.136719 12.617188 111.902344 11.648438 111.902344 10.542969 L 111.902344 3.132812 C 111.902344 2.671875 111.855469 2.332031 111.765625 2.117188 C 111.671875 1.902344 111.503906 1.757812 111.261719 1.679688 C 111.03125 1.589844 110.664062 1.542969 110.160156 1.542969 C 110.113281 1.542969 110.089844 1.496094 110.089844 1.40625 C 110.089844 1.3125 110.113281 1.265625 110.160156 1.265625 L 111.351562 1.289062 C 112.023438 1.320312 112.566406 1.335938 112.980469 1.335938 C 113.4375 1.335938 114.003906 1.320312 114.675781 1.289062 L 115.820312 1.265625 C 115.867188 1.265625 115.890625 1.3125 115.890625 1.40625 C 115.890625 1.496094 115.867188 1.542969 115.820312 1.542969 C 115.316406 1.542969 114.941406 1.589844 114.699219 1.679688 C 114.453125 1.773438 114.285156 1.933594 114.195312 2.164062 C 114.117188 2.378906 114.078125 2.714844 114.078125 3.175781 L 114.078125 9.738281 C 114.078125 11.566406 114.453125 12.929688 115.203125 13.835938 C 115.964844 14.726562 117.027344 15.171875 118.386719 15.171875 C 119.6875 15.171875 120.703125 14.773438 121.4375 13.972656 C 122.167969 13.160156 122.535156 12.015625 122.535156 10.542969 Z M 141.539062 15.378906 C 141.585938 15.378906 141.609375 15.425781 141.609375 15.515625 C 141.609375 15.609375 141.585938 15.65625 141.539062 15.65625 L 137.851562 15.65625 C 137.5 15.65625 136.839844 15.039062 135.878906 13.8125 C 134.929688 12.585938 133.777344 10.867188 132.417969 8.65625 C 132.082031 8.6875 131.820312 8.703125 131.640625 8.703125 C 131.300781 8.703125 130.90625 8.6875 130.445312 8.65625 L 130.445312 13.789062 C 130.445312 14.265625 130.484375 14.609375 130.5625 14.824219 C 130.652344 15.039062 130.8125 15.1875 131.042969 15.261719 C 131.289062 15.339844 131.667969 15.378906 132.1875 15.378906 C 132.21875 15.378906 132.234375 15.425781 132.234375 15.515625 C 132.234375 15.609375 132.21875 15.65625 132.1875 15.65625 C 131.683594 15.65625 131.296875 15.648438 131.019531 15.632812 L 129.324219 15.609375 L 127.671875 15.632812 C 127.382812 15.648438 126.984375 15.65625 126.480469 15.65625 C 126.4375 15.65625 126.414062 15.609375 126.414062 15.515625 C 126.414062 15.425781 126.4375 15.378906 126.480469 15.378906 C 127 15.378906 127.375 15.339844 127.605469 15.261719 C 127.847656 15.1875 128.015625 15.039062 128.109375 14.824219 C 128.199219 14.59375 128.246094 14.25 128.246094 13.789062 L 128.246094 3.132812 C 128.246094 2.671875 128.199219 2.332031 128.109375 2.117188 C 128.03125 1.902344 127.871094 1.757812 127.628906 1.679688 C 127.382812 1.589844 127.007812 1.542969 126.503906 1.542969 C 126.472656 1.542969 126.460938 1.496094 126.460938 1.40625 C 126.460938 1.3125 126.472656 1.265625 126.503906 1.265625 L 127.695312 1.289062 C 128.367188 1.320312 128.910156 1.335938 129.324219 1.335938 C 129.828125 1.335938 130.378906 1.3125 130.972656 1.265625 C 131.171875 1.25 131.410156 1.234375 131.683594 1.21875 C 131.976562 1.203125 132.296875 1.195312 132.648438 1.195312 C 133.976562 1.195312 135 1.457031 135.71875 1.980469 C 136.453125 2.5 136.820312 3.230469 136.820312 4.167969 C 136.820312 5.011719 136.582031 5.769531 136.109375 6.445312 C 135.648438 7.121094 135.03125 7.660156 134.25 8.058594 C 135.503906 9.914062 136.550781 11.363281 137.390625 12.410156 C 138.230469 13.453125 138.972656 14.210938 139.613281 14.6875 C 140.273438 15.148438 140.914062 15.378906 141.539062 15.378906 Z M 130.445312 8.035156 C 130.8125 8.097656 131.257812 8.125 131.777344 8.125 C 132.769531 8.125 133.480469 7.882812 133.90625 7.390625 C 134.335938 6.882812 134.550781 6.078125 134.550781 4.972656 C 134.550781 3.730469 134.335938 2.863281 133.90625 2.371094 C 133.496094 1.878906 132.890625 1.632812 132.097656 1.632812 C 131.5 1.632812 131.074219 1.75 130.8125 1.980469 C 130.570312 2.195312 130.445312 2.59375 130.445312 3.175781 Z M 152.550781 12.0625 C 152.550781 12.03125 152.582031 12.015625 152.640625 12.015625 C 152.6875 12.015625 152.726562 12.03125 152.757812 12.0625 C 152.804688 12.078125 152.824219 12.09375 152.824219 12.109375 C 152.671875 13.277344 152.597656 14.34375 152.597656 15.308594 C 152.597656 15.433594 152.574219 15.523438 152.527344 15.585938 C 152.480469 15.632812 152.390625 15.65625 152.253906 15.65625 L 142.304688 15.65625 C 142.261719 15.65625 142.238281 15.609375 142.238281 15.515625 C 142.238281 15.425781 142.261719 15.378906 142.304688 15.378906 C 142.824219 15.378906 143.199219 15.339844 143.429688 15.261719 C 143.671875 15.1875 143.832031 15.039062 143.910156 14.824219 C 144 14.59375 144.046875 14.25 144.046875 13.789062 L 144.046875 3.132812 C 144.046875 2.671875 144 2.332031 143.910156 2.117188 C 143.832031 1.902344 143.671875 1.757812 143.429688 1.679688 C 143.183594 1.589844 142.808594 1.542969 142.304688 1.542969 C 142.261719 1.542969 142.238281 1.496094 142.238281 1.40625 C 142.238281 1.3125 142.261719 1.265625 142.304688 1.265625 L 151.839844 1.265625 C 151.992188 1.265625 152.070312 1.335938 152.070312 1.472656 L 152.117188 4.464844 C 152.117188 4.496094 152.070312 4.519531 151.976562 4.535156 C 151.902344 4.550781 151.855469 4.535156 151.839844 4.488281 C 151.472656 2.738281 150.410156 1.863281 148.65625 1.863281 L 147.738281 1.863281 C 147.1875 1.863281 146.796875 1.964844 146.570312 2.164062 C 146.339844 2.363281 146.226562 2.703125 146.226562 3.175781 L 146.226562 7.875 L 148.425781 7.875 C 150.105469 7.875 150.945312 7.304688 150.945312 6.167969 C 150.945312 6.125 150.984375 6.101562 151.0625 6.101562 C 151.152344 6.101562 151.199219 6.125 151.199219 6.167969 L 151.175781 8.171875 L 151.199219 9.253906 C 151.230469 9.746094 151.246094 10.144531 151.246094 10.453125 C 151.246094 10.484375 151.199219 10.496094 151.105469 10.496094 C 151.015625 10.496094 150.96875 10.484375 150.96875 10.453125 C 150.96875 9.132812 150.113281 8.472656 148.402344 8.472656 L 146.226562 8.472656 L 146.226562 13.699219 C 146.226562 14.203125 146.316406 14.558594 146.5 14.757812 C 146.699219 14.957031 147.042969 15.054688 147.53125 15.054688 L 148.65625 15.054688 C 150.703125 15.054688 152 14.058594 152.550781 12.0625 Z M 163.007812 3.707031 C 163.007812 4.273438 163.144531 4.78125 163.421875 5.226562 C 163.710938 5.65625 164.0625 6.03125 164.472656 6.355469 C 164.902344 6.675781 165.476562 7.058594 166.191406 7.503906 C 166.972656 7.996094 167.582031 8.417969 168.027344 8.769531 C 168.484375 9.125 168.867188 9.5625 169.171875 10.082031 C 169.492188 10.589844 169.652344 11.1875 169.652344 11.878906 C 169.652344 12.660156 169.449219 13.359375 169.035156 13.972656 C 168.636719 14.589844 168.066406 15.070312 167.316406 15.425781 C 166.582031 15.761719 165.742188 15.929688 164.796875 15.929688 C 164.152344 15.929688 163.488281 15.847656 162.800781 15.675781 C 162.128906 15.507812 161.617188 15.300781 161.265625 15.054688 C 161.128906 14.964844 161.050781 14.816406 161.035156 14.617188 L 160.898438 11.121094 L 160.898438 11.097656 C 160.898438 11.035156 160.9375 11.003906 161.011719 11.003906 C 161.089844 10.988281 161.136719 11.011719 161.152344 11.074219 C 161.65625 12.347656 162.226562 13.390625 162.871094 14.203125 C 163.527344 15.019531 164.359375 15.425781 165.367188 15.425781 C 166.023438 15.425781 166.574219 15.246094 167.019531 14.894531 C 167.460938 14.527344 167.683594 13.921875 167.683594 13.078125 C 167.683594 12.402344 167.53125 11.808594 167.226562 11.304688 C 166.933594 10.796875 166.566406 10.375 166.125 10.039062 C 165.695312 9.699219 165.109375 9.285156 164.359375 8.792969 C 163.625 8.320312 163.054688 7.917969 162.640625 7.597656 C 162.226562 7.257812 161.878906 6.851562 161.585938 6.378906 C 161.296875 5.886719 161.152344 5.316406 161.152344 4.671875 C 161.152344 3.875 161.371094 3.199219 161.816406 2.648438 C 162.257812 2.09375 162.832031 1.6875 163.535156 1.425781 C 164.253906 1.152344 165 1.011719 165.78125 1.011719 C 166.300781 1.011719 166.820312 1.066406 167.339844 1.175781 C 167.859375 1.265625 168.292969 1.390625 168.644531 1.542969 C 168.875 1.632812 168.988281 1.78125 168.988281 1.980469 L 169.058594 5.109375 C 169.058594 5.15625 169.011719 5.1875 168.921875 5.203125 C 168.84375 5.21875 168.796875 5.203125 168.78125 5.15625 C 168.476562 4.21875 168.066406 3.375 167.546875 2.625 C 167.042969 1.855469 166.277344 1.472656 165.253906 1.472656 C 164.566406 1.472656 164.015625 1.671875 163.601562 2.070312 C 163.207031 2.472656 163.007812 3.015625 163.007812 3.707031 Z M 175.632812 13.699219 C 175.632812 14.1875 175.6875 14.550781 175.792969 14.78125 C 175.914062 14.996094 176.136719 15.148438 176.457031 15.242188 C 176.792969 15.332031 177.3125 15.378906 178.015625 15.378906 C 178.0625 15.378906 178.085938 15.425781 178.085938 15.515625 C 178.085938 15.609375 178.0625 15.65625 178.015625 15.65625 C 177.390625 15.65625 176.902344 15.648438 176.550781 15.632812 L 174.554688 15.609375 L 172.90625 15.632812 C 172.613281 15.648438 172.21875 15.65625 171.714844 15.65625 C 171.667969 15.65625 171.644531 15.609375 171.644531 15.515625 C 171.644531 15.425781 171.667969 15.378906 171.714844 15.378906 C 172.234375 15.378906 172.605469 15.339844 172.835938 15.261719 C 173.066406 15.1875 173.21875 15.039062 173.292969 14.824219 C 173.386719 14.609375 173.433594 14.265625 173.433594 13.789062 L 173.433594 3.132812 C 173.433594 2.671875 173.386719 2.332031 173.292969 2.117188 C 173.21875 1.902344 173.058594 1.757812 172.8125 1.679688 C 172.585938 1.589844 172.21875 1.542969 171.714844 1.542969 C 171.667969 1.542969 171.644531 1.496094 171.644531 1.40625 C 171.644531 1.3125 171.667969 1.265625 171.714844 1.265625 L 172.90625 1.289062 C 173.578125 1.320312 174.121094 1.335938 174.53125 1.335938 C 174.882812 1.335938 175.3125 1.3125 175.816406 1.265625 C 176 1.25 176.242188 1.234375 176.550781 1.21875 C 176.871094 1.203125 177.246094 1.195312 177.671875 1.195312 C 179.183594 1.195312 180.375 1.519531 181.246094 2.164062 C 182.132812 2.808594 182.578125 3.796875 182.578125 5.132812 C 182.578125 6.101562 182.324219 6.921875 181.820312 7.597656 C 181.332031 8.273438 180.699219 8.777344 179.917969 9.117188 C 179.152344 9.453125 178.367188 9.621094 177.558594 9.621094 C 177.128906 9.621094 176.769531 9.585938 176.480469 9.507812 C 176.433594 9.507812 176.410156 9.46875 176.410156 9.394531 C 176.410156 9.347656 176.417969 9.300781 176.433594 9.253906 C 176.464844 9.207031 176.496094 9.191406 176.527344 9.207031 C 176.769531 9.269531 177.039062 9.300781 177.328125 9.300781 C 178.121094 9.300781 178.796875 8.972656 179.34375 8.3125 C 179.894531 7.652344 180.171875 6.707031 180.171875 5.480469 C 180.171875 4.265625 179.886719 3.332031 179.320312 2.671875 C 178.757812 1.996094 177.976562 1.65625 176.984375 1.65625 C 176.617188 1.65625 176.335938 1.695312 176.136719 1.773438 C 175.953125 1.847656 175.824219 1.996094 175.746094 2.210938 C 175.671875 2.410156 175.632812 2.730469 175.632812 3.175781 Z M 198.53125 15.378906 C 198.605469 15.378906 198.644531 15.425781 198.644531 15.515625 C 198.644531 15.609375 198.605469 15.65625 198.53125 15.65625 C 198.238281 15.65625 197.773438 15.640625 197.132812 15.609375 C 196.492188 15.578125 196.023438 15.5625 195.734375 15.5625 C 195.351562 15.5625 194.902344 15.578125 194.382812 15.609375 C 193.863281 15.640625 193.457031 15.65625 193.167969 15.65625 C 193.105469 15.65625 193.074219 15.609375 193.074219 15.515625 C 193.074219 15.425781 193.105469 15.378906 193.167969 15.378906 C 193.609375 15.378906 193.929688 15.332031 194.128906 15.242188 C 194.34375 15.132812 194.449219 14.964844 194.449219 14.734375 C 194.449219 14.503906 194.320312 14.113281 194.0625 13.558594 L 192.320312 10.015625 L 186.773438 10.015625 L 185.671875 12.5 C 185.472656 12.960938 185.375 13.375 185.375 13.742188 C 185.375 14.28125 185.566406 14.6875 185.949219 14.964844 C 186.328125 15.242188 186.863281 15.378906 187.550781 15.378906 C 187.628906 15.378906 187.667969 15.425781 187.667969 15.515625 C 187.667969 15.609375 187.628906 15.65625 187.550781 15.65625 C 187.277344 15.65625 186.878906 15.640625 186.359375 15.609375 C 185.78125 15.578125 185.277344 15.5625 184.847656 15.5625 C 184.433594 15.5625 183.953125 15.578125 183.402344 15.609375 C 182.914062 15.640625 182.511719 15.65625 182.1875 15.65625 C 182.113281 15.65625 182.074219 15.609375 182.074219 15.515625 C 182.074219 15.425781 182.113281 15.378906 182.1875 15.378906 C 182.617188 15.378906 182.976562 15.292969 183.265625 15.125 C 183.558594 14.957031 183.839844 14.65625 184.113281 14.226562 C 184.390625 13.78125 184.71875 13.128906 185.101562 12.269531 L 190.027344 1.128906 C 190.058594 1.082031 190.125 1.058594 190.234375 1.058594 C 190.339844 1.058594 190.402344 1.082031 190.417969 1.128906 L 196.03125 12.5 C 196.566406 13.605469 197.011719 14.367188 197.363281 14.78125 C 197.726562 15.179688 198.117188 15.378906 198.53125 15.378906 Z M 187.023438 9.4375 L 192.042969 9.4375 L 189.410156 4.074219 Z M 187.023438 9.4375 "/>
<path style=" stroke:none;fill-rule:nonzero;fill:rgb(99.607843%,50.196078%,37.647059%);fill-opacity:1;" d="M 31.996094 22.542969 C 32.160156 22.421875 32.320312 22.296875 32.464844 22.152344 C 33.320312 21.304688 33.738281 20.109375 33.738281 18.5 C 33.738281 15.902344 32.390625 14.609375 30.328125 13.960938 C 30.765625 13.761719 31.152344 13.523438 31.453125 13.214844 C 32.003906 12.652344 32.273438 11.9375 32.261719 11.085938 C 32.242188 9.871094 31.015625 8.945312 29.199219 8.328125 C 29.539062 8.175781 29.839844 7.984375 30.082031 7.742188 C 30.550781 7.277344 30.789062 6.660156 30.789062 5.917969 C 30.789062 3.125 27.324219 0 22.683594 0 C 18.046875 0 14.582031 3.125 14.582031 5.917969 C 14.582031 6.660156 14.820312 7.273438 15.285156 7.738281 C 15.53125 7.984375 15.835938 8.167969 16.175781 8.316406 C 14.800781 8.785156 13.761719 9.425781 13.328125 10.234375 C 12.527344 9.402344 11.40625 8.878906 10.160156 8.878906 C 8.023438 8.878906 6.238281 10.414062 5.828125 12.441406 C 3.878906 11.78125 1.664062 12.570312 0.59375 14.429688 C -0.472656 16.289062 -0.046875 18.609375 1.5 19.976562 C -0.046875 21.34375 -0.480469 23.667969 0.589844 25.53125 C 1.410156 26.953125 2.898438 27.75 4.425781 27.75 C 4.898438 27.75 5.367188 27.644531 5.828125 27.488281 C 6.222656 29.53125 8.015625 31.078125 10.160156 31.078125 C 11.625 31.078125 12.917969 30.351562 13.722656 29.242188 C 15.851562 30.382812 19.449219 31.078125 23.421875 31.078125 C 28.492188 31.078125 32.824219 29.996094 34.464844 28.316406 C 34.96875 27.796875 35.222656 27.226562 35.210938 26.625 C 35.160156 24.164062 33.90625 23.042969 31.996094 22.542969 Z M 32.261719 18.5 C 32.261719 19.695312 31.988281 20.546875 31.429688 21.101562 C 30.761719 21.765625 29.632812 22.042969 28.25 22.15625 C 27.464844 22.144531 26.644531 22.160156 25.800781 22.171875 C 25.105469 22.183594 24.375 22.195312 23.640625 22.207031 C 22.480469 22.195312 21.285156 22.1875 20.128906 22.054688 C 20.023438 21.691406 19.863281 21.347656 19.667969 21.019531 C 19.632812 20.964844 19.597656 20.90625 19.5625 20.847656 C 19.355469 20.535156 19.117188 20.238281 18.828125 19.980469 C 18.828125 19.976562 18.832031 19.972656 18.835938 19.96875 C 18.839844 19.964844 18.847656 19.957031 18.851562 19.953125 C 19.046875 19.78125 19.21875 19.585938 19.378906 19.382812 C 19.414062 19.335938 19.449219 19.285156 19.484375 19.234375 C 19.609375 19.058594 19.722656 18.875 19.820312 18.679688 C 19.84375 18.636719 19.871094 18.589844 19.894531 18.542969 C 20.003906 18.304688 20.105469 18.058594 20.171875 17.796875 C 20.242188 17.53125 20.285156 17.261719 20.304688 16.992188 C 20.308594 16.9375 20.304688 16.882812 20.308594 16.828125 C 20.316406 16.617188 20.3125 16.402344 20.292969 16.191406 C 20.285156 16.113281 20.269531 16.035156 20.257812 15.957031 C 20.226562 15.765625 20.183594 15.578125 20.128906 15.390625 C 20.105469 15.308594 20.082031 15.222656 20.050781 15.140625 C 20.027344 15.082031 20.015625 15.015625 19.992188 14.957031 C 20.867188 14.851562 21.769531 14.796875 22.683594 14.796875 C 28.800781 14.800781 32.261719 14.96875 32.261719 18.5 Z M 16.054688 5.917969 C 16.054688 3.910156 19.011719 1.480469 22.683594 1.480469 C 26.359375 1.480469 29.316406 3.910156 29.316406 5.917969 C 29.316406 6.367188 29.160156 6.574219 29.042969 6.691406 C 28.3125 7.421875 26.050781 7.410156 23.664062 7.402344 L 22.683594 7.398438 L 21.707031 7.402344 C 19.320312 7.417969 17.058594 7.425781 16.328125 6.691406 C 16.210938 6.574219 16.054688 6.371094 16.054688 5.917969 Z M 22.683594 8.878906 C 27.90625 8.878906 30.777344 10.355469 30.789062 11.113281 C 30.796875 11.5625 30.675781 11.898438 30.40625 12.175781 C 29.339844 13.261719 26.121094 13.316406 23.148438 13.316406 C 22.996094 13.316406 22.839844 13.316406 22.6875 13.316406 C 22.679688 13.316406 22.675781 13.316406 22.667969 13.316406 C 21.105469 13.316406 19.585938 13.175781 18.253906 12.902344 C 18.234375 12.890625 18.210938 12.886719 18.191406 12.875 C 17.519531 12.46875 16.757812 12.242188 15.976562 12.226562 C 15.015625 11.808594 14.582031 11.363281 14.582031 11.101562 C 14.582031 10.34375 17.441406 8.878906 22.683594 8.878906 Z M 13.320312 16.6875 C 13.398438 16.550781 13.472656 16.414062 13.550781 16.28125 C 13.597656 16.1875 13.648438 16.097656 13.695312 16.007812 C 13.769531 15.867188 13.835938 15.726562 13.902344 15.589844 C 13.941406 15.511719 13.980469 15.433594 14.015625 15.359375 C 14.109375 15.148438 14.199219 14.941406 14.273438 14.738281 C 14.285156 14.703125 14.292969 14.667969 14.304688 14.632812 C 14.371094 14.453125 14.421875 14.28125 14.464844 14.113281 C 14.46875 14.09375 14.476562 14.074219 14.480469 14.058594 C 14.910156 13.820312 15.375 13.714844 15.835938 13.707031 C 15.839844 13.707031 15.839844 13.707031 15.84375 13.707031 C 16.460938 13.6875 17.050781 13.871094 17.554688 14.210938 C 17.914062 14.453125 18.226562 14.769531 18.457031 15.167969 C 19.167969 16.40625 18.886719 17.949219 17.863281 18.859375 C 17.71875 18.992188 17.558594 19.109375 17.382812 19.210938 C 17.367188 19.21875 17.347656 19.222656 17.332031 19.230469 C 17.28125 19.261719 17.207031 19.28125 17.144531 19.308594 C 16.96875 19.375 16.765625 19.429688 16.53125 19.472656 C 16.527344 19.472656 16.523438 19.472656 16.523438 19.472656 C 16.015625 19.5625 15.390625 19.597656 14.730469 19.601562 C 14.714844 19.601562 14.699219 19.601562 14.683594 19.601562 C 14.367188 19.601562 14.042969 19.59375 13.71875 19.578125 C 13.707031 19.578125 13.695312 19.578125 13.683594 19.578125 C 12.917969 19.542969 12.171875 19.476562 11.527344 19.40625 C 11.546875 19.378906 11.570312 19.347656 11.589844 19.316406 C 11.679688 19.195312 11.769531 19.070312 11.863281 18.9375 C 11.90625 18.878906 11.949219 18.820312 11.992188 18.757812 C 12.078125 18.632812 12.164062 18.507812 12.253906 18.375 C 12.300781 18.304688 12.347656 18.238281 12.394531 18.167969 C 12.5 18.007812 12.609375 17.847656 12.714844 17.679688 C 12.742188 17.636719 12.769531 17.59375 12.800781 17.546875 C 12.929688 17.34375 13.054688 17.140625 13.179688 16.933594 C 13.226562 16.847656 13.273438 16.769531 13.320312 16.6875 Z M 10.160156 10.359375 C 11.785156 10.359375 13.105469 11.6875 13.105469 13.316406 C 13.105469 13.390625 13.082031 13.484375 13.070312 13.570312 C 13.039062 13.753906 12.988281 13.953125 12.910156 14.175781 C 12.90625 14.183594 12.902344 14.191406 12.898438 14.199219 C 12.726562 14.679688 12.449219 15.230469 12.128906 15.796875 C 12.105469 15.835938 12.082031 15.875 12.058594 15.914062 C 11.917969 16.15625 11.769531 16.402344 11.617188 16.644531 C 11.589844 16.683594 11.566406 16.726562 11.539062 16.765625 C 11.371094 17.027344 11.203125 17.289062 11.03125 17.535156 C 11.027344 17.542969 11.023438 17.546875 11.019531 17.554688 C 10.789062 17.898438 10.5625 18.210938 10.351562 18.503906 C 10.015625 17.738281 9.546875 16.730469 9.003906 15.757812 C 8.996094 15.75 8.992188 15.738281 8.984375 15.730469 C 8.867188 15.519531 8.746094 15.308594 8.621094 15.105469 C 8.589844 15.0625 8.566406 15.015625 8.535156 14.972656 C 8.421875 14.789062 8.304688 14.609375 8.183594 14.4375 C 8.160156 14.402344 8.140625 14.367188 8.113281 14.335938 C 7.972656 14.136719 7.828125 13.945312 7.683594 13.769531 C 7.671875 13.753906 7.660156 13.738281 7.644531 13.726562 C 7.511719 13.566406 7.378906 13.425781 7.246094 13.292969 C 7.234375 13.28125 7.222656 13.269531 7.210938 13.257812 C 7.246094 11.65625 8.554688 10.359375 10.160156 10.359375 Z M 1.867188 15.167969 C 2.414062 14.21875 3.40625 13.691406 4.425781 13.691406 C 4.925781 13.691406 5.429688 13.816406 5.894531 14.085938 C 5.957031 14.121094 6.023438 14.1875 6.085938 14.238281 C 7.074219 15.050781 8.261719 17.433594 8.984375 19.078125 C 8.957031 19.078125 8.917969 19.070312 8.882812 19.070312 C 8.730469 19.054688 8.570312 19.035156 8.402344 19.019531 C 8.339844 19.011719 8.28125 19.007812 8.21875 19.003906 C 8.042969 18.988281 7.859375 18.972656 7.671875 18.957031 C 7.621094 18.953125 7.570312 18.949219 7.519531 18.945312 C 7.023438 18.910156 6.503906 18.882812 5.976562 18.878906 C 5.933594 18.878906 5.890625 18.878906 5.847656 18.878906 C 5.636719 18.875 5.429688 18.878906 5.21875 18.882812 C 5.152344 18.886719 5.085938 18.890625 5.015625 18.890625 C 4.816406 18.898438 4.617188 18.910156 4.425781 18.925781 C 4.375 18.929688 4.324219 18.933594 4.273438 18.9375 C 4.03125 18.960938 3.800781 18.988281 3.578125 19.027344 C 3.554688 19.03125 3.53125 19.035156 3.503906 19.042969 C 3.308594 19.078125 3.125 19.121094 2.953125 19.167969 C 2.9375 19.171875 2.914062 19.175781 2.898438 19.179688 C 1.527344 18.351562 1.066406 16.566406 1.867188 15.167969 Z M 7.027344 23.238281 C 6.9375 23.390625 6.851562 23.546875 6.765625 23.703125 C 6.722656 23.777344 6.683594 23.855469 6.640625 23.933594 C 6.558594 24.09375 6.480469 24.25 6.40625 24.40625 C 6.375 24.46875 6.34375 24.53125 6.316406 24.589844 C 6.21875 24.808594 6.128906 25.019531 6.050781 25.226562 C 6.039062 25.253906 6.035156 25.28125 6.023438 25.308594 C 5.957031 25.496094 5.902344 25.671875 5.859375 25.847656 C 5.855469 25.863281 5.847656 25.882812 5.84375 25.898438 C 4.441406 26.675781 2.671875 26.183594 1.867188 24.789062 C 1.054688 23.375 1.539062 21.558594 2.945312 20.746094 C 3.011719 20.707031 3.109375 20.679688 3.195312 20.648438 C 3.363281 20.585938 3.550781 20.53125 3.769531 20.492188 C 3.789062 20.488281 3.808594 20.484375 3.828125 20.480469 C 4.421875 20.378906 5.167969 20.351562 5.945312 20.363281 C 6.261719 20.367188 6.589844 20.378906 6.917969 20.398438 C 7.125 20.410156 7.332031 20.417969 7.535156 20.433594 C 7.847656 20.457031 8.15625 20.484375 8.457031 20.515625 C 8.578125 20.527344 8.683594 20.539062 8.796875 20.550781 C 8.738281 20.632812 8.667969 20.726562 8.605469 20.816406 C 8.566406 20.867188 8.53125 20.917969 8.492188 20.972656 C 8.429688 21.058594 8.367188 21.148438 8.300781 21.246094 C 8.230469 21.347656 8.160156 21.449219 8.085938 21.558594 C 8.03125 21.636719 7.980469 21.714844 7.925781 21.796875 C 7.820312 21.957031 7.710938 22.121094 7.601562 22.289062 C 7.578125 22.328125 7.550781 22.367188 7.527344 22.40625 C 7.394531 22.613281 7.265625 22.824219 7.140625 23.039062 C 7.101562 23.105469 7.0625 23.171875 7.027344 23.238281 Z M 12.804688 27.914062 C 12.800781 27.921875 12.800781 27.929688 12.800781 27.9375 C 12.316406 28.917969 11.320312 29.597656 10.160156 29.597656 C 8.535156 29.597656 7.214844 28.273438 7.214844 26.640625 C 7.214844 26.566406 7.238281 26.472656 7.25 26.390625 C 7.28125 26.203125 7.335938 26 7.414062 25.777344 C 7.414062 25.769531 7.417969 25.765625 7.417969 25.761719 C 7.59375 25.273438 7.875 24.71875 8.199219 24.144531 C 8.210938 24.125 8.222656 24.105469 8.234375 24.085938 C 8.390625 23.820312 8.554688 23.550781 8.722656 23.28125 C 8.734375 23.261719 8.746094 23.242188 8.757812 23.222656 C 9.167969 22.582031 9.59375 21.96875 9.972656 21.449219 C 10.140625 21.828125 10.339844 22.273438 10.566406 22.742188 C 10.570312 22.742188 10.570312 22.746094 10.570312 22.75 C 10.792969 23.210938 11.042969 23.695312 11.308594 24.175781 C 11.324219 24.207031 11.34375 24.234375 11.359375 24.261719 C 11.46875 24.453125 11.578125 24.640625 11.691406 24.824219 C 11.726562 24.882812 11.761719 24.941406 11.796875 24.996094 C 11.902344 25.167969 12.011719 25.332031 12.121094 25.492188 C 12.152344 25.535156 12.179688 25.578125 12.210938 25.621094 C 12.351562 25.820312 12.492188 26.007812 12.632812 26.183594 C 12.648438 26.199219 12.664062 26.214844 12.679688 26.230469 C 12.808594 26.386719 12.941406 26.53125 13.074219 26.660156 C 13.082031 26.667969 13.089844 26.679688 13.101562 26.6875 C 13.09375 27.105469 12.996094 27.515625 12.804688 27.914062 Z M 11.339844 20.878906 C 11.359375 20.878906 11.386719 20.882812 11.40625 20.886719 C 11.570312 20.902344 11.742188 20.921875 11.925781 20.9375 C 11.976562 20.941406 12.027344 20.949219 12.078125 20.953125 C 12.261719 20.96875 12.449219 20.984375 12.644531 21 C 12.710938 21.003906 12.769531 21.007812 12.832031 21.015625 C 13.015625 21.027344 13.207031 21.039062 13.398438 21.046875 C 13.480469 21.050781 13.566406 21.054688 13.648438 21.058594 C 13.824219 21.066406 14 21.070312 14.175781 21.074219 C 14.277344 21.074219 14.375 21.078125 14.472656 21.078125 C 14.519531 21.078125 14.570312 21.082031 14.617188 21.082031 C 14.6875 21.082031 14.75 21.078125 14.820312 21.074219 C 15.035156 21.074219 15.246094 21.070312 15.457031 21.058594 C 15.5625 21.054688 15.664062 21.046875 15.769531 21.039062 C 15.984375 21.023438 16.1875 21.003906 16.390625 20.976562 C 16.480469 20.964844 16.570312 20.953125 16.65625 20.941406 C 16.894531 20.902344 17.117188 20.855469 17.328125 20.796875 C 17.355469 20.789062 17.394531 20.785156 17.421875 20.777344 C 17.777344 20.992188 18.082031 21.277344 18.3125 21.621094 C 18.316406 21.625 18.320312 21.632812 18.324219 21.636719 C 18.5625 21.992188 18.726562 22.402344 18.796875 22.839844 C 18.796875 22.84375 18.796875 22.84375 18.796875 22.847656 C 18.816406 22.957031 18.832031 23.070312 18.839844 23.183594 C 18.839844 23.191406 18.835938 23.199219 18.835938 23.207031 C 18.847656 23.472656 18.816406 23.726562 18.761719 23.972656 C 18.75 24.007812 18.746094 24.046875 18.734375 24.082031 C 18.671875 24.332031 18.582031 24.570312 18.453125 24.792969 C 18.4375 24.820312 18.414062 24.84375 18.394531 24.871094 C 18.304688 25.015625 18.214844 25.152344 18.105469 25.273438 C 18.09375 25.289062 18.078125 25.296875 18.066406 25.3125 C 17.433594 26.003906 16.511719 26.339844 15.601562 26.25 C 15.578125 26.246094 15.558594 26.25 15.535156 26.246094 C 15.378906 26.226562 15.226562 26.1875 15.074219 26.140625 C 15.039062 26.132812 15.003906 26.128906 14.96875 26.117188 C 14.785156 26.054688 14.605469 25.972656 14.429688 25.871094 C 14.367188 25.835938 14.300781 25.773438 14.238281 25.71875 C 13.25 24.90625 12.0625 22.523438 11.339844 20.878906 Z M 33.410156 27.277344 C 32.320312 28.394531 28.730469 29.597656 23.421875 29.597656 C 19.703125 29.597656 16.261719 28.957031 14.382812 27.933594 C 14.414062 27.835938 14.433594 27.738281 14.457031 27.644531 C 14.46875 27.601562 14.484375 27.5625 14.492188 27.519531 C 14.5625 27.542969 14.628906 27.554688 14.699219 27.574219 C 14.753906 27.589844 14.808594 27.601562 14.863281 27.617188 C 15.191406 27.695312 15.523438 27.742188 15.863281 27.746094 C 15.875 27.746094 15.882812 27.75 15.894531 27.75 C 15.917969 27.75 15.941406 27.742188 15.960938 27.742188 C 16.324219 27.734375 16.6875 27.695312 17.046875 27.601562 C 17.382812 27.507812 17.699219 27.371094 17.996094 27.207031 C 18.074219 27.167969 18.140625 27.117188 18.214844 27.070312 C 18.449219 26.929688 18.664062 26.765625 18.863281 26.578125 C 18.9375 26.515625 19.003906 26.457031 19.070312 26.386719 C 19.320312 26.128906 19.546875 25.847656 19.730469 25.53125 C 19.804688 25.398438 19.855469 25.253906 19.917969 25.113281 C 20.101562 24.703125 20.238281 24.277344 20.289062 23.84375 C 21.316406 23.738281 22.355469 23.703125 23.378906 23.683594 C 23.757812 23.6875 24.136719 23.691406 24.503906 23.695312 C 25.058594 23.703125 25.597656 23.710938 26.121094 23.710938 C 26.875 23.710938 27.589844 23.691406 28.269531 23.640625 C 31.894531 23.679688 33.683594 24.15625 33.738281 26.65625 C 33.738281 26.84375 33.628906 27.054688 33.410156 27.277344 Z M 33.410156 27.277344 "/>
<path style=" stroke:none;fill-rule:nonzero;fill:rgb(99.607843%,50.196078%,37.647059%);fill-opacity:1;" d="M 18.816406 5.875 C 18.996094 5.875 19.175781 5.808594 19.320312 5.675781 C 19.628906 5.386719 20.78125 4.441406 22.683594 4.441406 C 23.09375 4.441406 23.421875 4.109375 23.421875 3.699219 C 23.421875 3.292969 23.09375 2.960938 22.683594 2.960938 C 20.242188 2.960938 18.71875 4.210938 18.3125 4.59375 C 18.015625 4.875 18 5.339844 18.277344 5.640625 C 18.421875 5.796875 18.621094 5.875 18.816406 5.875 Z M 18.816406 5.875 "/>
<path style=" stroke:none;fill-rule:nonzero;fill:rgb(15.686275%,20.784314%,19.215686%);fill-opacity:0.4;" d="M 45.445312 31.707031 L 45.445312 24.609375 L 46.425781 24.609375 L 46.507812 25.148438 L 46.546875 25.148438 C 46.761719 24.96875 47 24.816406 47.261719 24.683594 C 47.523438 24.550781 47.792969 24.488281 48.074219 24.488281 C 48.390625 24.488281 48.667969 24.550781 48.910156 24.671875 C 49.15625 24.789062 49.367188 24.964844 49.539062 25.191406 C 49.710938 25.417969 49.84375 25.691406 49.929688 26.011719 C 50.019531 26.328125 50.066406 26.683594 50.066406 27.078125 C 50.066406 27.511719 50.003906 27.902344 49.878906 28.246094 C 49.761719 28.585938 49.605469 28.871094 49.40625 29.105469 C 49.207031 29.335938 48.976562 29.511719 48.714844 29.636719 C 48.453125 29.761719 48.179688 29.820312 47.898438 29.820312 C 47.679688 29.820312 47.460938 29.773438 47.238281 29.675781 C 47.019531 29.582031 46.804688 29.441406 46.601562 29.261719 L 46.632812 30.113281 L 46.632812 31.707031 Z M 47.652344 28.839844 C 47.988281 28.839844 48.269531 28.691406 48.496094 28.402344 C 48.726562 28.105469 48.839844 27.667969 48.839844 27.085938 C 48.839844 26.574219 48.753906 26.179688 48.582031 25.894531 C 48.410156 25.613281 48.128906 25.472656 47.746094 25.472656 C 47.386719 25.472656 47.015625 25.660156 46.632812 26.039062 L 46.632812 28.414062 C 46.816406 28.570312 46.996094 28.683594 47.167969 28.746094 C 47.339844 28.808594 47.5 28.839844 47.652344 28.839844 Z M 52.144531 29.699219 L 52.144531 24.609375 L 53.121094 24.609375 L 53.207031 25.511719 L 53.246094 25.511719 C 53.425781 25.179688 53.640625 24.929688 53.894531 24.757812 C 54.152344 24.578125 54.410156 24.488281 54.679688 24.488281 C 54.921875 24.488281 55.113281 24.519531 55.257812 24.589844 L 55.050781 25.625 C 54.960938 25.597656 54.878906 25.578125 54.804688 25.5625 C 54.726562 25.550781 54.636719 25.542969 54.527344 25.542969 C 54.324219 25.542969 54.117188 25.621094 53.894531 25.78125 C 53.675781 25.933594 53.488281 26.203125 53.328125 26.589844 L 53.328125 29.699219 Z M 58.839844 29.820312 C 58.523438 29.820312 58.222656 29.761719 57.933594 29.644531 C 57.644531 29.527344 57.386719 29.355469 57.160156 29.128906 C 56.9375 28.898438 56.761719 28.621094 56.632812 28.289062 C 56.5 27.957031 56.4375 27.582031 56.4375 27.160156 C 56.4375 26.738281 56.5 26.363281 56.632812 26.03125 C 56.761719 25.699219 56.9375 25.417969 57.160156 25.191406 C 57.386719 24.964844 57.644531 24.789062 57.933594 24.671875 C 58.222656 24.550781 58.523438 24.488281 58.839844 24.488281 C 59.15625 24.488281 59.457031 24.550781 59.746094 24.671875 C 60.042969 24.789062 60.300781 24.964844 60.519531 25.191406 C 60.742188 25.417969 60.917969 25.699219 61.046875 26.03125 C 61.183594 26.363281 61.253906 26.738281 61.253906 27.160156 C 61.253906 27.582031 61.183594 27.957031 61.046875 28.289062 C 60.917969 28.621094 60.742188 28.898438 60.519531 29.128906 C 60.300781 29.355469 60.042969 29.527344 59.746094 29.644531 C 59.457031 29.761719 59.15625 29.820312 58.839844 29.820312 Z M 58.839844 28.847656 C 59.210938 28.847656 59.503906 28.695312 59.714844 28.390625 C 59.929688 28.082031 60.035156 27.671875 60.035156 27.160156 C 60.035156 26.640625 59.929688 26.230469 59.714844 25.925781 C 59.503906 25.617188 59.210938 25.460938 58.839844 25.460938 C 58.46875 25.460938 58.175781 25.617188 57.964844 25.925781 C 57.757812 26.230469 57.652344 26.640625 57.652344 27.160156 C 57.652344 27.671875 57.757812 28.082031 57.964844 28.390625 C 58.175781 28.695312 58.46875 28.847656 58.839844 28.847656 Z M 63.46875 29.699219 L 63.46875 25.554688 L 62.789062 25.554688 L 62.789062 24.664062 L 63.46875 24.609375 L 63.46875 24.082031 C 63.46875 23.820312 63.5 23.578125 63.5625 23.359375 C 63.625 23.128906 63.722656 22.9375 63.863281 22.777344 C 64 22.613281 64.171875 22.484375 64.378906 22.394531 C 64.589844 22.304688 64.847656 22.257812 65.152344 22.257812 C 65.328125 22.257812 65.496094 22.277344 65.65625 22.3125 C 65.820312 22.347656 65.960938 22.386719 66.078125 22.4375 L 65.851562 23.328125 C 65.667969 23.242188 65.480469 23.203125 65.296875 23.203125 C 64.867188 23.203125 64.65625 23.488281 64.65625 24.0625 L 64.65625 24.609375 L 65.644531 24.609375 L 65.644531 25.554688 L 64.65625 25.554688 L 64.65625 29.699219 Z M 69.476562 29.820312 C 69.128906 29.820312 68.800781 29.761719 68.5 29.644531 C 68.195312 29.523438 67.929688 29.34375 67.703125 29.117188 C 67.476562 28.890625 67.296875 28.613281 67.167969 28.289062 C 67.042969 27.957031 66.984375 27.582031 66.984375 27.160156 C 66.984375 26.746094 67.046875 26.371094 67.179688 26.039062 C 67.308594 25.710938 67.480469 25.429688 67.695312 25.203125 C 67.914062 24.972656 68.164062 24.796875 68.445312 24.671875 C 68.730469 24.550781 69.019531 24.488281 69.3125 24.488281 C 69.65625 24.488281 69.960938 24.546875 70.222656 24.664062 C 70.480469 24.78125 70.699219 24.945312 70.871094 25.160156 C 71.050781 25.375 71.183594 25.628906 71.273438 25.925781 C 71.363281 26.222656 71.40625 26.546875 71.40625 26.902344 C 71.40625 27.019531 71.398438 27.128906 71.386719 27.230469 C 71.378906 27.335938 71.371094 27.417969 71.355469 27.480469 L 68.136719 27.480469 C 68.191406 27.9375 68.351562 28.289062 68.613281 28.539062 C 68.878906 28.777344 69.21875 28.898438 69.632812 28.898438 C 69.851562 28.898438 70.054688 28.867188 70.242188 28.808594 C 70.433594 28.738281 70.625 28.644531 70.808594 28.527344 L 71.210938 29.273438 C 70.96875 29.433594 70.703125 29.5625 70.40625 29.667969 C 70.109375 29.769531 69.800781 29.820312 69.476562 29.820312 Z M 68.128906 26.671875 L 70.375 26.671875 C 70.375 26.277344 70.289062 25.972656 70.117188 25.75 C 69.953125 25.523438 69.695312 25.410156 69.34375 25.410156 C 69.042969 25.410156 68.777344 25.515625 68.550781 25.730469 C 68.324219 25.945312 68.183594 26.257812 68.128906 26.671875 Z M 74.828125 29.820312 C 74.480469 29.820312 74.132812 29.757812 73.789062 29.625 C 73.449219 29.488281 73.160156 29.316406 72.910156 29.117188 L 73.46875 28.351562 C 73.695312 28.53125 73.917969 28.671875 74.136719 28.777344 C 74.367188 28.871094 74.609375 28.921875 74.871094 28.921875 C 75.144531 28.921875 75.347656 28.867188 75.480469 28.753906 C 75.609375 28.636719 75.675781 28.488281 75.675781 28.308594 C 75.675781 28.207031 75.644531 28.117188 75.582031 28.039062 C 75.519531 27.957031 75.4375 27.886719 75.335938 27.824219 C 75.230469 27.761719 75.113281 27.707031 74.984375 27.65625 C 74.855469 27.601562 74.722656 27.546875 74.59375 27.492188 C 74.425781 27.429688 74.257812 27.355469 74.085938 27.273438 C 73.914062 27.191406 73.761719 27.089844 73.621094 26.972656 C 73.492188 26.855469 73.382812 26.722656 73.292969 26.570312 C 73.210938 26.410156 73.167969 26.222656 73.167969 26.011719 C 73.167969 25.5625 73.335938 25.195312 73.664062 24.910156 C 73.992188 24.628906 74.445312 24.488281 75.015625 24.488281 C 75.367188 24.488281 75.683594 24.550781 75.964844 24.671875 C 76.246094 24.796875 76.488281 24.9375 76.695312 25.097656 L 76.148438 25.824219 C 75.972656 25.691406 75.789062 25.589844 75.601562 25.511719 C 75.425781 25.429688 75.234375 25.386719 75.035156 25.386719 C 74.78125 25.386719 74.59375 25.445312 74.46875 25.554688 C 74.351562 25.65625 74.292969 25.789062 74.292969 25.949219 C 74.292969 26.050781 74.320312 26.140625 74.375 26.21875 C 74.4375 26.285156 74.515625 26.347656 74.613281 26.402344 C 74.710938 26.457031 74.820312 26.511719 74.941406 26.558594 C 75.074219 26.605469 75.207031 26.65625 75.34375 26.703125 C 75.515625 26.765625 75.6875 26.839844 75.859375 26.921875 C 76.03125 26.996094 76.1875 27.09375 76.324219 27.210938 C 76.46875 27.328125 76.582031 27.472656 76.664062 27.648438 C 76.753906 27.8125 76.800781 28.011719 76.800781 28.246094 C 76.800781 28.46875 76.753906 28.675781 76.664062 28.867188 C 76.582031 29.054688 76.460938 29.222656 76.292969 29.367188 C 76.128906 29.503906 75.921875 29.613281 75.675781 29.699219 C 75.425781 29.78125 75.144531 29.820312 74.828125 29.820312 Z M 80.148438 29.820312 C 79.796875 29.820312 79.449219 29.757812 79.105469 29.625 C 78.769531 29.488281 78.476562 29.316406 78.230469 29.117188 L 78.785156 28.351562 C 79.011719 28.53125 79.238281 28.671875 79.457031 28.777344 C 79.683594 28.871094 79.929688 28.921875 80.1875 28.921875 C 80.464844 28.921875 80.667969 28.867188 80.796875 28.753906 C 80.929688 28.636719 80.992188 28.488281 80.992188 28.308594 C 80.992188 28.207031 80.960938 28.117188 80.902344 28.039062 C 80.839844 27.957031 80.757812 27.886719 80.652344 27.824219 C 80.550781 27.761719 80.433594 27.707031 80.300781 27.65625 C 80.171875 27.601562 80.042969 27.546875 79.910156 27.492188 C 79.746094 27.429688 79.578125 27.355469 79.40625 27.273438 C 79.234375 27.191406 79.078125 27.089844 78.941406 26.972656 C 78.8125 26.855469 78.699219 26.722656 78.609375 26.570312 C 78.527344 26.410156 78.488281 26.222656 78.488281 26.011719 C 78.488281 25.5625 78.652344 25.195312 78.984375 24.910156 C 79.3125 24.628906 79.761719 24.488281 80.332031 24.488281 C 80.683594 24.488281 81 24.550781 81.28125 24.671875 C 81.5625 24.796875 81.808594 24.9375 82.015625 25.097656 L 81.46875 25.824219 C 81.289062 25.691406 81.105469 25.589844 80.921875 25.511719 C 80.742188 25.429688 80.554688 25.386719 80.355469 25.386719 C 80.101562 25.386719 79.910156 25.445312 79.785156 25.554688 C 79.671875 25.65625 79.613281 25.789062 79.613281 25.949219 C 79.613281 26.050781 79.640625 26.140625 79.695312 26.21875 C 79.757812 26.285156 79.835938 26.347656 79.929688 26.402344 C 80.027344 26.457031 80.136719 26.511719 80.261719 26.558594 C 80.390625 26.605469 80.527344 26.65625 80.664062 26.703125 C 80.835938 26.765625 81.007812 26.839844 81.179688 26.921875 C 81.351562 26.996094 81.503906 27.09375 81.644531 27.210938 C 81.789062 27.328125 81.902344 27.472656 81.984375 27.648438 C 82.074219 27.8125 82.117188 28.011719 82.117188 28.246094 C 82.117188 28.46875 82.074219 28.675781 81.984375 28.867188 C 81.902344 29.054688 81.777344 29.222656 81.613281 29.367188 C 81.449219 29.503906 81.242188 29.613281 80.992188 29.699219 C 80.746094 29.78125 80.464844 29.820312 80.148438 29.820312 Z M 84.054688 29.699219 L 84.054688 24.609375 L 85.238281 24.609375 L 85.238281 29.699219 Z M 84.652344 23.71875 C 84.4375 23.71875 84.261719 23.65625 84.125 23.535156 C 83.988281 23.410156 83.917969 23.246094 83.917969 23.046875 C 83.917969 22.847656 83.988281 22.683594 84.125 22.558594 C 84.261719 22.429688 84.4375 22.363281 84.652344 22.363281 C 84.863281 22.363281 85.039062 22.429688 85.175781 22.558594 C 85.316406 22.683594 85.382812 22.847656 85.382812 23.046875 C 85.382812 23.246094 85.316406 23.410156 85.175781 23.535156 C 85.039062 23.65625 84.863281 23.71875 84.652344 23.71875 Z M 89.703125 29.820312 C 89.386719 29.820312 89.082031 29.761719 88.792969 29.644531 C 88.503906 29.527344 88.246094 29.355469 88.019531 29.128906 C 87.800781 28.898438 87.625 28.621094 87.496094 28.289062 C 87.363281 27.957031 87.300781 27.582031 87.300781 27.160156 C 87.300781 26.738281 87.363281 26.363281 87.496094 26.03125 C 87.625 25.699219 87.800781 25.417969 88.019531 25.191406 C 88.246094 24.964844 88.503906 24.789062 88.792969 24.671875 C 89.082031 24.550781 89.386719 24.488281 89.703125 24.488281 C 90.019531 24.488281 90.320312 24.550781 90.609375 24.671875 C 90.90625 24.789062 91.164062 24.964844 91.382812 25.191406 C 91.601562 25.417969 91.777344 25.699219 91.910156 26.03125 C 92.046875 26.363281 92.117188 26.738281 92.117188 27.160156 C 92.117188 27.582031 92.046875 27.957031 91.910156 28.289062 C 91.777344 28.621094 91.601562 28.898438 91.382812 29.128906 C 91.164062 29.355469 90.90625 29.527344 90.609375 29.644531 C 90.320312 29.761719 90.019531 29.820312 89.703125 29.820312 Z M 89.703125 28.847656 C 90.074219 28.847656 90.367188 28.695312 90.578125 28.390625 C 90.792969 28.082031 90.898438 27.671875 90.898438 27.160156 C 90.898438 26.640625 90.792969 26.230469 90.578125 25.925781 C 90.367188 25.617188 90.074219 25.460938 89.703125 25.460938 C 89.332031 25.460938 89.039062 25.617188 88.824219 25.925781 C 88.621094 26.230469 88.515625 26.640625 88.515625 27.160156 C 88.515625 27.671875 88.621094 28.082031 88.824219 28.390625 C 89.039062 28.695312 89.332031 28.847656 89.703125 28.847656 Z M 94.167969 29.699219 L 94.167969 24.609375 L 95.144531 24.609375 L 95.226562 25.296875 L 95.269531 25.296875 C 95.496094 25.074219 95.742188 24.882812 96 24.726562 C 96.269531 24.566406 96.578125 24.488281 96.929688 24.488281 C 97.472656 24.488281 97.867188 24.664062 98.117188 25.015625 C 98.363281 25.359375 98.488281 25.859375 98.488281 26.507812 L 98.488281 29.699219 L 97.300781 29.699219 L 97.300781 26.664062 C 97.300781 26.242188 97.238281 25.945312 97.117188 25.773438 C 96.992188 25.597656 96.789062 25.511719 96.507812 25.511719 C 96.289062 25.511719 96.089844 25.566406 95.917969 25.679688 C 95.753906 25.78125 95.566406 25.9375 95.351562 26.144531 L 95.351562 29.699219 Z M 102.042969 29.820312 C 101.59375 29.820312 101.234375 29.6875 100.957031 29.417969 C 100.683594 29.140625 100.546875 28.777344 100.546875 28.332031 C 100.546875 28.0625 100.601562 27.824219 100.710938 27.617188 C 100.828125 27.402344 101.007812 27.21875 101.246094 27.066406 C 101.496094 26.914062 101.804688 26.785156 102.175781 26.683594 C 102.554688 26.578125 103.003906 26.5 103.527344 26.445312 C 103.519531 26.3125 103.5 26.1875 103.464844 26.070312 C 103.4375 25.949219 103.386719 25.839844 103.308594 25.75 C 103.242188 25.652344 103.148438 25.582031 103.03125 25.535156 C 102.914062 25.476562 102.769531 25.449219 102.597656 25.449219 C 102.351562 25.449219 102.105469 25.5 101.867188 25.59375 C 101.632812 25.691406 101.402344 25.808594 101.175781 25.949219 L 100.742188 25.148438 C 101.023438 24.96875 101.339844 24.816406 101.691406 24.683594 C 102.042969 24.550781 102.417969 24.488281 102.824219 24.488281 C 103.457031 24.488281 103.929688 24.675781 104.238281 25.058594 C 104.554688 25.429688 104.710938 25.972656 104.710938 26.683594 L 104.710938 29.699219 L 103.734375 29.699219 L 103.648438 29.136719 L 103.609375 29.136719 C 103.382812 29.332031 103.136719 29.492188 102.875 29.625 C 102.621094 29.757812 102.34375 29.820312 102.042969 29.820312 Z M 102.421875 28.890625 C 102.628906 28.890625 102.816406 28.839844 102.980469 28.746094 C 103.152344 28.648438 103.332031 28.511719 103.527344 28.332031 L 103.527344 27.191406 C 103.183594 27.230469 102.894531 27.289062 102.660156 27.355469 C 102.425781 27.425781 102.238281 27.503906 102.09375 27.59375 C 101.949219 27.675781 101.84375 27.773438 101.785156 27.886719 C 101.722656 27.996094 101.691406 28.113281 101.691406 28.238281 C 101.691406 28.464844 101.757812 28.628906 101.898438 28.734375 C 102.035156 28.839844 102.210938 28.890625 102.421875 28.890625 Z M 108.164062 29.820312 C 107.738281 29.820312 107.4375 29.695312 107.265625 29.4375 C 107.09375 29.183594 107.007812 28.835938 107.007812 28.390625 L 107.007812 22.382812 L 108.195312 22.382812 L 108.195312 28.453125 C 108.195312 28.601562 108.222656 28.703125 108.277344 28.765625 C 108.332031 28.820312 108.390625 28.847656 108.453125 28.847656 C 108.480469 28.847656 108.503906 28.847656 108.523438 28.847656 C 108.550781 28.847656 108.589844 28.839844 108.636719 28.828125 L 108.792969 29.71875 C 108.632812 29.789062 108.425781 29.820312 108.164062 29.820312 Z M 113.625 29.699219 L 113.625 24.609375 L 114.605469 24.609375 L 114.6875 25.304688 L 114.730469 25.304688 C 114.941406 25.078125 115.171875 24.882812 115.421875 24.726562 C 115.675781 24.566406 115.960938 24.488281 116.277344 24.488281 C 116.648438 24.488281 116.945312 24.566406 117.164062 24.726562 C 117.390625 24.882812 117.5625 25.109375 117.679688 25.398438 C 117.921875 25.136719 118.171875 24.917969 118.433594 24.746094 C 118.695312 24.574219 118.984375 24.488281 119.308594 24.488281 C 119.847656 24.488281 120.242188 24.664062 120.496094 25.015625 C 120.75 25.359375 120.878906 25.859375 120.878906 26.507812 L 120.878906 29.699219 L 119.679688 29.699219 L 119.679688 26.664062 C 119.679688 26.242188 119.617188 25.945312 119.484375 25.773438 C 119.359375 25.597656 119.167969 25.511719 118.90625 25.511719 C 118.589844 25.511719 118.238281 25.722656 117.84375 26.144531 L 117.84375 29.699219 L 116.660156 29.699219 L 116.660156 26.664062 C 116.660156 26.242188 116.59375 25.945312 116.460938 25.773438 C 116.339844 25.597656 116.144531 25.511719 115.875 25.511719 C 115.558594 25.511719 115.203125 25.722656 114.8125 26.144531 L 114.8125 29.699219 Z M 124.421875 29.820312 C 123.976562 29.820312 123.613281 29.6875 123.339844 29.417969 C 123.066406 29.140625 122.925781 28.777344 122.925781 28.332031 C 122.925781 28.0625 122.980469 27.824219 123.09375 27.617188 C 123.207031 27.402344 123.386719 27.21875 123.628906 27.066406 C 123.875 26.914062 124.183594 26.785156 124.554688 26.683594 C 124.933594 26.578125 125.386719 26.5 125.90625 26.445312 C 125.902344 26.3125 125.878906 26.1875 125.847656 26.070312 C 125.816406 25.949219 125.765625 25.839844 125.691406 25.75 C 125.621094 25.652344 125.53125 25.582031 125.414062 25.535156 C 125.296875 25.476562 125.152344 25.449219 124.980469 25.449219 C 124.730469 25.449219 124.488281 25.5 124.246094 25.59375 C 124.011719 25.691406 123.78125 25.808594 123.554688 25.949219 L 123.121094 25.148438 C 123.40625 24.96875 123.722656 24.816406 124.070312 24.683594 C 124.421875 24.550781 124.800781 24.488281 125.207031 24.488281 C 125.839844 24.488281 126.308594 24.675781 126.621094 25.058594 C 126.933594 25.429688 127.09375 25.972656 127.09375 26.683594 L 127.09375 29.699219 L 126.113281 29.699219 L 126.03125 29.136719 L 125.988281 29.136719 C 125.761719 29.332031 125.519531 29.492188 125.257812 29.625 C 125.003906 29.757812 124.726562 29.820312 124.421875 29.820312 Z M 124.804688 28.890625 C 125.011719 28.890625 125.195312 28.839844 125.359375 28.746094 C 125.53125 28.648438 125.714844 28.511719 125.90625 28.332031 L 125.90625 27.191406 C 125.5625 27.230469 125.273438 27.289062 125.042969 27.355469 C 124.808594 27.425781 124.617188 27.503906 124.472656 27.59375 C 124.328125 27.675781 124.226562 27.773438 124.164062 27.886719 C 124.101562 27.996094 124.070312 28.113281 124.070312 28.238281 C 124.070312 28.464844 124.140625 28.628906 124.277344 28.734375 C 124.414062 28.839844 124.589844 28.890625 124.804688 28.890625 Z M 130.804688 29.820312 C 130.453125 29.820312 130.105469 29.757812 129.761719 29.625 C 129.425781 29.488281 129.132812 29.316406 128.882812 29.117188 L 129.441406 28.351562 C 129.667969 28.53125 129.890625 28.671875 130.113281 28.777344 C 130.339844 28.871094 130.582031 28.921875 130.84375 28.921875 C 131.121094 28.921875 131.320312 28.867188 131.453125 28.753906 C 131.582031 28.636719 131.648438 28.488281 131.648438 28.308594 C 131.648438 28.207031 131.617188 28.117188 131.554688 28.039062 C 131.492188 27.957031 131.410156 27.886719 131.308594 27.824219 C 131.207031 27.761719 131.089844 27.707031 130.957031 27.65625 C 130.828125 27.601562 130.695312 27.546875 130.566406 27.492188 C 130.402344 27.429688 130.230469 27.355469 130.058594 27.273438 C 129.886719 27.191406 129.734375 27.089844 129.597656 26.972656 C 129.464844 26.855469 129.355469 26.722656 129.265625 26.570312 C 129.183594 26.410156 129.140625 26.222656 129.140625 26.011719 C 129.140625 25.5625 129.308594 25.195312 129.636719 24.910156 C 129.96875 24.628906 130.417969 24.488281 130.988281 24.488281 C 131.339844 24.488281 131.65625 24.550781 131.9375 24.671875 C 132.21875 24.796875 132.464844 24.9375 132.667969 25.097656 L 132.121094 25.824219 C 131.945312 25.691406 131.761719 25.589844 131.578125 25.511719 C 131.398438 25.429688 131.207031 25.386719 131.007812 25.386719 C 130.753906 25.386719 130.566406 25.445312 130.441406 25.554688 C 130.324219 25.65625 130.265625 25.789062 130.265625 25.949219 C 130.265625 26.050781 130.292969 26.140625 130.347656 26.21875 C 130.410156 26.285156 130.488281 26.347656 130.585938 26.402344 C 130.683594 26.457031 130.792969 26.511719 130.917969 26.558594 C 131.046875 26.605469 131.179688 26.65625 131.320312 26.703125 C 131.492188 26.765625 131.664062 26.839844 131.835938 26.921875 C 132.007812 26.996094 132.160156 27.09375 132.296875 27.210938 C 132.441406 27.328125 132.554688 27.472656 132.640625 27.648438 C 132.726562 27.8125 132.773438 28.011719 132.773438 28.246094 C 132.773438 28.46875 132.726562 28.675781 132.640625 28.867188 C 132.554688 29.054688 132.433594 29.222656 132.265625 29.367188 C 132.101562 29.503906 131.894531 29.613281 131.648438 29.699219 C 131.402344 29.78125 131.121094 29.820312 130.804688 29.820312 Z M 136.121094 29.820312 C 135.769531 29.820312 135.421875 29.757812 135.078125 29.625 C 134.742188 29.488281 134.449219 29.316406 134.203125 29.117188 L 134.757812 28.351562 C 134.988281 28.53125 135.210938 28.671875 135.429688 28.777344 C 135.65625 28.871094 135.902344 28.921875 136.164062 28.921875 C 136.4375 28.921875 136.640625 28.867188 136.769531 28.753906 C 136.902344 28.636719 136.964844 28.488281 136.964844 28.308594 C 136.964844 28.207031 136.9375 28.117188 136.875 28.039062 C 136.8125 27.957031 136.730469 27.886719 136.625 27.824219 C 136.523438 27.761719 136.40625 27.707031 136.277344 27.65625 C 136.144531 27.601562 136.015625 27.546875 135.882812 27.492188 C 135.71875 27.429688 135.550781 27.355469 135.378906 27.273438 C 135.207031 27.191406 135.050781 27.089844 134.914062 26.972656 C 134.785156 26.855469 134.671875 26.722656 134.585938 26.570312 C 134.5 26.410156 134.460938 26.222656 134.460938 26.011719 C 134.460938 25.5625 134.625 25.195312 134.957031 24.910156 C 135.285156 24.628906 135.734375 24.488281 136.308594 24.488281 C 136.65625 24.488281 136.972656 24.550781 137.253906 24.671875 C 137.539062 24.796875 137.78125 24.9375 137.988281 25.097656 L 137.441406 25.824219 C 137.261719 25.691406 137.082031 25.589844 136.894531 25.511719 C 136.714844 25.429688 136.527344 25.386719 136.328125 25.386719 C 136.074219 25.386719 135.882812 25.445312 135.761719 25.554688 C 135.644531 25.65625 135.585938 25.789062 135.585938 25.949219 C 135.585938 26.050781 135.613281 26.140625 135.667969 26.21875 C 135.730469 26.285156 135.808594 26.347656 135.90625 26.402344 C 136 26.457031 136.109375 26.511719 136.234375 26.558594 C 136.363281 26.605469 136.5 26.65625 136.636719 26.703125 C 136.808594 26.765625 136.980469 26.839844 137.152344 26.921875 C 137.324219 26.996094 137.480469 27.09375 137.617188 27.210938 C 137.761719 27.328125 137.875 27.472656 137.957031 27.648438 C 138.046875 27.8125 138.089844 28.011719 138.089844 28.246094 C 138.089844 28.46875 138.046875 28.675781 137.957031 28.867188 C 137.875 29.054688 137.75 29.222656 137.585938 29.367188 C 137.421875 29.503906 137.214844 29.613281 136.964844 29.699219 C 136.71875 29.78125 136.4375 29.820312 136.121094 29.820312 Z M 141.253906 29.820312 C 140.808594 29.820312 140.445312 29.6875 140.171875 29.417969 C 139.894531 29.140625 139.757812 28.777344 139.757812 28.332031 C 139.757812 28.0625 139.8125 27.824219 139.921875 27.617188 C 140.039062 27.402344 140.21875 27.21875 140.460938 27.066406 C 140.707031 26.914062 141.015625 26.785156 141.386719 26.683594 C 141.765625 26.578125 142.214844 26.5 142.738281 26.445312 C 142.730469 26.3125 142.710938 26.1875 142.675781 26.070312 C 142.648438 25.949219 142.597656 25.839844 142.523438 25.75 C 142.453125 25.652344 142.359375 25.582031 142.242188 25.535156 C 142.125 25.476562 141.984375 25.449219 141.8125 25.449219 C 141.5625 25.449219 141.320312 25.5 141.078125 25.59375 C 140.84375 25.691406 140.613281 25.808594 140.386719 25.949219 L 139.953125 25.148438 C 140.234375 24.96875 140.550781 24.816406 140.902344 24.683594 C 141.253906 24.550781 141.632812 24.488281 142.039062 24.488281 C 142.671875 24.488281 143.140625 24.675781 143.449219 25.058594 C 143.765625 25.429688 143.925781 25.972656 143.925781 26.683594 L 143.925781 29.699219 L 142.945312 29.699219 L 142.863281 29.136719 L 142.820312 29.136719 C 142.59375 29.332031 142.351562 29.492188 142.089844 29.625 C 141.835938 29.757812 141.554688 29.820312 141.253906 29.820312 Z M 141.636719 28.890625 C 141.839844 28.890625 142.027344 28.839844 142.191406 28.746094 C 142.363281 28.648438 142.546875 28.511719 142.738281 28.332031 L 142.738281 27.191406 C 142.394531 27.230469 142.105469 27.289062 141.871094 27.355469 C 141.640625 27.425781 141.449219 27.503906 141.304688 27.59375 C 141.160156 27.675781 141.058594 27.773438 140.996094 27.886719 C 140.933594 27.996094 140.902344 28.113281 140.902344 28.238281 C 140.902344 28.464844 140.972656 28.628906 141.109375 28.734375 C 141.246094 28.839844 141.421875 28.890625 141.636719 28.890625 Z M 147.984375 31.945312 C 147.683594 31.945312 147.398438 31.917969 147.140625 31.863281 C 146.882812 31.808594 146.664062 31.726562 146.480469 31.613281 C 146.292969 31.503906 146.144531 31.367188 146.035156 31.199219 C 145.933594 31.035156 145.878906 30.839844 145.878906 30.621094 C 145.878906 30.40625 145.941406 30.207031 146.066406 30.019531 C 146.191406 29.839844 146.367188 29.675781 146.601562 29.53125 L 146.601562 29.492188 C 146.472656 29.40625 146.363281 29.296875 146.273438 29.160156 C 146.191406 29.019531 146.148438 28.847656 146.148438 28.640625 C 146.148438 28.441406 146.203125 28.261719 146.3125 28.101562 C 146.429688 27.9375 146.5625 27.800781 146.707031 27.699219 L 146.707031 27.65625 C 146.535156 27.527344 146.378906 27.347656 146.242188 27.117188 C 146.109375 26.882812 146.046875 26.613281 146.046875 26.308594 C 146.046875 26.019531 146.101562 25.761719 146.210938 25.535156 C 146.320312 25.304688 146.464844 25.117188 146.644531 24.964844 C 146.828125 24.804688 147.042969 24.6875 147.285156 24.609375 C 147.523438 24.527344 147.777344 24.488281 148.046875 24.488281 C 148.183594 24.488281 148.316406 24.5 148.4375 24.527344 C 148.570312 24.550781 148.6875 24.578125 148.789062 24.609375 L 150.605469 24.609375 L 150.605469 25.492188 L 149.675781 25.492188 C 149.757812 25.589844 149.828125 25.710938 149.882812 25.863281 C 149.9375 26.011719 149.964844 26.171875 149.964844 26.351562 C 149.964844 26.636719 149.914062 26.882812 149.808594 27.097656 C 149.714844 27.3125 149.578125 27.492188 149.40625 27.636719 C 149.234375 27.78125 149.03125 27.890625 148.800781 27.96875 C 148.566406 28.042969 148.316406 28.082031 148.046875 28.082031 C 147.9375 28.082031 147.824219 28.070312 147.707031 28.050781 C 147.589844 28.03125 147.472656 27.996094 147.355469 27.945312 C 147.28125 28.015625 147.21875 28.085938 147.167969 28.152344 C 147.128906 28.222656 147.109375 28.316406 147.109375 28.433594 C 147.109375 28.578125 147.167969 28.691406 147.285156 28.777344 C 147.40625 28.859375 147.625 28.898438 147.933594 28.898438 L 148.832031 28.898438 C 149.441406 28.898438 149.902344 29 150.210938 29.199219 C 150.527344 29.394531 150.6875 29.710938 150.6875 30.152344 C 150.6875 30.402344 150.621094 30.636719 150.492188 30.859375 C 150.367188 31.078125 150.1875 31.269531 149.953125 31.429688 C 149.722656 31.585938 149.433594 31.710938 149.097656 31.800781 C 148.769531 31.898438 148.398438 31.945312 147.984375 31.945312 Z M 148.046875 27.335938 C 148.289062 27.335938 148.492188 27.25 148.664062 27.078125 C 148.835938 26.898438 148.921875 26.640625 148.921875 26.308594 C 148.921875 25.992188 148.835938 25.746094 148.664062 25.574219 C 148.5 25.394531 148.292969 25.304688 148.046875 25.304688 C 147.800781 25.304688 147.589844 25.390625 147.417969 25.5625 C 147.246094 25.738281 147.160156 25.984375 147.160156 26.308594 C 147.160156 26.640625 147.246094 26.898438 147.417969 27.078125 C 147.589844 27.25 147.800781 27.335938 148.046875 27.335938 Z M 148.171875 31.167969 C 148.582031 31.167969 148.914062 31.085938 149.160156 30.921875 C 149.414062 30.761719 149.542969 30.570312 149.542969 30.351562 C 149.542969 30.148438 149.460938 30.015625 149.304688 29.945312 C 149.152344 29.878906 148.933594 29.84375 148.644531 29.84375 L 147.953125 29.84375 C 147.679688 29.84375 147.449219 29.820312 147.261719 29.769531 C 147 29.96875 146.871094 30.195312 146.871094 30.445312 C 146.871094 30.671875 146.984375 30.847656 147.210938 30.972656 C 147.445312 31.101562 147.765625 31.167969 148.171875 31.167969 Z M 154.460938 29.820312 C 154.109375 29.820312 153.785156 29.761719 153.480469 29.644531 C 153.179688 29.523438 152.914062 29.34375 152.6875 29.117188 C 152.460938 28.890625 152.28125 28.613281 152.148438 28.289062 C 152.027344 27.957031 151.964844 27.582031 151.964844 27.160156 C 151.964844 26.746094 152.03125 26.371094 152.160156 26.039062 C 152.292969 25.710938 152.464844 25.429688 152.675781 25.203125 C 152.894531 24.972656 153.148438 24.796875 153.429688 24.671875 C 153.710938 24.550781 154 24.488281 154.296875 24.488281 C 154.640625 24.488281 154.941406 24.546875 155.203125 24.664062 C 155.464844 24.78125 155.679688 24.945312 155.851562 25.160156 C 156.03125 25.375 156.164062 25.628906 156.253906 25.925781 C 156.34375 26.222656 156.390625 26.546875 156.390625 26.902344 C 156.390625 27.019531 156.382812 27.128906 156.367188 27.230469 C 156.363281 27.335938 156.351562 27.417969 156.335938 27.480469 L 153.121094 27.480469 C 153.175781 27.9375 153.332031 28.289062 153.59375 28.539062 C 153.863281 28.777344 154.203125 28.898438 154.617188 28.898438 C 154.835938 28.898438 155.039062 28.867188 155.222656 28.808594 C 155.417969 28.738281 155.605469 28.644531 155.792969 28.527344 L 156.191406 29.273438 C 155.953125 29.433594 155.683594 29.5625 155.390625 29.667969 C 155.09375 29.769531 154.785156 29.820312 154.460938 29.820312 Z M 153.109375 26.671875 L 155.359375 26.671875 C 155.359375 26.277344 155.273438 25.972656 155.101562 25.75 C 154.933594 25.523438 154.675781 25.410156 154.328125 25.410156 C 154.023438 25.410156 153.757812 25.515625 153.53125 25.730469 C 153.304688 25.945312 153.164062 26.257812 153.109375 26.671875 Z M 159.8125 29.820312 C 159.460938 29.820312 159.113281 29.757812 158.769531 29.625 C 158.433594 29.488281 158.140625 29.316406 157.894531 29.117188 L 158.449219 28.351562 C 158.675781 28.53125 158.902344 28.671875 159.121094 28.777344 C 159.347656 28.871094 159.589844 28.921875 159.851562 28.921875 C 160.128906 28.921875 160.332031 28.867188 160.460938 28.753906 C 160.59375 28.636719 160.65625 28.488281 160.65625 28.308594 C 160.65625 28.207031 160.625 28.117188 160.566406 28.039062 C 160.503906 27.957031 160.421875 27.886719 160.316406 27.824219 C 160.214844 27.761719 160.097656 27.707031 159.964844 27.65625 C 159.835938 27.601562 159.707031 27.546875 159.574219 27.492188 C 159.410156 27.429688 159.242188 27.355469 159.070312 27.273438 C 158.898438 27.191406 158.742188 27.089844 158.605469 26.972656 C 158.472656 26.855469 158.363281 26.722656 158.273438 26.570312 C 158.191406 26.410156 158.152344 26.222656 158.152344 26.011719 C 158.152344 25.5625 158.316406 25.195312 158.644531 24.910156 C 158.976562 24.628906 159.425781 24.488281 159.996094 24.488281 C 160.347656 24.488281 160.664062 24.550781 160.945312 24.671875 C 161.226562 24.796875 161.472656 24.9375 161.679688 25.097656 L 161.132812 25.824219 C 160.953125 25.691406 160.769531 25.589844 160.585938 25.511719 C 160.40625 25.429688 160.21875 25.386719 160.019531 25.386719 C 159.761719 25.386719 159.574219 25.445312 159.449219 25.554688 C 159.332031 25.65625 159.277344 25.789062 159.277344 25.949219 C 159.277344 26.050781 159.304688 26.140625 159.359375 26.21875 C 159.417969 26.285156 159.5 26.347656 159.59375 26.402344 C 159.691406 26.457031 159.800781 26.511719 159.925781 26.558594 C 160.054688 26.605469 160.191406 26.65625 160.328125 26.703125 C 160.5 26.765625 160.671875 26.839844 160.84375 26.921875 C 161.015625 26.996094 161.167969 27.09375 161.308594 27.210938 C 161.453125 27.328125 161.566406 27.472656 161.648438 27.648438 C 161.738281 27.8125 161.78125 28.011719 161.78125 28.246094 C 161.78125 28.46875 161.738281 28.675781 161.648438 28.867188 C 161.566406 29.054688 161.441406 29.222656 161.277344 29.367188 C 161.109375 29.503906 160.90625 29.613281 160.65625 29.699219 C 160.410156 29.78125 160.128906 29.820312 159.8125 29.820312 Z M 168.351562 29.820312 C 168.011719 29.820312 167.710938 29.773438 167.441406 29.675781 C 167.179688 29.574219 166.957031 29.4375 166.773438 29.273438 C 166.585938 29.101562 166.441406 28.898438 166.339844 28.671875 C 166.242188 28.4375 166.195312 28.183594 166.195312 27.914062 C 166.195312 27.679688 166.230469 27.46875 166.296875 27.285156 C 166.367188 27.097656 166.460938 26.929688 166.574219 26.777344 C 166.699219 26.617188 166.835938 26.476562 166.988281 26.351562 C 167.148438 26.21875 167.3125 26.097656 167.484375 25.980469 C 167.347656 25.714844 167.238281 25.460938 167.164062 25.210938 C 167.089844 24.964844 167.050781 24.722656 167.050781 24.488281 C 167.050781 24.253906 167.089844 24.035156 167.164062 23.835938 C 167.246094 23.628906 167.363281 23.449219 167.515625 23.296875 C 167.664062 23.144531 167.84375 23.023438 168.050781 22.933594 C 168.257812 22.84375 168.492188 22.796875 168.753906 22.796875 C 169.214844 22.796875 169.574219 22.929688 169.835938 23.191406 C 170.101562 23.453125 170.238281 23.804688 170.238281 24.238281 C 170.238281 24.460938 170.195312 24.664062 170.113281 24.847656 C 170.03125 25.035156 169.921875 25.207031 169.785156 25.367188 C 169.644531 25.519531 169.488281 25.664062 169.308594 25.800781 C 169.136719 25.941406 168.957031 26.074219 168.773438 26.207031 C 168.980469 26.488281 169.214844 26.765625 169.472656 27.035156 C 169.742188 27.296875 170.019531 27.539062 170.308594 27.761719 C 170.496094 27.511719 170.660156 27.238281 170.804688 26.941406 C 170.949219 26.636719 171.070312 26.308594 171.164062 25.957031 L 172.257812 25.957031 C 172.136719 26.386719 171.976562 26.796875 171.785156 27.191406 C 171.59375 27.585938 171.363281 27.957031 171.105469 28.308594 C 171.324219 28.449219 171.535156 28.566406 171.742188 28.660156 C 171.949219 28.75 172.140625 28.8125 172.320312 28.847656 L 172.023438 29.820312 C 171.761719 29.761719 171.492188 29.671875 171.21875 29.554688 C 170.941406 29.429688 170.664062 29.277344 170.382812 29.097656 C 170.113281 29.316406 169.8125 29.492188 169.472656 29.625 C 169.136719 29.757812 168.761719 29.820312 168.351562 29.820312 Z M 168.039062 24.476562 C 168.039062 24.636719 168.066406 24.796875 168.113281 24.964844 C 168.160156 25.121094 168.226562 25.292969 168.308594 25.472656 C 168.589844 25.292969 168.828125 25.109375 169.019531 24.921875 C 169.214844 24.734375 169.308594 24.511719 169.308594 24.25 C 169.308594 24.070312 169.269531 23.917969 169.183594 23.792969 C 169.101562 23.667969 168.960938 23.605469 168.761719 23.605469 C 168.550781 23.605469 168.375 23.6875 168.238281 23.84375 C 168.105469 24.003906 168.039062 24.214844 168.039062 24.476562 Z M 168.496094 28.898438 C 168.679688 28.898438 168.863281 28.867188 169.039062 28.796875 C 169.226562 28.71875 169.40625 28.621094 169.578125 28.496094 C 169.273438 28.242188 168.984375 27.972656 168.710938 27.6875 C 168.441406 27.398438 168.199219 27.097656 167.980469 26.785156 C 167.785156 26.945312 167.628906 27.113281 167.503906 27.285156 C 167.386719 27.449219 167.328125 27.636719 167.328125 27.84375 C 167.328125 28.160156 167.4375 28.417969 167.660156 28.609375 C 167.878906 28.804688 168.15625 28.898438 168.496094 28.898438 Z M 179.179688 29.820312 C 178.835938 29.820312 178.511719 29.761719 178.207031 29.644531 C 177.914062 29.527344 177.65625 29.355469 177.433594 29.128906 C 177.214844 28.898438 177.042969 28.621094 176.917969 28.289062 C 176.796875 27.957031 176.734375 27.582031 176.734375 27.160156 C 176.734375 26.738281 176.800781 26.363281 176.941406 26.03125 C 177.078125 25.699219 177.261719 25.417969 177.496094 25.191406 C 177.730469 24.964844 178 24.789062 178.300781 24.671875 C 178.609375 24.550781 178.933594 24.488281 179.269531 24.488281 C 179.601562 24.488281 179.882812 24.542969 180.117188 24.652344 C 180.355469 24.761719 180.570312 24.898438 180.753906 25.058594 L 180.179688 25.832031 C 180.039062 25.714844 179.902344 25.625 179.765625 25.5625 C 179.636719 25.496094 179.492188 25.460938 179.332031 25.460938 C 178.921875 25.460938 178.585938 25.617188 178.332031 25.925781 C 178.078125 26.230469 177.949219 26.640625 177.949219 27.160156 C 177.949219 27.671875 178.074219 28.082031 178.320312 28.390625 C 178.578125 28.695312 178.902344 28.847656 179.300781 28.847656 C 179.5 28.847656 179.6875 28.808594 179.859375 28.722656 C 180.039062 28.632812 180.199219 28.53125 180.34375 28.414062 L 180.828125 29.199219 C 180.585938 29.40625 180.324219 29.5625 180.035156 29.667969 C 179.753906 29.769531 179.464844 29.820312 179.179688 29.820312 Z M 183.832031 29.820312 C 183.382812 29.820312 183.023438 29.6875 182.746094 29.417969 C 182.472656 29.140625 182.335938 28.777344 182.335938 28.332031 C 182.335938 28.0625 182.390625 27.824219 182.5 27.617188 C 182.617188 27.402344 182.796875 27.21875 183.035156 27.066406 C 183.285156 26.914062 183.59375 26.785156 183.964844 26.683594 C 184.34375 26.578125 184.792969 26.5 185.316406 26.445312 C 185.308594 26.3125 185.289062 26.1875 185.253906 26.070312 C 185.226562 25.949219 185.175781 25.839844 185.097656 25.75 C 185.03125 25.652344 184.9375 25.582031 184.820312 25.535156 C 184.703125 25.476562 184.558594 25.449219 184.386719 25.449219 C 184.140625 25.449219 183.894531 25.5 183.65625 25.59375 C 183.421875 25.691406 183.191406 25.808594 182.964844 25.949219 L 182.53125 25.148438 C 182.8125 24.96875 183.128906 24.816406 183.480469 24.683594 C 183.832031 24.550781 184.207031 24.488281 184.613281 24.488281 C 185.246094 24.488281 185.71875 24.675781 186.027344 25.058594 C 186.34375 25.429688 186.5 25.972656 186.5 26.683594 L 186.5 29.699219 L 185.523438 29.699219 L 185.441406 29.136719 L 185.398438 29.136719 C 185.171875 29.332031 184.925781 29.492188 184.667969 29.625 C 184.410156 29.757812 184.132812 29.820312 183.832031 29.820312 Z M 184.210938 28.890625 C 184.417969 28.890625 184.605469 28.839844 184.769531 28.746094 C 184.941406 28.648438 185.125 28.511719 185.316406 28.332031 L 185.316406 27.191406 C 184.972656 27.230469 184.683594 27.289062 184.449219 27.355469 C 184.214844 27.425781 184.027344 27.503906 183.882812 27.59375 C 183.738281 27.675781 183.632812 27.773438 183.574219 27.886719 C 183.511719 27.996094 183.480469 28.113281 183.480469 28.238281 C 183.480469 28.464844 183.546875 28.628906 183.6875 28.734375 C 183.824219 28.839844 184 28.890625 184.210938 28.890625 Z M 188.796875 29.699219 L 188.796875 24.609375 L 189.777344 24.609375 L 189.859375 25.511719 L 189.902344 25.511719 C 190.082031 25.179688 190.296875 24.929688 190.550781 24.757812 C 190.804688 24.578125 191.066406 24.488281 191.335938 24.488281 C 191.574219 24.488281 191.769531 24.519531 191.914062 24.589844 L 191.707031 25.625 C 191.617188 25.597656 191.535156 25.578125 191.457031 25.5625 C 191.382812 25.550781 191.289062 25.542969 191.179688 25.542969 C 190.980469 25.542969 190.769531 25.621094 190.550781 25.78125 C 190.332031 25.933594 190.140625 26.203125 189.984375 26.589844 L 189.984375 29.699219 Z M 195.585938 29.820312 C 195.238281 29.820312 194.910156 29.761719 194.605469 29.644531 C 194.304688 29.523438 194.039062 29.34375 193.8125 29.117188 C 193.585938 28.890625 193.40625 28.613281 193.277344 28.289062 C 193.152344 27.957031 193.089844 27.582031 193.089844 27.160156 C 193.089844 26.746094 193.15625 26.371094 193.289062 26.039062 C 193.417969 25.710938 193.589844 25.429688 193.804688 25.203125 C 194.023438 24.972656 194.273438 24.796875 194.554688 24.671875 C 194.835938 24.550781 195.125 24.488281 195.421875 24.488281 C 195.765625 24.488281 196.070312 24.546875 196.328125 24.664062 C 196.589844 24.78125 196.808594 24.945312 196.980469 25.160156 C 197.160156 25.375 197.292969 25.628906 197.382812 25.925781 C 197.472656 26.222656 197.515625 26.546875 197.515625 26.902344 C 197.515625 27.019531 197.507812 27.128906 197.496094 27.230469 C 197.488281 27.335938 197.476562 27.417969 197.464844 27.480469 L 194.246094 27.480469 C 194.300781 27.9375 194.460938 28.289062 194.722656 28.539062 C 194.988281 28.777344 195.328125 28.898438 195.742188 28.898438 C 195.960938 28.898438 196.164062 28.867188 196.351562 28.808594 C 196.542969 28.738281 196.730469 28.644531 196.917969 28.527344 L 197.320312 29.273438 C 197.078125 29.433594 196.8125 29.5625 196.515625 29.667969 C 196.21875 29.769531 195.910156 29.820312 195.585938 29.820312 Z M 194.234375 26.671875 L 196.484375 26.671875 C 196.484375 26.277344 196.398438 25.972656 196.226562 25.75 C 196.0625 25.523438 195.804688 25.410156 195.453125 25.410156 C 195.152344 25.410156 194.886719 25.515625 194.660156 25.730469 C 194.433594 25.945312 194.292969 26.257812 194.234375 26.671875 Z M 194.234375 26.671875 "/>
</g>
</svg>
