<svg width="512" height="512" viewBox="0 0 512 512" fill="none" xmlns="http://www.w3.org/2000/svg">
<path fill-rule="evenodd" clip-rule="evenodd" d="M285.764 470.63C283.19 470.63 280.956 468.707 280.638 466.082C270.138 379.622 271.426 320.844 272.562 268.984C273.575 222.763 274.531 179.107 266.773 123.992C261.483 86.4059 244.112 60.0008 220.314 53.3539C201.554 48.1086 180.906 55.581 162.406 73.9502C159.507 73.952 156.48 74.1056 153.317 74.4271C152.729 73.0814 152.078 71.7737 151.368 70.5076C173.449 46.595 199.246 36.7493 223.095 43.398C250.969 51.1846 271.124 80.7723 277.005 122.548C284.884 178.498 283.92 222.559 282.894 269.21C281.767 320.725 280.486 379.107 290.897 464.838C291.24 467.672 289.226 470.247 286.391 470.587C286.183 470.618 285.971 470.632 285.764 470.63V470.63ZM149.737 85.203C148.654 85.1614 147.57 84.7839 146.669 84.047C147.527 84.7424 148.599 85.156 149.737 85.203Z" fill="#EFEAD3"/>
<path fill-rule="evenodd" clip-rule="evenodd" d="M219.721 470.63C217.115 470.63 214.873 468.667 214.59 466.014C213.145 452.644 212.029 439.142 211.279 425.885C208.696 380.375 210.192 336.486 215.728 295.436C226.103 218.5 248.352 170.364 283.752 148.28C306.508 134.09 334.284 131.426 366.448 140.332C366.72 141.962 367.058 143.632 367.465 145.343C365.422 146.652 363.534 148.144 361.813 149.79C333.352 142.301 308.97 144.729 289.219 157.051C256.597 177.403 235.907 223.124 225.967 296.818C220.521 337.217 219.049 380.448 221.591 425.303C222.338 438.386 223.435 451.708 224.864 464.908C225.172 467.742 223.121 470.293 220.283 470.598C220.097 470.618 219.905 470.632 219.721 470.63V470.63ZM378.109 150.169C377.576 151.253 376.694 152.084 375.65 152.568L375.753 152.515C376.804 151.999 377.614 151.161 378.109 150.169Z" fill="#EFEAD3"/>
<path fill-rule="evenodd" clip-rule="evenodd" d="M256.689 470.627C253.936 470.627 251.65 468.461 251.529 465.687C251.198 458.054 250.922 449.731 250.633 440.931C248.265 368.601 244.685 259.299 195.644 255.954C182.553 255.045 173.074 263.601 162.094 273.492C154.513 280.322 146.726 287.332 137.119 291.667C136.24 290.617 135.3 289.569 134.292 288.522C135.54 285.847 136.386 283.045 136.841 280.183C143.445 276.38 149.374 271.038 155.172 265.816C166.835 255.309 178.908 244.474 196.345 245.642C254.709 249.625 258.324 360.001 260.963 440.591C261.248 449.351 261.519 457.642 261.855 465.235C261.976 468.085 259.767 470.498 256.915 470.623C256.844 470.627 256.761 470.627 256.689 470.627V470.627ZM124.461 293.343C124.116 293.039 123.813 292.687 123.558 292.295C123.786 292.642 124.057 292.967 124.373 293.26L124.461 293.343ZM122.911 290.877L122.879 290.749L122.857 290.662L122.911 290.877ZM122.718 289.678C122.709 289.492 122.713 289.308 122.725 289.123C122.715 289.309 122.711 289.494 122.718 289.678ZM122.734 289.013C122.812 288.134 123.112 287.299 123.594 286.582L123.536 286.674C123.07 287.4 122.805 288.202 122.734 289.013V289.013Z" fill="#EFEAD3"/>
<path fill-rule="evenodd" clip-rule="evenodd" d="M304.805 470.627C304.787 470.627 304.765 470.627 304.747 470.627C301.893 470.596 299.605 468.259 299.634 465.403C299.778 452.023 299.509 436.76 299.251 422.002C298.698 390.599 298.176 360.939 301.319 346.66C310.717 303.976 330.648 286.288 376.302 281.467C376.694 282.67 377.16 283.855 377.702 285.016C375.327 287.489 373.32 289.965 371.642 292.427C334.662 297.479 319.424 312.469 311.408 348.88C308.528 361.974 309.066 392.396 309.582 421.817C309.846 436.648 310.115 451.987 309.965 465.515C309.944 468.353 307.633 470.627 304.805 470.627V470.627ZM389.284 285.95C389.289 287.492 388.612 288.896 387.521 289.853L387.626 289.754C388.718 288.742 389.287 287.351 389.284 285.95Z" fill="#EFEAD3"/>
<path fill-rule="evenodd" clip-rule="evenodd" d="M26.6779 281.075C40.7104 305.078 73.244 327.711 99.2987 336.862C116.059 342.748 129.213 336.246 134.347 327.717C140.453 317.582 136.724 304.7 124.371 293.261C122.532 291.558 122.18 288.782 123.536 286.676C130.118 276.445 126.15 264.434 119.303 257.068C105.028 241.728 88.6402 247.338 74.642 258.49C64.3249 266.699 49.2773 278.673 26.6779 281.075V281.075Z" fill="#EFEAD3"/>
<path fill-rule="evenodd" clip-rule="evenodd" d="M392.696 253.561C385.85 260.925 381.88 272.938 388.462 283.168C389.82 285.276 389.466 288.052 387.626 289.754C375.275 301.192 371.545 314.073 377.652 324.209C382.794 332.735 395.959 339.239 412.699 333.354C438.756 324.206 471.286 301.572 485.32 277.569C462.719 275.165 447.675 263.193 437.354 254.98C423.369 243.85 407.133 238.043 392.696 253.561V253.561Z" fill="#EFEAD3"/>
<path fill-rule="evenodd" clip-rule="evenodd" d="M434.441 213.759C446.727 213.759 460.651 215.695 475.166 222.582C472.502 181.014 458.637 144.048 434.811 115.222C420.419 97.814 401.727 96.3022 390.443 102.264C376.991 109.372 372.502 125.888 378.441 146.445C379.14 148.852 378.002 151.412 375.751 152.515C361.704 159.422 358.078 175.23 360.722 187.836C363.545 201.289 374.306 216 396.052 216.947C407.447 217.489 421.736 213.759 434.441 213.759Z" fill="#EFEAD3"/>
<path fill-rule="evenodd" clip-rule="evenodd" d="M39.6393 192.126C81.9102 200.362 142.534 183.337 179.508 160.638C200.088 148.005 209.823 126.327 203.191 107.918C196.705 89.9099 177.042 81.4081 150.662 85.1578C148.175 85.4901 145.805 84.0325 145.025 81.6483C138.889 62.9286 119.875 55.6315 103.782 56.699C86.6299 57.8405 66.5321 68.5857 61.5668 95.3214C60.7413 99.7556 60.6781 105.79 60.6059 112.775C60.3927 133.062 60.0821 163.006 39.6393 192.126V192.126Z" fill="#EFEAD3"/>
</svg>
