<svg width="512" height="512" viewBox="0 0 512 512" fill="none" xmlns="http://www.w3.org/2000/svg">
<path fill-rule="evenodd" clip-rule="evenodd" d="M83.4492 209.296C77.8607 214.83 78.7638 223.072 80.5032 229.012C84.849 243.814 96.7773 259.817 115.004 275.293C133.021 290.595 147.619 300.246 163.644 307.287C162.012 253.418 143.199 214.886 113.711 205.902C104.56 203.117 90.7716 202.049 83.4492 209.296V209.296Z" fill="#EFEAD3"/>
<path fill-rule="evenodd" clip-rule="evenodd" d="M145.807 215.751C161.686 234.283 171.34 263.224 173.587 298.622C181.095 285.856 187.025 271.498 192.834 252.463C199.811 229.594 201.206 209.679 196.865 194.88C195.122 188.938 191.43 181.512 183.738 179.876C175.599 178.131 164.874 183.438 156.433 193.374C151.251 199.472 147.678 206.995 145.807 215.751V215.751Z" fill="#EFEAD3"/>
<path fill-rule="evenodd" clip-rule="evenodd" d="M88.6565 263.638C79.2335 267.44 69.926 273.801 71.9363 283.815C74.521 296.675 93.4448 311.073 113.259 315.25C128.054 318.364 144.281 318.14 155.797 315.075C140.255 307.791 125.78 298.006 108.315 283.174C100.774 276.769 94.1763 270.21 88.6565 263.638V263.638Z" fill="#EFEAD3"/>
<path fill-rule="evenodd" clip-rule="evenodd" d="M209.093 229.025C208.002 237.54 205.992 246.621 203.102 256.084C196.414 277.999 189.523 294.056 180.38 308.582C191.728 304.93 205.506 296.364 216.268 285.748C230.689 271.527 238.835 249.191 234.064 236.974C230.351 227.461 219.076 227.134 209.093 229.025V229.025Z" fill="#EFEAD3"/>
<path fill-rule="evenodd" clip-rule="evenodd" d="M257.341 488.553C254.319 403.551 238.04 391.605 215.514 375.061C201.69 364.912 184.661 352.404 167.225 321.913C167.973 321.561 168.697 321.193 169.391 320.81C172.333 320.831 175.126 320.499 178.003 319.887C193.65 346.185 208.443 357.05 221.63 366.731C246.498 384.992 264.47 398.185 267.669 488.183C267.776 491.033 265.541 493.428 262.691 493.531C259.805 493.531 257.446 491.496 257.341 488.553V488.553Z" fill="#EFEAD3"/>
<path fill-rule="evenodd" clip-rule="evenodd" d="M240.094 19.9063C232.359 22.8613 227.472 30.498 225.963 42C223.429 61.3555 229.027 85.9201 242.165 113.04C255.495 140.569 267.703 159.368 283.204 175.958C309.55 112.219 307.603 57.3077 277.704 31.5312C268.245 23.3725 252.873 15.0548 240.094 19.9063V19.9063Z" fill="#EFEAD3"/>
<path fill-rule="evenodd" clip-rule="evenodd" d="M307.158 59.7262C316.394 89.6354 312.377 129.013 295.839 172.167C312.27 160.896 327.245 146.835 344.786 126.499C358.246 110.902 396.859 55.8754 370.799 37.0474C351.078 22.8288 319.545 42.3107 307.158 59.7262V59.7262Z" fill="#EFEAD3"/>
<path fill-rule="evenodd" clip-rule="evenodd" d="M188.537 100.209C184.905 116.664 199.502 143.277 220.417 158.324C237.088 170.314 257.708 178.664 273.113 180.244C258.065 163.557 245.951 144.575 232.858 117.547C227.345 106.159 223.052 95.0938 220.068 84.6051C207.939 84.0922 191.681 85.967 188.537 100.209V100.209Z" fill="#EFEAD3"/>
<path fill-rule="evenodd" clip-rule="evenodd" d="M297.694 184.334C312.982 186.781 335.057 184.023 354.256 176.737C378.345 167.594 399.31 145.65 400.041 128.811C400.65 114.874 386.739 108.512 373.602 105.606C368.012 114.973 361.013 124.552 352.744 134.134C333.132 156.868 316.535 172.086 297.694 184.334V184.334Z" fill="#EFEAD3"/>
<path fill-rule="evenodd" clip-rule="evenodd" d="M253.048 421.088C250.515 421.088 248.301 419.224 247.934 416.644C239.707 358.748 251.285 324.216 262.487 290.827C271.832 262.96 281.479 234.182 279.982 190.82C280.921 190.786 281.841 190.724 282.738 190.636L282.838 190.684C285.114 191.755 287.649 192.648 290.4 193.365C291.459 236.94 281.721 265.977 272.286 294.112C260.973 327.847 250.282 359.718 258.168 415.187C258.573 418.017 256.61 420.632 253.779 421.032C253.535 421.069 253.288 421.088 253.048 421.088V421.088Z" fill="#EFEAD3"/>
<path fill-rule="evenodd" clip-rule="evenodd" d="M378.224 294.701C389.258 283.147 400.739 267.301 409.439 246.083C412.015 239.79 402.458 235.878 399.875 242.164C390.523 264.981 377.811 281.084 366.289 292.058C363.863 274.278 368.021 256.756 378.513 240.924C392.071 220.458 415.333 203.964 440.342 196.392C429.535 212.065 427.818 228.279 426.253 242.944C425.09 253.906 423.988 264.257 419.213 273.151C413.655 283.502 399.604 290.843 378.224 294.701Z" fill="#EFEAD3"/>
<path fill-rule="evenodd" clip-rule="evenodd" d="M151.909 395.213C167.52 406.105 174.815 420.687 181.419 433.874C186.351 443.729 191.01 453.045 198.592 459.692C207.798 467.764 224.486 469.552 247.248 465.004C242.277 461.735 237.912 458.243 233.633 454.817C225.427 448.249 217.677 442.052 206.823 438.852C204.087 438.041 202.521 435.165 203.324 432.425C204.135 429.694 207.007 428.132 209.742 428.932C222.546 432.709 231.465 439.845 240.088 446.745C244.577 450.337 249.166 454.006 254.421 457.315C250.23 440.476 240.337 426.073 225.414 415.246C205.548 400.833 177.981 393.508 151.909 395.213V395.213Z" fill="#EFEAD3"/>
<path fill-rule="evenodd" clip-rule="evenodd" d="M258.177 445.52C255.329 445.369 253.14 442.939 253.29 440.089C256.94 371.126 275.564 343.408 339.959 311.111C343.328 309.422 349.632 305.896 357.189 299.952C357.424 301.039 357.68 302.126 357.957 303.212C358.547 305.52 360.624 307.106 362.962 307.106C363.558 307.106 364.166 307.097 364.786 307.081C355.934 314.221 348.472 318.404 344.592 320.349C283.701 350.889 267.05 375.618 263.612 440.636C263.461 443.517 261.037 445.636 258.177 445.52Z" fill="#EFEAD3"/>
<path fill-rule="evenodd" clip-rule="evenodd" d="M302.451 357.839C314.528 377.623 325.121 383.088 332.292 383.941C340.745 384.927 349.29 382.59 358.33 380.101C370.1 376.853 383.059 373.291 398.228 376.277C384.485 359.618 364.799 347.009 345.001 342.783C330.37 339.667 316.289 341.296 303.721 347.497C308.17 348.64 312.514 349.355 316.778 350.058C326.192 351.611 335.93 353.215 345.804 359.282C348.255 360.794 349.005 363.242 348.288 365.268C347.293 368.086 343.731 370.134 340.391 368.091C332.249 363.083 324.296 361.773 315.097 360.261C310.984 359.579 306.795 358.889 302.451 357.839V357.839Z" fill="#EFEAD3"/>
</svg>
