<svg width="512" height="512" viewBox="0 0 512 512" fill="none" xmlns="http://www.w3.org/2000/svg">
<path fill-rule="evenodd" clip-rule="evenodd" d="M191.647 242.378C191.053 242.378 190.455 242.274 189.882 242.068C181.632 239.071 175.42 235.918 169.938 233.14C157.044 226.588 148.524 222.281 124.226 225.568C121.383 225.965 118.795 223.975 118.408 221.145C118.026 218.314 120.005 215.715 122.836 215.332C150.321 211.593 161.046 217.028 174.616 223.919C176.097 224.672 177.634 225.452 179.255 226.249C169.212 211.373 151.981 188.022 146.902 183.075C144.857 181.088 144.812 177.815 146.802 175.769C148.793 173.728 152.062 173.675 154.112 175.675C159.5 180.92 196.025 229.142 196.791 236.689C196.968 238.459 196.228 240.195 194.822 241.284C193.901 242.003 192.781 242.378 191.647 242.378V242.378Z" fill="#EFEAD3"/>
<path fill-rule="evenodd" clip-rule="evenodd" d="M191.587 242.375C190.502 242.373 189.416 242.033 188.49 241.343C186.423 239.794 185.815 236.956 187.068 234.698C192.323 225.216 189.135 200.18 178.541 167.729C178.151 166.541 177.77 165.338 177.349 164.391C176.189 161.781 177.365 158.729 179.975 157.575C182.585 156.411 185.638 157.591 186.792 160.201C187.348 161.445 187.868 163.004 188.306 164.333C193.762 181.054 199.098 201.144 199.791 217.51C206.756 205.969 214.055 190.433 221.153 171.898C222.176 169.228 225.163 167.884 227.829 168.918C230.492 169.938 231.826 172.927 230.806 175.588C222.468 197.373 209.534 226.368 195.267 240.836C194.262 241.853 192.931 242.375 191.587 242.375V242.375Z" fill="#EFEAD3"/>
<path fill-rule="evenodd" clip-rule="evenodd" d="M132.291 257.11C130.315 257.11 128.428 255.965 127.571 254.045C126.408 251.438 127.584 248.386 130.191 247.223C134.148 245.456 138.143 244.351 142.012 243.283C144.339 242.64 146.651 242.001 148.907 241.217C155.595 238.882 165.166 237.249 173.607 235.811C179.964 234.731 186.528 233.609 189.297 232.56C190.681 231.664 196.222 227.822 202.071 223.774C228.64 205.371 243.766 195.077 247.593 193.368C250.199 192.218 253.255 193.385 254.415 195.991C255.573 198.597 254.402 201.655 251.792 202.819C248.129 204.446 220.995 223.242 207.954 232.269C197.198 239.723 194.71 241.443 193.591 241.967L193.592 241.972C193.562 241.985 193.526 241.997 193.488 242.014C193.432 242.039 193.376 242.061 193.323 242.084C189.59 243.571 182.975 244.698 175.344 246.003C167.305 247.369 158.191 248.928 152.311 250.978C149.844 251.836 147.312 252.542 144.77 253.245C141.111 254.262 137.652 255.217 134.395 256.664C133.714 256.969 132.999 257.112 132.291 257.11V257.11Z" fill="#EFEAD3"/>
<path fill-rule="evenodd" clip-rule="evenodd" d="M107.64 210.927C115.152 209.35 122.198 212.641 123.381 218.273C124.56 223.904 119.427 229.746 111.917 231.326C104.412 232.898 97.3642 229.607 96.1812 223.978C94.9999 218.347 100.13 212.502 107.64 210.927Z" fill="#EFEAD3"/>
<path fill-rule="evenodd" clip-rule="evenodd" d="M115.432 247.783C122.496 244.786 130.044 246.647 132.293 251.944C134.542 257.24 130.644 263.968 123.576 266.967C116.517 269.968 108.964 268.108 106.715 262.805C104.468 257.513 108.368 250.781 115.432 247.783Z" fill="#EFEAD3"/>
<path fill-rule="evenodd" clip-rule="evenodd" d="M257.881 182.773C250.925 186.015 247.261 192.877 249.694 198.092C252.128 203.308 259.736 204.905 266.688 201.661C273.644 198.419 277.309 191.557 274.876 186.342C272.447 181.128 264.837 179.529 257.881 182.773Z" fill="#EFEAD3"/>
<path fill-rule="evenodd" clip-rule="evenodd" d="M219.43 154.387C216.614 162.964 219.542 171.631 225.976 173.744C232.412 175.859 239.907 170.614 242.729 162.04C245.546 153.464 242.613 144.796 236.178 142.68C229.747 140.565 222.248 145.812 219.43 154.387V154.387Z" fill="#EFEAD3"/>
<path fill-rule="evenodd" clip-rule="evenodd" d="M145.834 157.799C153.207 164.189 155.3 173.85 150.507 179.376C145.718 184.906 135.86 184.207 128.487 177.826C121.114 171.436 119.021 161.774 123.814 156.243C128.601 150.713 138.465 151.41 145.834 157.799Z" fill="#EFEAD3"/>
<path fill-rule="evenodd" clip-rule="evenodd" d="M165.769 153.447C169.189 160.898 176.484 164.861 182.074 162.294C187.655 159.735 189.422 151.618 186.001 144.167C182.587 136.72 175.286 132.757 169.702 135.322C164.115 137.883 162.354 145.997 165.769 153.447V153.447Z" fill="#EFEAD3"/>
<path fill-rule="evenodd" clip-rule="evenodd" d="M258.799 496.093C257 496.093 255.25 495.15 254.299 493.474C234.446 458.455 232.529 418.122 230.68 379.122C228.263 328.203 225.982 280.105 187.932 240.805C185.945 238.752 186.001 235.479 188.051 233.497C190.103 231.516 193.379 231.563 195.361 233.613C236.122 275.716 238.605 328.038 241.004 378.629C242.877 418.161 244.652 455.5 263.293 488.373C264.7 490.853 263.825 494.01 261.346 495.419C260.54 495.872 259.664 496.093 258.799 496.093Z" fill="#EFEAD3"/>
<path fill-rule="evenodd" clip-rule="evenodd" d="M300.683 149.4C299.852 149.4 299.02 149.197 298.266 148.8C296.695 147.966 295.66 146.389 295.526 144.613C294.804 134.901 341.531 61.5831 343.612 58.6895C345.279 56.3721 348.512 55.8339 350.826 57.51C353.143 59.1754 353.669 62.4067 352.005 64.7205C345.593 73.6305 323.521 110.062 312.353 130.747C314.605 129.222 316.793 127.702 318.96 126.199C337.763 113.158 354.008 101.891 389.06 100.496C391.899 100.453 394.314 102.602 394.43 105.453C394.543 108.305 392.323 110.712 389.473 110.824C357.424 112.099 343.048 122.07 324.852 134.69C318.276 139.256 311.479 143.967 303.262 148.704C302.466 149.167 301.574 149.4 300.683 149.4V149.4Z" fill="#EFEAD3"/>
<path fill-rule="evenodd" clip-rule="evenodd" d="M300.678 149.4C299.636 149.4 298.593 149.085 297.688 148.444C279.019 135.19 265.718 105.859 256.917 86.4439C254.411 80.9096 252.244 76.1286 250.788 73.7046C249.32 71.2572 250.113 68.0837 252.556 66.6152C255.004 65.1594 258.177 65.9397 259.649 68.3889C261.407 71.3168 263.582 76.1123 266.329 82.1794C271.838 94.3244 279.951 112.224 289.983 125.832C289.01 108.984 293.222 87.533 296.856 69.0446C298.178 62.2947 299.328 56.4643 299.961 51.9939C300.219 50.1425 300.512 48.1484 300.916 46.5337C301.604 43.7629 304.426 42.0795 307.178 42.7695C309.949 43.4613 311.636 46.2664 310.942 49.0317C310.619 50.3285 310.406 51.9252 310.215 53.2727C309.523 58.182 308.351 64.1371 306.994 71.0332C302.69 92.9463 295.485 129.614 304.693 140.975C306.317 142.982 306.214 145.885 304.447 147.769C303.438 148.845 302.065 149.4 300.678 149.4V149.4Z" fill="#EFEAD3"/>
<path fill-rule="evenodd" clip-rule="evenodd" d="M385.406 150.837C384.996 150.837 384.573 150.785 384.156 150.682C379.828 149.609 375.399 149.183 370.71 148.739C367.589 148.442 364.358 148.132 361.15 147.611C353.513 146.367 339.026 147.541 326.239 148.572C313.032 149.64 304.568 150.259 299.952 149.356C298.698 149.214 297.354 148.421 284.077 140.593C269.515 132.004 235.419 111.895 230.466 110.617C227.715 109.907 226.03 107.098 226.731 104.338C227.432 101.582 230.199 99.8894 232.968 100.592C238.244 101.903 256.844 112.538 289.326 131.691C295.115 135.103 300.609 138.346 302.323 139.283C306.046 139.83 316.303 139.007 325.408 138.272C338.782 137.195 353.932 135.97 362.803 137.41C365.676 137.876 368.601 138.156 371.693 138.449C376.552 138.918 381.573 139.397 386.65 140.658C389.421 141.342 391.108 144.147 390.42 146.916C389.831 149.266 387.727 150.837 385.406 150.837V150.837Z" fill="#EFEAD3"/>
<path fill-rule="evenodd" clip-rule="evenodd" d="M406.47 90.7282C397.04 90.4266 389.208 95.9175 388.984 102.994C388.76 110.067 396.223 116.044 405.655 116.342C415.087 116.642 422.914 111.148 423.141 104.08C423.365 97.0048 415.897 91.0263 406.47 90.7282Z" fill="#EFEAD3"/>
<path fill-rule="evenodd" clip-rule="evenodd" d="M404.927 137.022C395.732 134.903 386.993 138.776 385.4 145.67C383.811 152.57 389.977 159.878 399.173 161.996C408.365 164.115 417.105 160.242 418.694 153.348C420.289 146.454 414.121 139.142 404.927 137.022Z" fill="#EFEAD3"/>
<path fill-rule="evenodd" clip-rule="evenodd" d="M218.524 88.8118C227.641 91.2502 233.55 98.7695 231.72 105.604C229.89 112.443 221.018 116.004 211.904 113.571C202.788 111.129 196.882 103.612 198.708 96.77C200.537 89.9407 209.409 86.3716 218.524 88.8118Z" fill="#EFEAD3"/>
<path fill-rule="evenodd" clip-rule="evenodd" d="M259.001 46.2049C264.252 55.9892 262.559 67.1137 255.221 71.0513C247.882 74.987 237.679 70.2457 232.43 60.4614C227.184 50.6771 228.88 39.5562 236.216 35.6187C243.554 31.6829 253.756 36.4243 259.001 46.2049V46.2049Z" fill="#EFEAD3"/>
<path fill-rule="evenodd" clip-rule="evenodd" d="M348.604 40.938C342.815 48.0708 342.457 57.3637 347.807 61.7059C353.157 66.0426 362.179 63.7776 367.963 56.6539C373.752 49.5211 374.104 40.2281 368.76 35.886C363.411 31.5493 354.387 33.807 348.604 40.938V40.938Z" fill="#EFEAD3"/>
<path fill-rule="evenodd" clip-rule="evenodd" d="M321.885 35.0804C319.616 43.8027 312.471 49.4868 305.932 47.7818C299.395 46.0803 295.936 37.6254 298.207 28.9104C300.483 20.1881 307.621 14.504 314.163 16.2108C320.7 17.9141 324.159 26.3636 321.885 35.0804V35.0804Z" fill="#EFEAD3"/>
<path fill-rule="evenodd" clip-rule="evenodd" d="M230.676 379.066C228.673 322.75 247.579 285.571 265.87 249.614C282.361 217.185 297.934 186.559 295.523 144.53C295.36 141.678 297.533 139.236 300.383 139.073C303.3 138.974 305.676 141.086 305.836 143.936C308.41 188.757 292.221 220.592 275.082 254.301C257.39 289.087 239.095 325.056 241.002 378.697C241.105 381.553 238.876 383.948 236.021 384.051C233.132 384.047 230.779 382.008 230.676 379.066V379.066Z" fill="#EFEAD3"/>
<path fill-rule="evenodd" clip-rule="evenodd" d="M363.608 324.495C362.553 324.495 361.502 324.171 360.615 323.543C359.17 322.51 358.35 320.812 358.45 319.038C358.878 311.472 393.245 261.681 398.398 256.2C400.35 254.119 403.623 254.02 405.704 255.974C407.785 257.93 407.882 261.197 405.928 263.284C401.074 268.448 384.885 292.535 375.509 307.832C377.09 306.967 378.592 306.118 380.041 305.3C393.293 297.819 403.775 291.919 431.395 294.439C434.238 294.697 436.332 297.213 436.072 300.06C435.813 302.903 433.306 304.986 430.451 304.736C406.029 302.493 397.711 307.195 385.122 314.302C379.765 317.322 373.701 320.748 365.584 324.104C364.948 324.365 364.275 324.495 363.608 324.495V324.495Z" fill="#EFEAD3"/>
<path fill-rule="evenodd" clip-rule="evenodd" d="M363.668 324.486C362.402 324.486 361.139 324.025 360.148 323.107C345.252 309.279 331.055 280.876 321.774 259.492C320.638 256.875 321.839 253.828 324.458 252.697C327.065 251.559 330.117 252.757 331.255 255.38C339.154 273.575 347.13 288.775 354.597 300.002C354.568 283.641 359.002 263.377 363.684 246.563C364.141 244.945 364.578 243.403 365.071 242.165C366.117 239.512 369.119 238.213 371.772 239.254C374.429 240.305 375.73 243.307 374.684 245.96C374.317 246.896 373.999 248.057 373.723 249.058C364.486 282.218 362.4 307.372 368.071 316.618C369.421 318.818 368.937 321.677 366.941 323.315C365.985 324.099 364.827 324.486 363.668 324.486V324.486Z" fill="#EFEAD3"/>
<path fill-rule="evenodd" clip-rule="evenodd" d="M423.551 336.605C422.921 336.605 422.28 336.49 421.658 336.244C418.351 334.942 414.862 334.142 411.162 333.284C408.587 332.695 406.02 332.101 403.513 331.346C397.549 329.55 388.379 328.403 380.287 327.388C372.415 326.402 365.613 325.553 361.871 324.162C359.194 323.176 357.827 320.199 358.818 317.524C359.815 314.849 362.776 313.486 365.46 314.47C368.082 315.444 374.942 316.3 381.571 317.131C390.069 318.194 399.698 319.405 406.49 321.442C408.782 322.134 411.128 322.672 413.483 323.216C417.387 324.112 421.422 325.036 425.444 326.628C428.101 327.67 429.407 330.672 428.36 333.325C427.559 335.364 425.612 336.605 423.551 336.605V336.605Z" fill="#EFEAD3"/>
<path fill-rule="evenodd" clip-rule="evenodd" d="M446.376 289.373C438.805 288.128 431.909 291.724 430.975 297.401C430.045 303.087 435.427 308.694 442.999 309.944C450.571 311.183 457.465 307.587 458.4 301.906C459.331 296.229 453.946 290.614 446.376 289.373Z" fill="#EFEAD3"/>
<path fill-rule="evenodd" clip-rule="evenodd" d="M440.212 326.536C433.028 323.853 425.565 326.044 423.549 331.438C421.539 336.826 425.731 343.371 432.92 346.059C440.109 348.747 447.567 346.552 449.582 341.166C451.6 335.773 447.401 329.223 440.212 326.536Z" fill="#EFEAD3"/>
<path fill-rule="evenodd" clip-rule="evenodd" d="M332.209 237.809C335.399 246.255 332.85 255.04 326.519 257.435C320.185 259.83 312.458 254.924 309.266 246.479C306.075 238.027 308.625 229.242 314.96 226.852C321.294 224.454 329.016 229.363 332.209 237.809V237.809Z" fill="#EFEAD3"/>
<path fill-rule="evenodd" clip-rule="evenodd" d="M405.009 243.079C399.585 248.213 398.311 255.672 402.162 259.738C406.013 263.804 413.529 262.939 418.949 257.804C424.371 252.674 425.647 245.214 421.796 241.148C417.95 237.084 410.431 237.946 405.009 243.079Z" fill="#EFEAD3"/>
<path fill-rule="evenodd" clip-rule="evenodd" d="M384.091 235.517C381.336 242.304 374.969 246.134 369.879 244.065C364.79 241.994 362.897 234.814 365.655 228.026C368.415 221.24 374.776 217.409 379.868 219.483C384.958 221.551 386.847 228.731 384.091 235.517Z" fill="#EFEAD3"/>
<path fill-rule="evenodd" clip-rule="evenodd" d="M258.79 496.093C256.198 496.093 253.962 494.149 253.662 491.516C247.163 434.869 280.652 403.081 313.043 372.336C331.647 354.673 349.218 337.991 358.923 317.145C360.128 314.562 363.204 313.437 365.792 314.643C368.38 315.854 369.5 318.921 368.294 321.513C357.762 344.137 338.646 362.284 320.158 379.832C288.204 410.164 258.02 438.816 263.93 490.338C264.257 493.172 262.22 495.735 259.386 496.062C259.183 496.08 258.985 496.093 258.79 496.093V496.093Z" fill="#EFEAD3"/>
<path fill-rule="evenodd" clip-rule="evenodd" d="M143.56 399.079C143.211 399.079 142.857 399.041 142.505 398.967C134.491 397.296 128.344 395.206 122.922 393.368C110.252 389.071 101.885 386.219 80.066 392.446C77.317 393.218 74.4668 391.634 73.6829 388.894C72.899 386.146 74.4866 383.287 77.2321 382.503C102.16 375.399 112.784 379.019 126.247 383.58C127.324 383.946 128.406 384.317 129.508 384.681C118.221 372.325 100.144 354.017 95.0197 350.284C92.7114 348.599 92.2038 345.369 93.8836 343.061C95.5688 340.756 98.7929 340.252 101.107 341.928C106.345 345.743 146.763 385.332 148.58 392.665C149.006 394.388 148.518 396.214 147.283 397.493C146.298 398.515 144.945 399.079 143.56 399.079V399.079Z" fill="#EFEAD3"/>
<path fill-rule="evenodd" clip-rule="evenodd" d="M143.502 399.084C142.662 399.084 141.81 398.877 141.028 398.447C138.763 397.209 137.753 394.489 138.676 392.076C142.175 382.877 135.786 359.803 122.001 331.842C121.515 330.856 121 329.79 120.484 328.965C118.965 326.55 119.693 323.362 122.108 321.843C124.524 320.319 127.712 321.056 129.231 323.467C129.93 324.574 130.638 325.99 131.225 327.179C138.261 341.442 145.619 358.704 148.587 373.472C153.299 362.089 157.799 347.235 161.743 329.819C162.377 327.036 165.146 325.284 167.928 325.921C170.711 326.554 172.458 329.324 171.826 332.106C167.023 353.277 158.935 381.723 147.664 396.982C146.656 398.342 145.095 399.084 143.502 399.084Z" fill="#EFEAD3"/>
<path fill-rule="evenodd" clip-rule="evenodd" d="M90.8781 420.473C89.1604 420.473 87.4806 419.612 86.498 418.053C84.979 415.638 85.7069 412.445 88.1218 410.929C91.5554 408.771 95.0974 407.218 98.5238 405.724C100.574 404.823 102.615 403.936 104.578 402.915C110.461 399.866 119.066 397.099 126.659 394.655C132.557 392.761 138.649 390.801 140.845 389.482C143.287 388.014 146.466 388.803 147.935 391.252C149.405 393.703 148.61 396.873 146.165 398.342C142.95 400.271 137.155 402.137 129.826 404.496C122.621 406.813 114.451 409.439 109.338 412.093C107.167 413.212 104.923 414.204 102.671 415.19C99.445 416.599 96.4015 417.934 93.6218 419.679C92.7692 420.217 91.8173 420.473 90.8781 420.473V420.473Z" fill="#EFEAD3"/>
<path fill-rule="evenodd" clip-rule="evenodd" d="M62.7697 380.805C69.4744 378.363 76.3922 380.464 78.2255 385.491C80.0552 390.516 76.1014 396.577 69.3967 399.014C62.6957 401.459 55.7742 399.359 53.9427 394.328C52.1094 389.302 56.0632 383.247 62.7697 380.805V380.805Z" fill="#EFEAD3"/>
<path fill-rule="evenodd" clip-rule="evenodd" d="M74.801 413.7C80.9096 410.01 88.1002 410.729 90.8745 415.302C93.6435 419.885 90.9396 426.591 84.8309 430.287C78.7277 433.977 71.5317 433.258 68.7628 428.683C65.9939 424.102 68.6996 417.396 74.801 413.7Z" fill="#EFEAD3"/>
<path fill-rule="evenodd" clip-rule="evenodd" d="M158.203 314.008C156.742 322.277 160.584 329.864 166.784 330.959C172.987 332.057 179.197 326.243 180.656 317.974C182.117 309.709 178.274 302.117 172.073 301.023C165.872 299.925 159.661 305.742 158.203 314.008V314.008Z" fill="#EFEAD3"/>
<path fill-rule="evenodd" clip-rule="evenodd" d="M91.3351 328.009C98.5112 332.621 101.517 340.727 98.0579 346.106C94.5954 351.488 85.9725 352.108 78.8018 347.491C71.6275 342.878 68.6129 334.774 72.0754 329.395C75.5379 324.012 84.1608 323.393 91.3351 328.009V328.009Z" fill="#EFEAD3"/>
<path fill-rule="evenodd" clip-rule="evenodd" d="M109.253 320.432C113.235 326.617 120.226 329.207 124.86 326.216C129.499 323.227 130.03 315.794 126.045 309.61C122.057 303.43 115.072 300.842 110.434 303.831C105.797 306.819 105.266 314.253 109.253 320.432Z" fill="#EFEAD3"/>
<path fill-rule="evenodd" clip-rule="evenodd" d="M258.79 496.093C257.955 496.093 257.101 495.887 256.319 495.459C222.253 476.846 208.264 455.11 197.019 437.636C184.186 417.692 174.912 403.276 142.845 398.949C140.016 398.569 138.035 395.965 138.418 393.14C138.797 390.311 141.411 388.364 144.227 388.709C181.023 393.68 192.465 411.459 205.709 432.044C216.873 449.384 229.52 469.043 261.27 486.391C263.777 487.76 264.698 490.902 263.329 493.401C262.391 495.123 260.616 496.093 258.79 496.093V496.093Z" fill="#EFEAD3"/>
<path fill-rule="evenodd" clip-rule="evenodd" d="M350.692 426.526C334.824 430.144 322.909 434.407 312.938 439.954C296.72 448.981 285.014 461.749 271.753 480.837C275.232 479.705 278.682 478.632 282.079 477.577C299.919 472.036 316.762 466.798 329.285 455.341C336.179 449.035 344.959 435.781 350.692 426.526V426.526Z" fill="#EFEAD3"/>
<path fill-rule="evenodd" clip-rule="evenodd" d="M296.466 311.23C283.623 320.158 274.5 328.262 267.577 336.82C256.306 350.735 250.384 366.377 245.368 388.178C247.987 385.991 250.606 383.86 253.185 381.754C267.257 370.299 280.546 359.476 287.673 344.625C291.553 336.537 294.643 321.635 296.466 311.23Z" fill="#EFEAD3"/>
</svg>
